<?xml version="1.0" encoding="utf-8"?>
<!-- Generator: Adobe Illustrator 18.0.0, SVG Export Plug-In . SVG Version: 6.00 Build 0)  -->
<!DOCTYPE svg PUBLIC "-//W3C//DTD SVG 1.1//EN" "http://www.w3.org/Graphics/SVG/1.1/DTD/svg11.dtd">
<svg version="1.1" id="Layer_1" xmlns="http://www.w3.org/2000/svg" xmlns:xlink="http://www.w3.org/1999/xlink" x="0px" y="0px"
	 viewBox="0 0 173.6 33.3" enable-background="new 0 0 173.6 33.3" xml:space="preserve">
<g>
	<path fill="#1B1B1C" d="M3.4,4.8c0.4-2.2,0.3-3.7,0.2-4.5L9.2,0c0.2,1,0.3,2.5,0,4.5L7.5,15.4c2.6-1.1,4.9-3.7,3.7-7.3l6-0.4
		c1.6,4.2-1.4,7.4-4,9.1L16,26H9.9l-1.7-7.2l-1.4,0.6l-1,6.6H0L3.4,4.8z"/>
	<path fill="#1B1B1C" d="M18.1,20.2c0-7.2,4-12.5,10.5-12.5c3.8,0,6,2.5,6,6.2c0,7.2-4,12.5-10.5,12.5
		C20.3,26.4,18.1,23.8,18.1,20.2z M28.8,14c0-1.5-0.4-2.1-1.1-2.1c-2.3,0-3.8,3.9-3.8,8.2c0,1.5,0.4,2.1,1.1,2.1
		C27.3,22.2,28.8,18.2,28.8,14z"/>
	<path fill="#1B1B1C" d="M41.5,23.6L41.1,26h-5.7l2.1-13.4C37.9,10.2,38,9,37.9,8h5.4c0.6,1.7-0.3,3.9-1.5,7.4
		c2.1-4.8,4.8-7.7,8-7.7c2.4,0,3.4,1.5,3.5,2.9c0,1.2-0.6,3.2-1.2,4.8c2.1-4.8,4.8-7.7,8-7.7c3.2,0,4.1,2.5,3.5,6.3l-1.2,7.5
		c-0.4,2.4-0.5,3.7-0.4,4.6h-5.4c-0.1-0.4-0.4-1.9-0.1-3.5l1.3-8c0.1-0.7,0-1.2-0.6-1.2c-1.2,0-4.2,2.5-5.5,10.3L51.5,26h-5.7
		l0.5-3.5l1.3-8c0.1-0.7,0-1.2-0.6-1.2C45.7,13.3,42.8,15.8,41.5,23.6L41.5,23.6z"/>
	<path fill="#1B1B1C" d="M77.3,19c-1.9,4.5-4.1,7.4-7.4,7.4c-2.5,0-4.1-1.7-4.1-5.7c0-7.1,4-13,9.5-13c1.3,0,2.4,0.6,3.3,1.3
		l0.3-1.3h5.1l-2.2,13.7c-0.4,2.4-0.5,3.7-0.4,4.6h-5.4C75.4,24.3,76.2,22.3,77.3,19z M71.5,20.5c0,0.7,0.2,0.9,0.5,0.9
		c1.2,0,4.3-4.3,5.5-8.6c-0.2-0.2-1-0.8-2-0.8C73.7,12.1,71.5,15.4,71.5,20.5z"/>
	<path fill="#1B1B1C" d="M85.7,8H91c0.2,0.8,0.9,5.2,1.3,13.5c0,0.2,0,0.3,0,0.5c2.1-3.5,3.3-7.7,3.3-11.4c0-0.9-0.1-1.8-0.3-2.5
		l5.3-0.4c0.2,0.6,0.5,1.7,0.5,2.9c0,6-5.2,14.7-11,20.4c-1.4,1.6-3.4,2.3-5.8,2.3c-1.8,0-3-0.6-3.7-1.1l1.6-3.9
		c0.4,0.2,1.5,0.5,2.3,0.5c2.2,0,3-1.2,2.7-6.9C86.8,14.7,86,8.6,85.7,8z"/>
	<path fill="#1B1B1C" d="M104.9,4.8c0.4-2.2,0.3-3.7,0.2-4.5l5.6-0.4c0.2,1,0.3,2.5,0,4.5L109,15.4c2.6-1.1,4.9-3.7,3.7-7.3l6-0.4
		c1.6,4.2-1.4,7.4-4,9.1l2.8,9.2h-6.1l-1.7-7.2l-1.4,0.6l-1,6.6h-5.8L104.9,4.8z"/>
	<path fill="#1B1B1C" d="M125.9,18.8c-0.1,0.6-0.1,1.2-0.1,1.8c0,0.8,0.2,1.1,0.7,1.1c1.5,0,4.5-1.2,5.7-1.7l0.5,4
		c-1.1,0.8-4.4,2.4-7.9,2.4c-3.2,0-4.8-1.7-4.8-5.7c0-5.8,3.2-13,9.5-13c3.2,0,5,1.6,5,4.3C134.6,15.7,130.9,17.9,125.9,18.8z
		 M126.2,15.9c2-0.4,3.4-2,3.4-3.3c0-0.6-0.4-0.8-0.7-0.8C128,11.8,126.7,13.7,126.2,15.9z"/>
	<path fill="#1B1B1C" d="M141.1,23.6l-0.4,2.4H135l2.1-13.4c0.4-2.4,0.5-3.7,0.4-4.6h5.4c0.6,1.7-0.3,3.9-1.5,7.4
		c2.1-4.8,4.8-7.7,8-7.7c2.4,0,3.4,1.5,3.5,2.9c0,1.2-0.6,3.2-1.2,4.8c2.1-4.8,4.8-7.7,8-7.7c3.2,0,4.1,2.5,3.5,6.3l-1.2,7.5
		c-0.4,2.4-0.5,3.7-0.4,4.6h-5.4c-0.1-0.4-0.4-1.9-0.1-3.5l1.3-8c0.1-0.7,0-1.2-0.6-1.2c-1.2,0-4.2,2.5-5.5,10.3L151,26h-5.7
		l0.5-3.5l1.3-8c0.1-0.7,0-1.2-0.6-1.2C145.3,13.3,142.3,15.8,141.1,23.6L141.1,23.6z"/>
	<path fill="#ED1C24" d="M165,21.3l4.5-1.2c0.7,0.6,1.7,2.1,1.7,4c0,3.5-2.7,5.7-6.3,7l-1.6-2.2c1.7-0.8,3.3-2.1,3.3-4.2
		C166.5,23.1,165.6,22,165,21.3z M171,7.7c1.6,0,2.6,0.9,2.6,2.5c0,2.5-1.6,3.8-3.9,3.8c-1.6,0-2.6-0.9-2.6-2.5
		C167.2,9,168.8,7.7,171,7.7z"/>
</g>
</svg>
