<?xml version="1.0" encoding="utf-8"?>
<!-- Generator: Adobe Illustrator 18.0.0, SVG Export Plug-In . SVG Version: 6.00 Build 0)  -->
<!DOCTYPE svg PUBLIC "-//W3C//DTD SVG 1.1//EN" "http://www.w3.org/Graphics/SVG/1.1/DTD/svg11.dtd">
<svg version="1.1" id="Layer_1" xmlns="http://www.w3.org/2000/svg" xmlns:xlink="http://www.w3.org/1999/xlink" x="0px" y="0px"
	 viewBox="0 336.9 612 117.8" enable-background="new 0 336.9 612 117.8" xml:space="preserve">
<g>
	<path fill="#1B1B1C" d="M12,354.2c1.4-7.8,1.1-13,0.7-15.9l19.7-1.1c0.7,3.5,1.1,8.8,0,15.9l-6,38.4c9.2-3.9,17.3-13,13-25.7
		l21.2-1.4c5.6,14.8-4.9,26.1-14.1,32.1l9.9,32.4H34.9l-6-25.4l-4.9,2.1L20.4,429H0L12,354.2z"/>
	<path fill="#1B1B1C" d="M63.8,408.5c0-25.4,14.1-44.1,37-44.1c13.4,0,21.2,8.8,21.2,21.9c0,25.4-14.1,44.1-37,44.1
		C71.6,430.4,63.8,421.2,63.8,408.5z M101.5,386.7c0-5.3-1.4-7.4-3.9-7.4c-8.1,0-13.4,13.7-13.4,28.9c0,5.3,1.4,7.4,3.9,7.4
		C96.2,415.6,101.5,401.5,101.5,386.7z"/>
	<path fill="#1B1B1C" d="M146.3,420.5l-1.4,8.5h-20.1l7.4-47.2c1.4-8.5,1.8-12.7,1.4-16.2h19c2.1,6-1.1,13.7-5.3,26.1
		c7.4-16.9,16.9-27.1,28.2-27.1c8.5,0,12,5.3,12.3,10.2c0,4.2-2.1,11.3-4.2,16.9c7.4-16.9,16.9-27.1,28.2-27.1s14.5,8.8,12.3,22.2
		l-4.2,26.4c-1.4,8.5-1.8,13-1.4,16.2h-19c-0.4-1.4-1.4-6.7-0.4-12.3l4.6-28.2c0.4-2.5,0-4.2-2.1-4.2c-4.2,0-14.8,8.8-19.4,36.3
		l-0.7,8.1h-20.1l1.8-12.3l4.6-28.2c0.4-2.5,0-4.2-2.1-4.2C161.1,384.2,150.9,393,146.3,420.5L146.3,420.5z"/>
	<path fill="#1B1B1C" d="M272.5,404.3c-6.7,15.9-14.5,26.1-26.1,26.1c-8.8,0-14.5-6-14.5-20.1c0-25,14.1-45.8,33.5-45.8
		c4.6,0,8.5,2.1,11.6,4.6l1.1-4.6h18l-7.8,48.3c-1.4,8.5-1.8,13-1.4,16.2h-19C265.8,423,268.6,415.9,272.5,404.3z M252.1,409.6
		c0,2.5,0.7,3.2,1.8,3.2c4.2,0,15.2-15.2,19.4-30.3c-0.7-0.7-3.5-2.8-7.1-2.8C259.8,380,252.1,391.6,252.1,409.6z"/>
	<path fill="#1B1B1C" d="M302.1,365.5h18.7c0.7,2.8,3.2,18.3,4.6,47.6c0,0.7,0,1.1,0,1.8c7.4-12.3,11.6-27.1,11.6-40.2
		c0-3.2-0.4-6.3-1.1-8.8l18.7-1.4c0.7,2.1,1.8,6,1.8,10.2c0,21.2-18.3,51.8-38.8,71.9c-4.9,5.6-12,8.1-20.4,8.1
		c-6.3,0-10.6-2.1-13-3.9l5.6-13.7c1.4,0.7,5.3,1.8,8.1,1.8c7.8,0,10.6-4.2,9.5-24.3C306,389.1,303.2,367.6,302.1,365.5z"/>
	<path fill="#1B1B1C" d="M369.8,354.2c1.4-7.8,1.1-13,0.7-15.9l19.7-1.4c0.7,3.5,1.1,8.8,0,15.9l-6,38.8c9.2-3.9,17.3-13,13-25.7
		l21.2-1.4c5.6,14.8-4.9,26.1-14.1,32.1l9.9,32.4h-21.5l-6-25.4l-4.9,2.1l-3.5,23.3h-20.4L369.8,354.2z"/>
	<path fill="#1B1B1C" d="M443.8,403.6c-0.4,2.1-0.4,4.2-0.4,6.3c0,2.8,0.7,3.9,2.5,3.9c5.3,0,15.9-4.2,20.1-6l1.8,14.1
		c-3.9,2.8-15.5,8.5-27.9,8.5c-11.3,0-16.9-6-16.9-20.1c0-20.4,11.3-45.8,33.5-45.8c11.3,0,17.6,5.6,17.6,15.2
		C474.5,392.7,461.5,400.4,443.8,403.6z M444.9,393.4c7.1-1.4,12-7.1,12-11.6c0-2.1-1.4-2.8-2.5-2.8
		C451.2,378.9,446.7,385.6,444.9,393.4z"/>
	<path fill="#1B1B1C" d="M497.4,420.5L496,429h-20.1l7.4-47.2c1.4-8.5,1.8-13,1.4-16.2h19c2.1,6-1.1,13.7-5.3,26.1
		c7.4-16.9,16.9-27.1,28.2-27.1c8.5,0,12,5.3,12.3,10.2c0,4.2-2.1,11.3-4.2,16.9c7.4-16.9,16.9-27.1,28.2-27.1s14.5,8.8,12.3,22.2
		l-4.2,26.4c-1.4,8.5-1.8,13-1.4,16.2h-19c-0.4-1.4-1.4-6.7-0.4-12.3l4.6-28.2c0.4-2.5,0-4.2-2.1-4.2c-4.2,0-14.8,8.8-19.4,36.3
		l-1.1,8.1h-20.1l1.8-12.3l4.6-28.2c0.4-2.5,0-4.2-2.1-4.2C512.2,384.2,501.7,393,497.4,420.5L497.4,420.5z"/>
	<path fill="#F0050A" d="M581.7,412.4l15.9-4.2c2.5,2.1,6,7.4,6,14.1c0,12.3-9.5,20.1-22.2,24.7l-5.6-7.8c6-2.8,11.6-7.4,11.6-14.8
		C587,418.7,583.8,414.9,581.7,412.4z M602.8,364.4c5.6,0,9.2,3.2,9.2,8.8c0,8.8-5.6,13.4-13.7,13.4c-5.6,0-9.2-3.2-9.2-8.8
		C589.4,369,595.1,364.4,602.8,364.4z"/>
</g>
</svg>
