<?xml version="1.0" encoding="utf-8"?>
<!-- Generator: Adobe Illustrator 18.0.0, SVG Export Plug-In . SVG Version: 6.00 Build 0)  -->
<!DOCTYPE svg PUBLIC "-//W3C//DTD SVG 1.1//EN" "http://www.w3.org/Graphics/SVG/1.1/DTD/svg11.dtd">
<svg version="1.1" id="Layer_1_copy" xmlns="http://www.w3.org/2000/svg" xmlns:xlink="http://www.w3.org/1999/xlink" x="0px"
	 y="0px" viewBox="0 0 612 792" enable-background="new 0 0 612 792" xml:space="preserve">
<path fill="#333333" d="M569.5,449.7l-68-39.1c-7.8-4.4-8.5-11.9-8.5-14.6s0.7-10.2,8.5-14.6l68-39.1
	c40.5-23.5,54.4-75.5,31.3-116.3c-15.3-26.2-43.5-42.5-73.8-42.5c-15,0-29.6,4.1-42.5,11.6l-68,39.1c-6.8,4.1-15,2.7-20.4-2.7
	c-3.4-3.1-5.1-7.5-5.1-12.2v-78.2c0-46.9-38.1-85-85-85s-84.7,38.1-84.7,85v78.2c0,10.5-8.8,17-17,17c-2.7,0-5.8-0.7-8.5-2.4
	l-68-39.1C114.6,187.1,100,183,85,183c-30.3,0-58.5,16.3-73.8,42.5c-23.5,40.5-9.5,92.9,31.3,116.3l68,39.1c7.5,4.8,8.5,11.9,8.5,15
	s-0.7,10.2-8.5,14.6l-68,39.1C22.8,461,8.8,479.3,3.1,501.5s-2.7,44.9,8.5,64.6c15.3,26.2,43.5,42.5,73.8,42.5
	c15,0,29.6-4.1,42.5-11.6l68-39.1c2.7-1.7,5.4-2.4,8.5-2.4c8.2,0,17,6.5,17,17v78.2c0,46.9,38.1,85,85,85s85-38.1,85-85v-78.2
	c0-10.5,8.8-17,17-17c2.7,0,5.8,0.7,8.5,2.4l68,39.1c12.9,7.5,27.6,11.6,42.5,11.6l0,0c30.3,0,58.5-16.3,73.8-42.5
	C624.2,525.6,610.3,473.2,569.5,449.7z M571.2,549.1c-13.9,24.5-45.2,32.7-69.7,18.7l-68-39.1c-34-19.7-76.5,4.8-76.5,44.2v78.2
	c0,28.2-22.8,51-51,51s-51-22.8-51-51V524.9l89.5-49.7c29.3-16.3,46.6-45.9,46.6-79.3s-17.3-62.9-46.6-79.3l-89.1-49.7v-126
	c0-28.2,22.8-51,51-51s51,22.8,51,51v78.2c0,39.1,42.5,64,76.5,44.2l68-39.1c24.5-13.9,55.5-5.8,69.7,18.7
	c14.3,24.5,5.8,55.5-18.7,69.7l-68,39.1c-34,19.7-34,68.7,0,88.4l68,39.1C577,493.6,585.1,524.6,571.2,549.1z"/>
</svg>
