<?xml version="1.0" encoding="utf-8"?>
<!-- Generator: Adobe Illustrator 18.0.0, SVG Export Plug-In . SVG Version: 6.00 Build 0)  -->
<!DOCTYPE svg PUBLIC "-//W3C//DTD SVG 1.1//EN" "http://www.w3.org/Graphics/SVG/1.1/DTD/svg11.dtd">
<svg version="1.1" id="Layer_1_copy" xmlns="http://www.w3.org/2000/svg" xmlns:xlink="http://www.w3.org/1999/xlink" x="0px"
	 y="0px" viewBox="0 0 179.9 200" enable-background="new 0 0 179.9 200" xml:space="preserve">
<path display="none" fill="#231F20" d="M90.3,69L55.9,51.9v96.3L90.3,131c17.6-9,31-13.9,31-31S112.3,80,90.3,69z"/>
<path display="none" fill="#F0050A" d="M101.2,76.8L57.5,52.4l-2.3-1.3h-2.6c-5.6,0-10.2,4.6-10.2,10.2v77.4
	c0,5.6,4.6,10.2,10.2,10.2l2.7,0l45.9-25.6c8.6-4.8,13.7-13.5,13.7-23.3C114.9,90.2,109.8,81.5,101.2,76.8z"/>
<path display="none" fill="#FFFFFF" d="M162.4,124.5l-20-11.5c-10-5.8-10-20.2,0-26l20-11.5c7.2-4.1,9.6-13.3,5.5-20.5
	s-13.3-9.6-20.5-5.5l-20,11.5c-10,5.8-22.5-1.4-22.5-13V25c0-8.3-6.7-15-15-15s-15,6.7-15,15v37.1l26.3,14.6
	c8.6,4.8,13.7,13.5,13.7,23.3c0,9.8-5.1,18.5-13.7,23.3L75,137.9V175c0,8.3,6.7,15,15,15s15-6.7,15-15v-23c0-11.5,12.5-18.8,22.5-13
	l20,11.5c7.2,4.1,16.3,1.7,20.5-5.5S169.6,128.7,162.4,124.5z"/>
<path display="none" fill="#FFFFFF" d="M162.4,124.5l-20-11.5c-10-5.8-10-20.2,0-26l20-11.5c7.2-4.1,9.6-13.3,5.5-20.5
	s-13.3-9.6-20.5-5.5l-20,11.5c-10,5.8-22.5-1.4-22.5-13V25c0-8.3-6.7-15-15-15s-15,6.7-15,15v37.1l26.3,14.6
	c8.6,4.8,13.7,13.5,13.7,23.3c0,9.8-5.1,18.5-13.7,23.3L75,137.9V175c0,8.3,6.7,15,15,15s15-6.7,15-15v-23c0-11.5,12.5-18.8,22.5-13
	l20,11.5c7.2,4.1,16.3,1.7,20.5-5.5S169.6,128.7,162.4,124.5z"/>
<path fill="#5E98AE" d="M167.4,115.8l-20-11.5c-2.3-1.3-2.5-3.5-2.5-4.3s0.2-3,2.5-4.3l20-11.5c11.9-6.9,16-22.2,9.2-34.2
	c-4.5-7.7-12.8-12.5-21.7-12.5c-4.4,0-8.7,1.2-12.5,3.4l-20,11.5c-2,1.2-4.4,0.8-6-0.8c-1-0.9-1.5-2.2-1.5-3.6V25
	c0-13.8-11.2-25-25-25S65,11.2,65,25v23c0,3.1-2.6,5-5,5c-0.8,0-1.7-0.2-2.5-0.7l-20-11.5c-3.8-2.2-8.1-3.4-12.5-3.4
	c-8.9,0-17.2,4.8-21.7,12.5c-6.9,11.9-2.8,27.3,9.2,34.2l20,11.5C34.7,97,35,99.1,35,100s-0.2,3-2.5,4.3l-20,11.5
	c-5.8,3.3-9.9,8.7-11.6,15.2c-1.7,6.5-0.8,13.2,2.5,19c4.5,7.7,12.8,12.5,21.7,12.5c4.4,0,8.7-1.2,12.5-3.4l20-11.5
	c0.8-0.5,1.6-0.7,2.5-0.7c2.4,0,5,1.9,5,5v23c0,13.8,11.2,25,25,25s25-11.2,25-25v-23c0-3.1,2.6-5,5-5c0.8,0,1.7,0.2,2.5,0.7
	l20,11.5c3.8,2.2,8.1,3.4,12.5,3.4c0,0,0,0,0,0c8.9,0,17.2-4.8,21.7-12.5C183.5,138.1,179.4,122.7,167.4,115.8z M167.9,145
	c-4.1,7.2-13.3,9.6-20.5,5.5l-20-11.5c-10-5.8-22.5,1.4-22.5,13v23c0,8.3-6.7,15-15,15s-15-6.7-15-15v-37.1l26.3-14.6
	c8.6-4.8,13.7-13.5,13.7-23.3c0-9.8-5.1-18.5-13.7-23.3L75,62.1V25c0-8.3,6.7-15,15-15s15,6.7,15,15v23c0,11.5,12.5,18.8,22.5,13
	l20-11.5c7.2-4.1,16.3-1.7,20.5,5.5s1.7,16.3-5.5,20.5l-20,11.5c-10,5.8-10,20.2,0,26l20,11.5C169.6,128.7,172,137.8,167.9,145z"/>
</svg>
