<?xml version="1.0" encoding="utf-8"?>
<!-- Generator: Adobe Illustrator 18.0.0, SVG Export Plug-In . SVG Version: 6.00 Build 0)  -->
<!DOCTYPE svg PUBLIC "-//W3C//DTD SVG 1.1//EN" "http://www.w3.org/Graphics/SVG/1.1/DTD/svg11.dtd">
<svg version="1.1" id="Layer_1" xmlns="http://www.w3.org/2000/svg" xmlns:xlink="http://www.w3.org/1999/xlink" x="0px" y="0px"
	 viewBox="0 0 204 267" enable-background="new 0 0 204 267" xml:space="preserve">
<polygon fill="#FFFFFF" stroke="#F0050A" stroke-width="6" stroke-miterlimit="10" points="3,3 3,264 201,264 201,66 138,66 138,3 
	"/>
<g>
	<path fill="#F0050A" d="M39.1,126h17.7c13.2,0,20.3,5.4,20.3,17s-8.5,17.6-19.5,17.6h-5.7V178H39.1V126z M51.9,136.3v14.6h4.5
		c5.1,0,7.3-2.9,7.3-7.4c0-4.7-2.4-7.2-6.5-7.2H51.9z"/>
	<path fill="#F0050A" d="M83.2,178v-52h17.9c17,0,27.3,9.8,27.3,25.5c0,16.6-9.8,26.4-26.8,26.4H83.2z M101.2,168.1
		c8.7,0,13.5-6.5,13.5-15.9c0-10.5-5.1-16.3-13-16.3H96v32.2H101.2z"/>
	<path fill="#F0050A" d="M135.1,126h33.5v10.5h-20.7v10.8h18v10.1h-18V178h-12.8V126z"/>
</g>
<polygon fill="#F0050A" points="138,2.9 138,65.9 201,65.9 204,63 141,0 "/>
</svg>
