<?xml version="1.0" standalone="no"?>
<!DOCTYPE svg PUBLIC "-//W3C//DTD SVG 20010904//EN"
 "http://www.w3.org/TR/2001/REC-SVG-20010904/DTD/svg10.dtd">
<svg version="1.0" xmlns="http://www.w3.org/2000/svg"
 width="500.000000pt" height="500.000000pt" viewBox="0 0 500.000000 500.000000"
 preserveAspectRatio="xMidYMid meet">
<metadata>
Created by potrace 1.11, written by Peter Selinger 2001-2013
</metadata>
<g transform="translate(0.000000,500.000000) scale(0.100000,-0.100000)"
fill="#000000" stroke="none">
<path d="M2416 4639 c-27 -4 -61 -12 -75 -18 -14 -6 -39 -16 -56 -22 -16 -7
-32 -13 -35 -13 -16 -3 -83 -57 -132 -107 -63 -64 -118 -162 -138 -249 -9 -38
-14 -145 -15 -345 -2 -346 -5 -360 -92 -372 -41 -5 -44 -4 -185 78 -36 22 -71
39 -77 39 -6 0 -11 5 -11 10 0 6 -7 10 -15 10 -8 0 -15 4 -15 8 0 4 -12 13
-27 19 -16 7 -50 25 -78 42 -104 62 -201 106 -255 116 -205 36 -415 -48 -537
-213 -26 -36 -48 -68 -48 -71 -1 -3 -11 -33 -24 -66 -13 -33 -25 -93 -28 -133
-6 -75 13 -222 28 -222 5 0 9 -7 9 -16 0 -14 30 -77 52 -109 25 -37 95 -107
131 -131 23 -16 43 -32 45 -36 2 -5 8 -8 13 -8 8 0 89 -45 299 -168 19 -11 53
-30 75 -42 67 -37 94 -74 91 -126 -3 -51 -18 -69 -86 -107 -25 -13 -85 -48
-135 -77 -91 -53 -163 -95 -200 -114 -62 -34 -136 -89 -177 -130 -42 -44 -113
-165 -123 -211 -2 -11 -9 -38 -14 -60 -18 -74 -6 -202 27 -288 85 -219 282
-350 522 -347 33 1 56 4 105 14 37 8 120 44 173 75 29 17 57 31 62 31 6 0 10
5 10 10 0 6 4 10 9 10 4 0 57 28 117 63 235 137 262 146 312 111 45 -31 46
-43 48 -365 0 -168 4 -312 8 -318 5 -7 10 -26 13 -43 8 -53 79 -176 132 -228
108 -107 235 -162 376 -163 128 0 217 29 331 108 47 33 130 128 140 160 4 11
12 27 19 35 24 30 49 136 51 223 1 49 4 91 7 94 3 3 3 11 0 19 -9 23 -9 224 0
224 5 0 5 5 2 10 -9 15 -10 104 -1 118 4 7 3 12 -3 12 -6 0 -9 6 -7 13 3 6 7
24 10 38 3 14 15 36 27 50 17 20 30 24 72 23 43 0 65 -8 127 -44 41 -25 77
-47 80 -50 3 -3 23 -14 45 -25 22 -11 42 -23 43 -27 2 -5 9 -8 17 -8 7 0 18
-7 25 -15 7 -9 15 -13 18 -11 2 3 23 -7 46 -23 104 -71 221 -115 309 -116 20
0 37 -3 37 -6 0 -8 116 8 160 22 191 61 333 217 370 407 12 58 9 183 -4 242
-14 61 -87 187 -139 240 -49 49 -176 130 -392 250 -122 68 -174 102 -186 122
-36 58 -12 128 57 163 21 11 41 23 42 28 2 4 7 7 12 7 6 0 314 174 375 212 11
7 50 42 86 78 103 103 156 231 157 381 1 262 -205 492 -469 525 -63 7 -60 7
-119 0 -102 -12 -164 -36 -292 -112 -35 -20 -81 -47 -103 -59 -22 -13 -92 -53
-154 -89 -135 -78 -170 -83 -220 -37 -17 16 -32 35 -32 43 -1 7 -2 148 -3 313
-2 218 -6 312 -16 345 -8 25 -14 47 -15 50 0 3 -14 32 -30 65 -53 112 -219
249 -328 271 -70 14 -86 16 -132 18 -27 1 -72 -1 -99 -5z m222 -238 c70 -36
126 -95 157 -164 l29 -62 1 -300 c2 -300 6 -349 28 -389 6 -11 11 -24 10 -27
-3 -10 83 -96 117 -117 86 -51 200 -61 282 -24 39 17 439 243 463 262 32 24
125 47 179 44 178 -10 303 -130 310 -299 7 -152 -56 -244 -237 -346 -43 -24
-95 -53 -115 -65 -20 -12 -53 -30 -73 -41 -209 -119 -245 -148 -291 -235 -19
-36 -23 -58 -23 -138 0 -108 16 -149 83 -220 33 -35 249 -170 273 -170 5 0 9
-4 9 -10 0 -5 4 -10 9 -10 9 0 99 -49 161 -88 14 -9 27 -16 30 -16 21 0 117
-101 141 -147 42 -83 43 -215 3 -277 -8 -12 -12 -22 -8 -22 3 0 -9 -18 -26
-40 -84 -106 -228 -151 -352 -109 -30 10 -137 66 -238 125 -257 148 -300 171
-340 179 -67 15 -103 13 -185 -8 -49 -13 -128 -76 -160 -127 -46 -73 -52 -116
-54 -419 -1 -157 -4 -299 -7 -315 -17 -98 -104 -199 -201 -236 -119 -45 -270
-8 -348 83 -42 48 -74 112 -80 158 -3 19 -5 196 -6 394 -1 517 -4 462 31 480
16 8 33 15 36 14 4 0 10 3 13 8 6 9 18 15 118 69 36 20 80 45 97 55 17 11 47
26 66 35 19 9 43 23 53 32 9 8 17 11 17 6 0 -5 4 -4 8 2 4 6 36 26 72 45 36
18 67 36 70 39 3 3 24 18 46 33 53 36 121 111 156 173 91 162 97 371 14 539
-59 120 -147 201 -311 290 -38 21 -104 57 -146 81 -42 24 -81 44 -87 44 -7 0
-12 5 -12 10 0 6 -6 10 -14 10 -7 0 -19 7 -26 15 -7 8 -16 12 -21 9 -5 -3 -9
-1 -9 5 0 5 -6 11 -12 13 -7 2 -46 21 -86 43 l-72 39 2 441 3 440 27 50 c47
87 112 145 191 171 62 20 182 13 235 -15z"/>
</g>
</svg>
