<?xml version="1.0" standalone="no"?>
<!DOCTYPE svg PUBLIC "-//W3C//DTD SVG 1.1//EN" "http://www.w3.org/Graphics/SVG/1.1/DTD/svg11.dtd" >
<svg xmlns="http://www.w3.org/2000/svg">
<metadata></metadata>
<defs>
<font id="libertadmedium" horiz-adv-x="1405" >
<font-face units-per-em="2048" ascent="1638" descent="-410" />
<missing-glyph horiz-adv-x="451" />
<glyph unicode="&#x31;&#x2f;&#x34;" horiz-adv-x="1334" d="M94 1307q120 15 275 43h46v-462l129 -4v-133h-443v133l151 4v311q-95 -14 -143 -18zM144 68l969 1286l124 -88l-969 -1286zM684 108v112l275 359h148v-350h90v-121h-90v-108h-151v108h-272zM837 229h119v156z" />
<glyph unicode="&#x31;&#x2f;&#x32;" horiz-adv-x="1376" d="M94 1307q120 15 275 43h46v-462l129 -4v-133h-443v133l151 4v311q-95 -14 -143 -18zM144 68l969 1286l124 -88l-969 -1286zM830 543q24 17 80 36.5t118 19.5q114 0 172.5 -57t58.5 -145q0 -155 -210 -261h236v-136h-453v126q142 86 202 141.5t60 113.5q0 38 -23 58 t-62 20q-67 0 -136 -37z" />
<glyph unicode="&#x33;&#x2f;&#x34;" horiz-adv-x="1296" d="M102 769l36 118q69 -25 142 -25q97 0 97 65q0 66 -93 66h-86v105h131q28 24 28 59q0 29 -23.5 45t-64.5 16q-71 0 -125 -26l-36 116q23 14 70.5 28t105.5 14q112 0 172.5 -48.5t60.5 -125.5q0 -79 -71 -120q33 -13 61 -46.5t28 -88.5q0 -93 -66.5 -141.5t-187.5 -48.5 q-54 0 -105 12.5t-74 25.5zM106 68l969 1286l124 -88l-970 -1286zM644 108v112l275 359h148v-350h90v-121h-90v-108h-151v108h-272zM797 229h119v156z" />
<glyph unicode="&#xfb01;" horiz-adv-x="1123" d="M21 859v147l165 11v105q0 162 119.5 260t322.5 98q91 0 171.5 -15.5t122.5 -30.5l-40 -159q-123 33 -249 33q-248 0 -248 -203v-81h581v-1024h-211v859h-363v-1255h-211v1255h-160z" />
<glyph unicode="&#xfb02;" horiz-adv-x="1166" d="M21 859v147l165 11v87q0 172 122 274t333 102q107 0 209 -18t159 -36v-1426h-211v1290q-76 18 -167 18q-120 0 -183 -52.5t-63 -168.5v-63h227v-165h-220v-1255h-211v1255h-160z" />
<glyph unicode="fii" horiz-adv-x="1715" d="M21 859v147l165 11v115q0 156 97 252t260 96q86 0 179 -30l-37 -159q-68 17 -131 17q-169 0 -169 -194v-90h393v98q0 162 119 260t322 98q92 0 172.5 -15.5t121.5 -30.5l-39 -159q-123 33 -249 33q-248 0 -248 -203v-81h581v-1024h-211v859h-363v-1255h-212v1255h-380 v-1255h-211v1255h-160z" />
<glyph unicode="fll" horiz-adv-x="1758" d="M21 859v147l165 11v115q0 156 97 252t260 96q86 0 179 -30l-37 -159q-68 17 -131 17q-169 0 -169 -194v-90h393v80q0 172 122 274t333 102q107 0 209 -18t159 -36v-1426h-211v1290q-76 18 -167 18q-120 0 -183 -52.5t-63 -168.5v-63h227v-165h-220v-859h-212v859h-380 v-1255h-211v1255h-160z" />
<glyph horiz-adv-x="0" />
<glyph horiz-adv-x="682" />
<glyph unicode=" "  horiz-adv-x="451" />
<glyph unicode="&#x09;" horiz-adv-x="451" />
<glyph unicode="&#xa0;" horiz-adv-x="451" />
<glyph unicode="!" horiz-adv-x="507" d="M122 106q0 62 38.5 99.5t99.5 37.5q52 0 88.5 -35.5t36.5 -89.5q0 -63 -38.5 -100.5t-98.5 -37.5q-54 0 -90 35.5t-36 90.5zM135 1330h237l-40 -930h-157z" />
<glyph unicode="&#x22;" horiz-adv-x="758" d="M113 1475h212l-32 -528h-148zM433 1475h212l-32 -528h-148z" />
<glyph unicode="#" horiz-adv-x="1532" d="M145 350l21 159h236l43 309h-232l22 159h232l49 353h181l-50 -353h295l49 353h179l-49 -353h226l-22 -159h-226l-44 -309h227l-22 -159h-227l-48 -350h-181l49 350h-293l-48 -350h-180l49 350h-236zM582 509h294l43 309h-294z" />
<glyph unicode="$" horiz-adv-x="1119" d="M184 152l49 154q133 -69 294 -69q110 0 166 31.5t56 103.5q0 69 -61.5 116t-221.5 115q-144 62 -212.5 142t-68.5 196q0 120 83 203.5t221 110.5l-13 262h183l-13 -253q141 -8 257 -65l-40 -151q-138 51 -260 51q-109 0 -162.5 -40t-54.5 -109q-1 -65 53 -108t181 -96 q189 -81 260.5 -159.5t71.5 -206.5q0 -126 -82 -206t-233 -101l13 -260h-183l12 254q-92 6 -171 30.5t-124 54.5z" />
<glyph unicode="%" horiz-adv-x="1483" d="M83 1034q0 141 83.5 228.5t223.5 87.5q131 0 212.5 -86t81.5 -218q0 -142 -83 -228.5t-224 -86.5q-130 0 -212 86.5t-82 216.5zM195 68l968 1286l125 -88l-970 -1286zM255 1045q0 -76 34 -122.5t100 -46.5q59 0 91.5 44.5t32.5 114.5q0 76 -34 122.5t-101 46.5 q-58 0 -90.5 -45t-32.5 -114zM798 283q0 141 83.5 228.5t223.5 87.5q131 0 212.5 -86t81.5 -218q0 -142 -83 -228.5t-224 -86.5q-130 0 -212 86.5t-82 216.5zM970 294q0 -76 34 -122.5t100 -46.5q59 0 91.5 44.5t32.5 114.5q0 76 -34 122.5t-101 46.5q-58 0 -90.5 -45 t-32.5 -114z" />
<glyph unicode="&#x26;" horiz-adv-x="1375" d="M99 348q0 110 71.5 208t192.5 158q-99 111 -133.5 175.5t-34.5 141.5q0 139 104 229t265 90q142 0 242.5 -79t111.5 -196q3 -39 -2 -73q-10 -69 -55 -131h453v-163h-206q54 -106 54 -222q0 -152 -94 -285l175 -193l-133 -122l-172 190q-146 -96 -350 -96q-219 0 -354 103 t-135 265zM305 367q0 -102 80.5 -162.5t219.5 -60.5q115 0 214 61l-354 398q-75 -46 -117.5 -108t-42.5 -128zM393 1043q0 -58 26 -103.5t103 -131.5l421 -468q17 32 28 76t10 80q-1 113 -51 212h-164l-116 140q42 50 59 88.5t17 91.5q0 70 -49.5 113.5t-125.5 43.5 q-65 0 -111.5 -41.5t-46.5 -100.5z" />
<glyph unicode="'" horiz-adv-x="382" d="M85 1475h212l-32 -528h-148z" />
<glyph unicode="(" horiz-adv-x="679" d="M83 655q0 159 38 308.5t91.5 254t122 195t120 139t95.5 79.5l107 -107q-356 -353 -356 -852q0 -514 356 -867l-109 -107q-44 31 -95 78.5t-119.5 137t-122 191.5t-91 248t-37.5 302z" />
<glyph unicode=")" horiz-adv-x="679" d="M14 -195q356 353 356 852q0 514 -356 867l109 107q44 -31 95.5 -79t120 -136.5t121.5 -191t90.5 -248.5t37.5 -302q0 -116 -20 -226.5t-51.5 -198t-74.5 -168.5t-86 -140.5t-89.5 -110.5t-81 -81t-64.5 -51z" />
<glyph unicode="*" horiz-adv-x="832" d="M58 1147l51 168l239 -93l-20 257h176l-23 -257l240 93l53 -168l-251 -52l178 -178l-131 -113l-155 211l-153 -211l-133 112l179 178z" />
<glyph unicode="+" horiz-adv-x="1269" d="M172 579v171h372v378h181v-378h372v-171h-372v-376h-181v376h-372z" />
<glyph unicode="," horiz-adv-x="444" d="M30 -216q133 90 133 206q0 112 -97 206l188 48q35 -29 67 -91t32 -142q0 -203 -239 -325z" />
<glyph unicode="-" horiz-adv-x="892" d="M157 447v171h578v-171h-578z" />
<glyph unicode="." horiz-adv-x="465" d="M101 106q0 62 38.5 99.5t99.5 37.5q52 0 88.5 -35.5t36.5 -89.5q0 -63 -38.5 -100.5t-98.5 -37.5q-54 0 -90 35.5t-36 90.5z" />
<glyph unicode="/" horiz-adv-x="879" d="M-40 -250l774 1835h204l-774 -1835h-204z" />
<glyph unicode="0" horiz-adv-x="1296" d="M107 657q0 200 61 355t186 246.5t299 91.5t296.5 -88.5t181 -239.5t58.5 -352q0 -199 -61.5 -353t-187 -245.5t-299.5 -91.5q-131 0 -233.5 50t-167.5 141t-99 214t-34 272zM332 672q0 -239 85.5 -378t235.5 -139q141 0 226 132.5t85 367.5q0 240 -85.5 380t-236.5 140 q-141 0 -225.5 -133.5t-84.5 -369.5z" />
<glyph unicode="1" horiz-adv-x="838" d="M42 1302q224 16 460 48h36v-1175l238 -3v-172h-728v172l277 3v981q-126 -14 -266 -19z" />
<glyph unicode="2" horiz-adv-x="1047" d="M97 0v151q354 392 464.5 543t110.5 257q0 105 -57.5 161.5t-163.5 56.5q-133 0 -273 -72l-64 148q51 33 151.5 69t211.5 36q197 0 308.5 -105t111.5 -279q0 -40 -7.5 -79.5t-29.5 -86t-40.5 -82t-63.5 -94t-73 -94t-94.5 -109.5t-103 -114t-122.5 -132h596v-175h-862z " />
<glyph unicode="3" horiz-adv-x="1049" d="M100 63l53 159q135 -61 280 -61q117 0 195.5 52.5t78.5 149.5q0 111 -70.5 169t-205.5 58h-119v169h213q55 23 96 73.5t41 128.5q0 100 -58 154t-177 54q-72 0 -144 -22.5t-109 -43.5l-63 150q24 16 63 34.5t119.5 40.5t159.5 22q205 0 316.5 -102t111.5 -263 q0 -87 -52.5 -164.5t-132.5 -122.5q96 -40 162.5 -121.5t66.5 -200.5q0 -184 -132.5 -290t-358.5 -106q-179 0 -334 83z" />
<glyph unicode="4" horiz-adv-x="1136" d="M62 298v156l597 877h211v-862h194v-171h-194v-298h-213v298h-595zM282 469h375v558z" />
<glyph unicode="5" horiz-adv-x="1051" d="M97 68l50 159q144 -66 288 -66q125 0 198.5 65.5t73.5 173.5q0 123 -79 191.5t-209 68.5q-115 0 -275 -27l23 698h702v-175h-497l-12 -327q45 8 97 8q217 0 344.5 -113.5t126.5 -308.5q-2 -199 -132.5 -317t-359.5 -118q-110 0 -202 29.5t-137 58.5z" />
<glyph unicode="6" horiz-adv-x="1163" d="M107 593q0 165 36 300t108 238.5t190 161t274 57.5q84 0 152.5 -19t99.5 -37l-41 -161q-95 35 -219 35q-89 0 -161 -39.5t-117 -105t-70 -143t-28 -160.5q40 32 110.5 59t152.5 28q206 6 328 -102.5t122 -301.5q0 -191 -123.5 -307t-341.5 -116q-230 0 -351 154.5 t-121 458.5zM334 540q-2 -180 63.5 -282.5t197.5 -102.5q105 0 166 60t61 172q0 126 -68.5 187.5t-176.5 60.5q-78 -1 -143.5 -29.5t-99.5 -65.5z" />
<glyph unicode="7" horiz-adv-x="1037" d="M82 1331h861v-162l-480 -1169h-222l481 1159h-462l-8 -214h-157z" />
<glyph unicode="8" horiz-adv-x="1117" d="M102 318q0 205 273 347q-244 125 -244 322q0 158 123.5 260.5t306.5 102.5q190 0 307 -93.5t117 -252.5q0 -57 -21 -106.5t-60.5 -87t-80 -64.5t-94.5 -54q45 -23 79.5 -43.5t75.5 -53.5t67.5 -68t45 -84t18.5 -103q0 -162 -130.5 -261t-328.5 -99q-128 0 -229 37 t-163 115t-62 186zM317 337q0 -89 72 -137t172 -48q96 0 167.5 50t71.5 131q0 72 -46 122.5t-136 96.5l-78 40q-116 -61 -169.5 -123.5t-53.5 -131.5zM347 1002q0 -72 38 -117.5t132 -95.5l47 -25q103 55 154 109t51 118q0 84 -60 136t-153 52q-89 0 -149 -50.5t-60 -126.5z " />
<glyph unicode="9" horiz-adv-x="1163" d="M119 926q0 192 124.5 308t343.5 116q232 0 350.5 -157t118.5 -460q0 -372 -143 -562.5t-450 -190.5q-86 0 -164 18.5t-118 37.5l42 161q98 -36 248 -36q174 0 262 118t96 331q-39 -32 -108.5 -59t-150.5 -28q-210 -6 -330.5 103.5t-120.5 299.5zM341 942q0 -126 69 -187 t177 -60q78 1 143 29.5t99 65.5q2 183 -64 284t-197 101q-102 0 -164.5 -61t-62.5 -172z" />
<glyph unicode=":" horiz-adv-x="465" d="M101 106q0 62 38.5 99.5t99.5 37.5q52 0 88.5 -35.5t36.5 -89.5q0 -63 -38.5 -100.5t-98.5 -37.5q-54 0 -90 35.5t-36 90.5zM101 907q0 62 38.5 99.5t99.5 37.5q52 0 88.5 -35.5t36.5 -89.5q0 -63 -38.5 -100.5t-98.5 -37.5q-54 0 -90 35.5t-36 90.5z" />
<glyph unicode=";" horiz-adv-x="438" d="M24 -216q133 90 133 206q0 112 -97 206l188 48q35 -29 67 -91t32 -142q0 -203 -239 -325zM73 907q0 62 38.5 99.5t99.5 37.5q53 0 89.5 -35.5t36.5 -89.5q0 -63 -38.5 -100.5t-99.5 -37.5q-53 0 -89.5 35.5t-36.5 90.5z" />
<glyph unicode="&#x3c;" horiz-adv-x="1047" d="M127 665l623 482l110 -130l-459 -352l459 -352l-110 -129z" />
<glyph unicode="=" horiz-adv-x="1224" d="M172 406v171h880v-171h-880zM172 755v170h880v-170h-880z" />
<glyph unicode="&#x3e;" horiz-adv-x="1047" d="M193 313l458 352l-458 351l110 130l623 -481l-623 -482z" />
<glyph unicode="?" horiz-adv-x="807" d="M31 1266q141 84 316 84q170 0 282 -93t112 -238q0 -56 -19 -107.5t-49 -91t-66.5 -76t-73.5 -69.5t-67.5 -64.5t-50 -67t-20.5 -71.5q-2 -30 4 -67l-162 -17q-20 47 -20 104q0 100 95 203q20 22 66 66.5t73.5 73.5t51 72.5t23.5 84.5q0 76 -41.5 120.5t-115.5 55.5 q-36 5 -74 3q-104 -4 -210 -53zM204 106q0 62 38.5 99.5t99.5 37.5q53 0 89.5 -35.5t36.5 -89.5q0 -63 -38.5 -100.5t-99.5 -37.5q-53 0 -89.5 35.5t-36.5 90.5z" />
<glyph unicode="@" horiz-adv-x="2243" d="M152 457q0 160 44 310.5t133 279.5t213 226t293.5 152t364.5 55q201 0 366 -61t277 -170.5t173 -265.5t61 -343q0 -185 -57 -331t-163 -229t-243 -83q-51 0 -96.5 17t-76.5 44t-51.5 52.5t-32.5 50.5q-154 -164 -330 -164q-116 0 -201 66t-126 170.5t-41 230.5 q0 94 22.5 180t68 158.5t109.5 126.5t151.5 84.5t189.5 30.5q180 0 362 -125l-45 -601q-4 -68 30.5 -111t87.5 -44q102 -2 164.5 123.5t62.5 334.5q0 327 -176 509t-509 182q-183 0 -337.5 -69.5t-255.5 -186t-157.5 -266.5t-56.5 -313q0 -337 180.5 -533t485.5 -196 q172 0 316 61l48 -143q-55 -28 -157 -55t-223 -27q-259 0 -455.5 106t-304.5 304.5t-108 462.5zM878 485q0 -139 52 -226t152 -87q68 0 128.5 39t95.5 84l40 541q-66 33 -168 33q-95 0 -164.5 -53.5t-102.5 -139t-33 -191.5z" />
<glyph unicode="A" horiz-adv-x="1263" d="M21 0l512 1330h197l512 -1330h-228l-120 333h-525l-120 -333h-228zM429 502h405q-28 76 -160 459l-44 115z" />
<glyph unicode="B" horiz-adv-x="1189" d="M157 0v1330h423q214 0 333.5 -89.5t119.5 -254.5q0 -89 -46 -163t-126 -117q107 -35 171.5 -122t64.5 -204q0 -176 -133 -278t-363 -102h-444zM369 167h227q128 0 199.5 52.5t71.5 145.5q0 111 -72 174t-199 63h-227v-435zM369 762h321q58 26 89.5 79t31.5 124 q0 93 -64 145.5t-178 52.5h-200v-401z" />
<glyph unicode="C" horiz-adv-x="1130" d="M83 662q0 309 179.5 498.5t483.5 189.5q81 0 163.5 -20t139.5 -50l-49 -161q-130 50 -251 50q-203 0 -321.5 -129.5t-118.5 -361.5q0 -239 120 -378t334 -139q144 0 266 55l54 -159q-63 -34 -151.5 -55.5t-175.5 -21.5q-314 0 -493.5 184t-179.5 498z" />
<glyph unicode="D" horiz-adv-x="1302" d="M157 0v1330h411q309 0 480 -179.5t171 -480.5q0 -307 -175.5 -488.5t-487.5 -181.5h-399zM368 167h200q191 0 308 130t117 359q0 239 -115 373t-322 134h-188v-996z" />
<glyph unicode="E" horiz-adv-x="1049" d="M146 0v1330h781v-175h-569v-399h546v-172h-546v-409h589v-175h-801z" />
<glyph unicode="F" horiz-adv-x="986" d="M157 0v1330h767v-175h-555v-404h506v-172h-506v-579h-212z" />
<glyph unicode="G" horiz-adv-x="1255" d="M83 662q0 202 79.5 357t233.5 243t361 88q85 0 174 -21t158 -58l-57 -159q-145 57 -276 57q-204 0 -325.5 -128.5t-121.5 -364.5q0 -241 122.5 -378t331.5 -137q103 0 182 28v360l-246 3v161h451v-618q-69 -52 -178.5 -83.5t-220.5 -31.5q-158 0 -284.5 49t-210.5 139 t-128.5 215.5t-44.5 278.5z" />
<glyph unicode="H" horiz-adv-x="1349" d="M157 0v1330h212v-573h610v573h213v-1330h-213v582h-610v-582h-212z" />
<glyph unicode="I" horiz-adv-x="526" d="M157 0v1330h212v-1330h-212z" />
<glyph unicode="J" horiz-adv-x="724" d="M34 40l43 155q72 -34 163 -34q146 2 146 149v1020h212v-1001q0 -169 -92 -259t-255 -90q-63 0 -124 17.5t-93 42.5z" />
<glyph unicode="K" horiz-adv-x="1211" d="M157 0v1330h212v-716l518 716h247l-424 -580l474 -750h-251l-370 603l-194 -252v-351h-212z" />
<glyph unicode="L" horiz-adv-x="951" d="M157 0v1330h212v-1155h558v-175h-770z" />
<glyph unicode="M" horiz-adv-x="1654" d="M157 0v1330h302l368 -901l368 901h302v-1330h-208v1075l-372 -913h-180l-373 913v-1075h-207z" />
<glyph unicode="N" horiz-adv-x="1352" d="M157 0v1330h246l584 -1029v1029h208v-1330h-246l-585 1029v-1029h-207z" />
<glyph unicode="O" d="M83 662q0 318 167 503t459 185q288 0 450.5 -182.5t162.5 -499.5q0 -318 -167 -503t-458 -185q-288 0 -451 182t-163 500zM309 676q0 -244 106.5 -383t293.5 -139q179 0 283 133t104 367q0 244 -106.5 383t-293.5 139q-179 0 -283 -133t-104 -367z" />
<glyph unicode="P" horiz-adv-x="1081" d="M157 0v1330h406q223 0 347 -106t124 -301q0 -199 -127.5 -311t-344.5 -112h-193v-500h-212zM369 666h191q119 0 184.5 64.5t65.5 179.5q0 121 -65 185.5t-186 64.5h-190v-494z" />
<glyph unicode="Q" d="M83 662q0 199 76 355t219 244.5t331 88.5q283 0 448 -188t165 -494q0 -204 -80.5 -363t-225.5 -243q88 -152 199.5 -228.5t269.5 -76.5q91 0 179 20l17 -168q-107 -25 -218 -25q-410 0 -625 411q-68 -15 -141 -15q-283 0 -448.5 188t-165.5 494zM309 676 q0 -240 112.5 -381t287.5 -141q79 0 148.5 33t123 94.5t84.5 157.5t31 215q0 240 -112.5 381t-287.5 141q-165 0 -276 -133t-111 -367z" />
<glyph unicode="R" horiz-adv-x="1143" d="M157 0v1330h416q226 0 351.5 -104t125.5 -296q0 -122 -77.5 -223.5t-186.5 -143.5l303 -563h-232l-269 520h-219v-520h-212zM369 685h300q69 23 113.5 87t44.5 145q0 116 -67.5 179.5t-189.5 63.5h-201v-475z" />
<glyph unicode="S" horiz-adv-x="1033" d="M86 76l52 170q62 -32 149.5 -57t177.5 -25q124 0 193 44t69 125q0 72 -46 119t-163 98l-151 65q-134 58 -202.5 143.5t-68.5 218.5q0 111 62.5 197.5t164 131t223.5 44.5q181 0 352 -83l-45 -169q-153 67 -301 67q-110 0 -173.5 -49t-63.5 -126q-1 -74 40 -118.5 t140 -86.5l162 -72q149 -67 220 -154.5t72 -213.5q0 -174 -127 -269.5t-355 -95.5q-114 0 -219 28.5t-162 67.5z" />
<glyph unicode="T" horiz-adv-x="1023" d="M24 1155v175h975v-175h-381v-1155h-213v1155h-381z" />
<glyph unicode="U" horiz-adv-x="1271" d="M129 516v814h213v-801q0 -185 78 -278.5t220 -93.5q136 0 212.5 90t76.5 259v824h213v-810q0 -253 -137 -396.5t-377 -143.5q-235 0 -367 140.5t-132 395.5z" />
<glyph unicode="V" horiz-adv-x="1254" d="M21 1330h233l324 -954l50 -133l373 1087h232l-483 -1330h-246z" />
<glyph unicode="W" horiz-adv-x="1915" d="M41 1330h238l283 -1068l50 157l251 891h189l251 -891l50 -157l282 1068h239l-389 -1330h-246l-282 951l-281 -951h-246z" />
<glyph unicode="X" horiz-adv-x="1290" d="M38 0l479 682l-433 648h242l319 -492l321 492h241l-434 -648l479 -682h-244l-363 527l-360 -527h-247z" />
<glyph unicode="Y" horiz-adv-x="1137" d="M21 1330h230l319 -623l318 623h228l-441 -823v-507h-214v507z" />
<glyph unicode="Z" horiz-adv-x="1077" d="M77 0v152l645 1003h-605v175h863v-152l-656 -1003h696v-175h-943z" />
<glyph unicode="[" horiz-adv-x="650" d="M157 -279v1884h445v-157l-249 -4v-1560h249v-156z" />
<glyph unicode="\" horiz-adv-x="873" d="M-52 1585h204l774 -1835h-204z" />
<glyph unicode="]" horiz-adv-x="650" d="M40 -122l248 4v1560h-248v156l445 7v-1884h-445v157z" />
<glyph unicode="^" horiz-adv-x="1145" d="M111 786l353 694h216l353 -694h-221l-240 491l-240 -491h-221z" />
<glyph unicode="_" horiz-adv-x="1201" d="M157 -48h887v-170h-887v170z" />
<glyph unicode="`" horiz-adv-x="753" d="M111 1340l84 183l446 -227l-50 -113z" />
<glyph unicode="a" horiz-adv-x="984" d="M65 259q0 66 22.5 118.5t62 86t93 58t115.5 32.5q62 10 128 12q14 1 28 0q52 0 104 -7v105q0 99 -46.5 150t-149.5 51q-132 0 -262 -60l-47 152q57 33 148.5 60t187.5 27q180 0 277 -91t97 -256v-473q0 -79 61 -79q29 0 60 11l19 -148q-60 -28 -134 -28q-67 0 -111 33.5 t-64 90.5q-122 -124 -277 -124q-136 0 -224 77.5t-88 201.5zM273 281q0 -63 41 -99.5t110 -36.5q103 0 194 88v197q-42 6 -86 7h-10q-38 0 -80 -6q-48 -7 -84.5 -23t-60.5 -48.5t-24 -78.5z" />
<glyph unicode="b" horiz-adv-x="1145" d="M157 90v1370l211 20v-507q100 52 201 61q36 4 70 4q30 0 58 -3q172 -26 271.5 -164.5t99.5 -350.5q0 -251 -139 -395.5t-387 -144.5q-97 0 -206.5 31.5t-178.5 78.5zM368 188q79 -34 181 -34q147 0 222 91t75 260q0 163 -76 262t-206 99q-106 0 -196 -52v-626z" />
<glyph unicode="c" horiz-adv-x="922" d="M77 502q0 244 139.5 393t371.5 149q151 0 270 -67l-53 -154q-111 42 -209 42q-139 0 -218.5 -92.5t-79.5 -253.5q0 -171 80 -265.5t227 -94.5q112 0 219 46l50 -154q-53 -31 -133.5 -51t-166.5 -20q-225 0 -361 144t-136 378z" />
<glyph unicode="d" horiz-adv-x="1155" d="M77 502q0 238 140 390t358 152q107 0 212 -50v466l211 20v-1480h-163l-24 112q-136 -132 -305 -132q-196 0 -312.5 143t-116.5 379zM298 518q0 -165 70.5 -263t191.5 -98q66 0 128.5 27t98.5 71v567q-87 47 -205 47q-128 0 -206 -98t-78 -253z" />
<glyph unicode="e" horiz-adv-x="1024" d="M77 503q0 245 131.5 393t355.5 148q182 0 282.5 -101.5t100.5 -276.5q0 -114 -31 -199h-620q6 -150 85 -229t221 -79q129 0 260 48l48 -156q-153 -71 -335 -71q-229 0 -363.5 143.5t-134.5 379.5zM297 600h437q8 32 8 80q-2 96 -54 147.5t-144 51.5q-109 0 -173.5 -74 t-73.5 -205z" />
<glyph unicode="f" horiz-adv-x="658" d="M21 859v147l165 11v115q0 157 97.5 252.5t262.5 95.5q96 0 191 -34l-37 -159q-70 21 -140 21q-175 0 -175 -194v-90h256v-165h-249v-859h-211v859h-160z" />
<glyph unicode="g" horiz-adv-x="1041" d="M60 -197q0 75 52 136t129 99q-70 48 -70 124q0 47 33.5 95t90.5 87q-105 38 -162 123t-57 207q0 170 108 270t287 100q140 0 242 -73q64 46 141 63q43 9 81 9q31 0 58 -6v-166q-31 4 -61 4q-64 0 -122 -19q43 -78 43 -170q0 -170 -107.5 -269.5t-286.5 -99.5q-30 0 -42 2 q-64 -52 -64 -97q-1 -30 19.5 -45.5t63.5 -15.5h206q151 0 244 -75.5t93 -207.5q0 -140 -140.5 -227t-358.5 -87q-204 0 -312 61.5t-108 177.5zM255 -149q0 -63 66.5 -96.5t188.5 -33.5q121 0 193.5 38.5t72.5 105.5q0 121 -205 121h-214q-41 -21 -71.5 -57.5t-30.5 -77.5z M275 687q0 -108 51 -167t140 -59q87 0 138 58.5t51 154.5q0 107 -51 166.5t-141 59.5q-86 0 -137 -58.5t-51 -154.5z" />
<glyph unicode="h" horiz-adv-x="1154" d="M157 0v1460l211 20v-558q151 122 312 122q164 0 248 -93t84 -277v-674h-212v642q0 221 -184 221q-57 0 -128.5 -29.5t-119.5 -73.5v-760h-211z" />
<glyph unicode="i" horiz-adv-x="525" d="M131 1344q0 62 38 99t99 37q53 0 89.5 -35.5t36.5 -89.5q0 -63 -38.5 -100.5t-98.5 -37.5q-54 0 -90 36t-36 91zM157 0v1024h211v-1024h-211z" />
<glyph unicode="j" horiz-adv-x="531" d="M-104 -397l23 164q39 -11 84 -11q84 0 122 45t38 147v1076h211v-1059q0 -196 -86.5 -288.5t-261.5 -92.5q-77 0 -130 19zM137 1344q0 62 38 99t99 37q53 0 89.5 -35.5t36.5 -89.5q0 -63 -38.5 -100.5t-98.5 -37.5q-54 0 -90 36t-36 91z" />
<glyph unicode="k" horiz-adv-x="1069" d="M157 0v1460l211 20v-964l389 508h237l-326 -426l359 -598h-239l-276 466l-144 -183v-283h-211z" />
<glyph unicode="l" horiz-adv-x="525" d="M157 0v1460l211 20v-1480h-211z" />
<glyph unicode="m" horiz-adv-x="1763" d="M157 0v1024h170l22 -118q69 62 153 100t170 38q197 0 275 -146q169 146 351 146q159 0 241 -93t82 -277v-674h-211v642q0 221 -176 221q-50 0 -114.5 -26t-125.5 -75q1 -31 1 -92v-670h-212v642q0 221 -175 221q-56 0 -124.5 -29.5t-115.5 -73.5v-760h-211z" />
<glyph unicode="n" horiz-adv-x="1154" d="M157 0v1024h170l22 -118q160 138 331 138q164 0 248 -93t84 -277v-674h-212v642q0 221 -184 221q-57 0 -128.5 -29.5t-119.5 -73.5v-760h-211z" />
<glyph unicode="o" horiz-adv-x="1131" d="M77 504q0 243 135 391.5t360 148.5q219 0 350.5 -144.5t131.5 -378.5q0 -244 -134.5 -392.5t-360.5 -148.5q-219 0 -350.5 144.5t-131.5 379.5zM298 520q0 -175 71.5 -275.5t201.5 -100.5q123 0 192.5 98t69.5 263q0 175 -71 274.5t-202 99.5q-123 0 -192.5 -97.5 t-69.5 -261.5z" />
<glyph unicode="p" horiz-adv-x="1155" d="M157 -396v1420h163l24 -112q143 132 306 132q196 0 312 -143.5t116 -380.5t-139.5 -388.5t-357.5 -151.5q-108 0 -213 50v-426h-211zM368 201q91 -47 205 -47q129 0 206.5 98.5t77.5 252.5q0 165 -70 263t-192 98q-66 0 -128.5 -26.5t-98.5 -70.5v-568z" />
<glyph unicode="q" horiz-adv-x="1145" d="M77 502q0 252 138.5 397t386.5 145q96 0 206 -28t180 -67v-1345h-212v446q-125 -70 -247 -70q-206 0 -329 143.5t-123 378.5zM298 518q0 -163 76.5 -262t205.5 -99q106 0 196 53v625q-77 34 -181 34q-147 0 -222 -91t-75 -260z" />
<glyph unicode="r" horiz-adv-x="721" d="M157 0v1024h164l30 -139q49 59 145 108t190 50v-202q-87 -1 -177 -31.5t-141 -73.5v-736h-211z" />
<glyph unicode="s" horiz-adv-x="842" d="M73 56l50 163q135 -65 274 -65q181 0 181 109q0 52 -43.5 86t-140.5 71l-80 31q-232 87 -232 289q0 140 103.5 222t260.5 82q171 0 299 -64l-41 -164q-145 54 -252 54q-74 0 -121.5 -29.5t-47.5 -86.5q0 -49 37 -83t135 -72l84 -33q121 -47 180.5 -117.5t59.5 -178.5 q0 -136 -95 -213t-276 -77q-196 0 -335 76z" />
<glyph unicode="t" horiz-adv-x="757" d="M21 859v147l173 11l12 234l180 19v-246h295v-165h-289v-533q0 -91 36.5 -131t118.5 -40q73 0 135 22l33 -161q-102 -36 -213 -36q-162 0 -241.5 79t-79.5 239v561h-160z" />
<glyph unicode="u" horiz-adv-x="1134" d="M138 350v674h212v-642q0 -222 176 -222q55 0 123.5 30t115.5 74v760h212v-1024h-171l-21 118q-68 -63 -152 -100.5t-171 -37.5q-160 0 -242 93t-82 277z" />
<glyph unicode="v" horiz-adv-x="1045" d="M18 1024h228l275 -784l39 96l238 688h229l-392 -1024h-226z" />
<glyph unicode="w" horiz-adv-x="1601" d="M32 1024h223l219 -793l40 116l196 667h182l195 -667l40 -116l219 793h223l-314 -1024h-243l-212 688l-213 -688h-243z" />
<glyph unicode="x" horiz-adv-x="1016" d="M12 0l374 525l-339 499h241l220 -352l220 352h240l-338 -499l374 -525h-241l-255 379l-255 -379h-241z" />
<glyph unicode="y" horiz-adv-x="1050" d="M15 1024h230l263 -730l36 -87l255 817h227l-352 -1013q-82 -236 -184 -331.5t-272 -95.5q-105 0 -197 43l42 157q70 -28 149 -28q82 0 134.5 50.5t90.5 169.5l-52 119q-69 171 -194.5 488t-175.5 441z" />
<glyph unicode="z" horiz-adv-x="964" d="M91 0v138l506 721h-467v165h714v-138l-507 -722h536v-164h-782z" />
<glyph unicode="{" horiz-adv-x="664" d="M101 587v153q32 2 48 4q84 4 132 48.5t48 102.5q0 41 -20 87t-48.5 88t-56.5 85t-48 91.5t-20 93.5q0 134 89 212.5t231 78.5q91 0 162 -31l-30 -148q-61 19 -132 19q-58 0 -95 -35.5t-37 -81.5q0 -47 31 -105t68 -106t68 -112.5t31 -121.5q0 -88 -53 -154t-136 -92 q82 -24 135.5 -87t53.5 -140q0 -61 -31 -129.5t-68 -118t-68 -105.5t-31 -96q0 -59 38 -94t105 -35q57 0 121 18l30 -148q-69 -30 -173 -30q-137 0 -223 74t-86 196q0 50 20 102.5t48 96.5t56.5 85.5t48.5 84.5t20 79q0 82 -59 126t-169 45z" />
<glyph unicode="|" horiz-adv-x="510" d="M157 -499v2022h196v-2022h-196z" />
<glyph unicode="}" horiz-adv-x="664" d="M38 -272l30 148q64 -18 121 -18q67 0 105 35.5t38 93.5q0 40 -31 96t-68 105.5t-68 118t-31 129.5q0 77 53 139.5t136 87.5q-84 26 -136.5 91.5t-52.5 154.5q0 47 20.5 97.5t49.5 93.5t58 85t49.5 86t20.5 83q0 46 -37 81.5t-94 35.5q-72 0 -133 -19l-30 148 q73 31 162 31q143 0 231.5 -78.5t88.5 -212.5q0 -45 -20 -93.5t-48 -91.5t-56.5 -85t-48.5 -88t-20 -87q0 -72 60.5 -113t167.5 -42v-153q-111 -1 -169.5 -46t-58.5 -125q0 -36 20 -79t48.5 -84.5t56.5 -85.5t48 -96.5t20 -102.5q0 -122 -86 -196t-223 -74q-102 0 -173 30z " />
<glyph unicode="~" horiz-adv-x="1077" d="M138 662q111 122 260 122q59 0 154 -34.5t142 -34.5q34 0 72.5 14t56 24.5t48.5 30.5l68 -116q-108 -122 -260 -122q-59 0 -153.5 34.5t-142.5 34.5q-34 0 -73.5 -14.5t-54.5 -23.5t-49 -31z" />
<glyph unicode="&#xa1;" horiz-adv-x="507" d="M122 907q0 62 38.5 99.5t99.5 37.5q52 0 88.5 -35.5t36.5 -89.5q0 -63 -38.5 -100.5t-98.5 -37.5q-54 0 -90 35.5t-36 90.5zM135 -306l41 930h157l40 -930h-238z" />
<glyph unicode="&#xa2;" horiz-adv-x="1221" d="M188 658q0 212 121 356t330 173l-13 258h183l-13 -254q117 -11 229 -64l-55 -149q-130 45 -225 45q-150 0 -243.5 -91.5t-93.5 -261.5q0 -176 97.5 -271.5t266.5 -95.5q96 0 221 44l53 -148q-102 -54 -247 -66l12 -249h-183l12 253q-215 29 -333.5 169t-118.5 352z" />
<glyph unicode="&#xa3;" horiz-adv-x="1243" d="M177 613v132h135q-17 123 -17 200q0 184 112.5 294.5t303.5 110.5q150 0 286 -75l-54 -155q-5 2 -27.5 9.5t-34 11.5t-36 11t-43.5 10.5t-44.5 6.5t-49.5 3q-92 0 -145 -57t-53 -156q0 -85 20 -214h350v-132h-332q9 -79 9 -134q0 -150 -47 -297q51 -3 144.5 -17.5 t142.5 -14.5q67 -1 102 32.5t61 101.5l138 -46q-18 -123 -98.5 -190.5t-204.5 -67.5q-60 0 -175 18.5t-174 20.5q-6 0 -19 0.5t-20 0.5q-32 -33 -64 -50l-125 28l-36 132q52 29 118 43q42 135 42 292q0 58 -11 148h-154z" />
<glyph unicode="&#xa4;" horiz-adv-x="1519" d="M224 218l170 207q-75 104 -75 245q0 138 74 244l-169 207l106 88l197 -178q103 57 232 57t233 -57l197 178l106 -88l-170 -208q75 -106 75 -243q0 -138 -75 -244l170 -208l-106 -87l-197 177q-100 -57 -233 -57t-233 57l-196 -177zM517 670q0 -113 68.5 -185t173.5 -72 q106 0 174 72t68 185q0 112 -68 184t-174 72q-105 0 -173.5 -72t-68.5 -184z" />
<glyph unicode="&#xa5;" horiz-adv-x="1327" d="M118 1330h224l321 -566l324 566h222l-276 -466h172v-132h-883v132h169zM244 468v132h840v-132h-314v-468h-214v468h-312z" />
<glyph unicode="&#xa6;" horiz-adv-x="510" d="M157 295h196v-794h-196v794zM157 729v794h196v-794h-196z" />
<glyph unicode="&#xa7;" horiz-adv-x="1022" d="M84 -335l52 157q149 -54 260 -58q33 61 38 133t-14.5 153t-63.5 185l-114 265q-48 112 -65.5 154.5t-45 121.5t-36.5 138.5t-9 125.5q0 195 140 317.5t368 122.5q103 0 194 -24.5t150 -56.5l-52 -157q-151 54 -261 58q-33 -61 -38 -133t15 -153t64 -185l114 -265 q61 -143 85 -203.5t47.5 -155.5t23.5 -181q0 -195 -140 -317.5t-368 -122.5q-104 0 -195.5 25t-148.5 56zM282 1050q0 -72 22.5 -160.5t48 -155t78.5 -190.5l124 -290q126 -294 20 -469q81 28 122.5 87.5t41.5 141.5q0 72 -22.5 161t-47.5 154t-78 191l-115 265 q-30 73 -48 136q-71 219 18 358q-81 -28 -122.5 -87.5t-41.5 -141.5z" />
<glyph unicode="&#xa8;" horiz-adv-x="907" d="M118 1344q0 62 38.5 99t99.5 37q53 0 89.5 -35.5t36.5 -89.5q0 -63 -38.5 -100.5t-99.5 -37.5q-53 0 -89.5 36t-36.5 91zM525 1344q0 62 38.5 99t99.5 37q53 0 89.5 -35.5t36.5 -89.5q0 -63 -38.5 -100.5t-99.5 -37.5q-53 0 -89.5 36t-36.5 91z" />
<glyph unicode="&#xa9;" horiz-adv-x="1556" d="M104 660q0 141 53.5 269t143.5 220t215.5 146.5t263.5 54.5q135 0 259 -54.5t214.5 -145.5t144 -217.5t53.5 -264.5q0 -188 -91 -346.5t-247.5 -250t-342.5 -91.5q-134 0 -257 54t-212.5 145t-143 217t-53.5 264zM244 668q0 -113 42 -215.5t113.5 -176.5t171 -117.5 t210.5 -43.5q144 0 266 73.5t193.5 199t71.5 272.5q0 113 -42.5 216t-114.5 177t-172.5 118t-212.5 44q-142 0 -263.5 -74t-192 -200t-70.5 -273zM413 658q0 178 103 287t273 109q115 0 202 -52l-41 -125q-80 31 -156 31q-96 0 -149.5 -63t-53.5 -174q0 -120 53.5 -184.5 t155.5 -64.5q88 0 162 33l42 -125q-93 -55 -226 -55q-165 0 -265 105.5t-100 277.5z" />
<glyph unicode="&#xaa;" horiz-adv-x="627" d="M48 898q-2 84 60.5 131.5t163.5 52.5q38 3 79 -2v32q0 97 -92 97q-72 0 -159 -38l-34 125q31 18 90 36t125 18q115 0 174 -53t59 -149v-261q0 -33 32 -33q16 0 34 6l16 -106q-54 -23 -104 -23q-85 0 -114 60q-21 -18 -36.5 -28.5t-45 -21t-61.5 -10.5q-83 0 -133.5 44 t-53.5 123zM205 911q1 -28 18.5 -42.5t45.5 -14.5q43 0 82 33v92q-23 7 -64 3q-85 -9 -82 -71z" />
<glyph unicode="&#xab;" horiz-adv-x="1175" d="M104 512q208 213 391 466l147 -108q-100 -152 -308 -358q211 -209 308 -358l-147 -107q-189 259 -391 465zM568 512q162 166 350 424l147 -107q-118 -173 -267 -317q149 -144 267 -317l-147 -108q-184 255 -350 425z" />
<glyph unicode="&#xac;" horiz-adv-x="1231" d="M172 579v171h887v-470h-180v299h-707z" />
<glyph unicode="&#xad;" horiz-adv-x="886" d="M154 447v171h578v-171h-578z" />
<glyph unicode="&#xae;" horiz-adv-x="1556" d="M104 660q0 141 53.5 269t143.5 220t215.5 146.5t263.5 54.5q135 0 259 -54.5t214.5 -145.5t144 -217.5t53.5 -264.5q0 -188 -91 -346.5t-247.5 -250t-342.5 -91.5q-134 0 -257 54t-212.5 145t-143 217t-53.5 264zM244 668q0 -113 42 -215.5t113.5 -176.5t171 -117.5 t210.5 -43.5q144 0 266 73.5t193.5 199t71.5 272.5q0 113 -42.5 216t-114.5 177t-172.5 118t-212.5 44q-142 0 -263.5 -74t-192 -200t-70.5 -273zM517 292v739h261q128 0 201 -60t73 -168q0 -63 -38 -119.5t-98 -84.5l158 -307h-176l-130 274h-93v-274h-158zM675 680h62 q39 0 73 3q33 13 54 43.5t21 67.5q0 55 -29.5 84.5t-85.5 31.5q-16 1 -48 1h-47v-231z" />
<glyph unicode="&#xaf;" horiz-adv-x="801" d="M111 1272v157h578v-157h-578z" />
<glyph unicode="&#xb0;" horiz-adv-x="649" d="M51 1078q0 115 77.5 193.5t202.5 78.5q116 0 191.5 -76.5t75.5 -183.5q0 -115 -77.5 -193t-202.5 -78q-115 0 -191 76t-76 183zM212 1089q0 -55 31.5 -91t85.5 -36q48 0 77.5 34t29.5 83q0 55 -30.5 91.5t-86.5 36.5q-48 0 -77.5 -35t-29.5 -83z" />
<glyph unicode="&#xb1;" horiz-adv-x="1182" d="M175 746v164h319v322h175v-322h319v-164h-319v-326h-175v326h-319zM188 48v164h788v-164h-788z" />
<glyph unicode="&#xb2;" horiz-adv-x="558" d="M48 1294q25 17 80 36.5t117 19.5q115 0 173.5 -57t58.5 -145q0 -154 -210 -261h236v-136h-453v126q141 86 201 141.5t60 113.5q0 38 -23 58t-62 20q-70 0 -135 -37z" />
<glyph unicode="&#xb3;" horiz-adv-x="529" d="M34 769l36 118q69 -25 142 -25q97 0 97 65q0 66 -93 66h-86v105h131q29 25 29 59q0 28 -24 44.5t-65 16.5q-71 0 -125 -26l-36 116q71 42 176 42q112 0 172.5 -48.5t60.5 -125.5q0 -79 -71 -120q33 -13 61 -46.5t28 -88.5q0 -93 -66.5 -141.5t-187.5 -48.5q-54 0 -104 12 t-75 26z" />
<glyph unicode="&#xb4;" horiz-adv-x="753" d="M111 1296l463 234l82 -184l-494 -163z" />
<glyph unicode="&#xb6;" horiz-adv-x="1167" d="M84 913q0 197 131.5 307t348.5 110h501v-175h-156v-1176q0 -395 -357 -395q-84 0 -144 20l25 168q53 -10 100 -10q94 1 129 55.5t35 183.5v1154h-140v-664q-216 0 -344.5 111.5t-128.5 310.5z" />
<glyph unicode="&#xb7;" horiz-adv-x="495" d="M116 507q0 62 38.5 99t99.5 37q52 0 88.5 -35.5t36.5 -89.5q0 -63 -38.5 -100.5t-98.5 -37.5q-54 0 -90 36t-36 91z" />
<glyph unicode="&#xb8;" horiz-adv-x="542" d="M98 -462l18 107q32 -10 80 -10q43 0 65.5 20.5t22.5 53.5q0 34 -22.5 53t-63.5 19h-62l10 114h97q90 0 144.5 -44.5t54.5 -129.5q0 -100 -65 -150.5t-178 -50.5q-63 0 -101 18z" />
<glyph unicode="&#xb9;" horiz-adv-x="535" d="M46 1307q120 15 275 43h46v-462l129 -4v-133h-443v133l151 4v311q-95 -14 -143 -18z" />
<glyph unicode="&#xba;" horiz-adv-x="682" d="M51 1034q0 138 80 227t216 89q128 0 206 -88t78 -216q0 -138 -79.5 -226.5t-217.5 -88.5q-127 0 -205 87.5t-78 215.5zM222 1045q0 -76 30.5 -122.5t93.5 -46.5q56 0 85 45t29 114q0 76 -30.5 122.5t-94.5 46.5q-55 0 -84 -45.5t-29 -113.5z" />
<glyph unicode="&#xbb;" horiz-adv-x="1175" d="M102 195q116 173 267 318q-149 144 -267 317l147 107q186 -256 350 -424q-164 -168 -350 -425zM525 155q100 152 308 358q-211 209 -308 358l147 107q189 -259 391 -465q-208 -213 -391 -466z" />
<glyph unicode="&#xbf;" horiz-adv-x="807" d="M66 5q0 76 35.5 144t86 117.5t101 94.5t87 94t37.5 97q1 27 -5 67l163 17q20 -53 20 -104q0 -100 -95 -203q-21 -23 -67 -67.5t-73.5 -73t-51 -72t-23.5 -84.5q0 -76 41.5 -120.5t115.5 -55.5q36 -5 74 -3q108 4 210 53l54 -148q-138 -84 -316 -84q-170 0 -282 93 t-112 238zM339 907q0 62 38.5 99.5t99.5 37.5q53 0 89.5 -35.5t36.5 -89.5q0 -63 -38.5 -100.5t-99.5 -37.5q-53 0 -89.5 35.5t-36.5 90.5z" />
<glyph unicode="&#xc0;" horiz-adv-x="1263" d="M21 0l512 1330h197l512 -1330h-228l-120 333h-525l-120 -333h-228zM347 1640l83 183l447 -227l-50 -113zM429 502h405q-28 76 -160 459l-44 115z" />
<glyph unicode="&#xc1;" horiz-adv-x="1263" d="M21 0l512 1330h197l512 -1330h-228l-120 333h-525l-120 -333h-228zM384 1596l462 234l82 -184l-493 -163zM429 502h405q-28 76 -160 459l-44 115z" />
<glyph unicode="&#xc2;" horiz-adv-x="1263" d="M21 0l512 1330h197l512 -1330h-228l-120 333h-525l-120 -333h-228zM314 1592q148 97 317 223q186 -137 318 -223l-102 -135q-103 73 -216 173q-102 -93 -215 -173zM429 502h405q-28 76 -160 459l-44 115z" />
<glyph unicode="&#xc3;" horiz-adv-x="1263" d="M21 0l512 1330h197l512 -1330h-228l-120 333h-525l-120 -333h-228zM301 1613q30 66 88.5 112.5t135.5 46.5q46 0 123 -34.5t103 -34.5q11 0 20.5 2t19.5 7.5t16 9t15.5 13.5t12.5 12.5t13.5 15t11.5 13.5l105 -88q-34 -72 -91 -114.5t-136 -42.5q-41 0 -114.5 34.5 t-107.5 34.5q-52 0 -109 -74zM429 502h405q-28 76 -160 459l-44 115z" />
<glyph unicode="&#xc4;" horiz-adv-x="1263" d="M21 0l512 1330h197l512 -1330h-228l-122 337h-521l-122 -337h-228zM290 1644q0 62 38 99t99 37q53 0 89.5 -35.5t36.5 -89.5q0 -63 -38.5 -100.5t-99.5 -37.5q-53 0 -89 36t-36 91zM431 506h401q-30 83 -83 237.5t-75 217.5l-44 115zM711 1644q0 62 38 99t99 37 q53 0 89.5 -35.5t36.5 -89.5q0 -63 -38.5 -100.5t-99.5 -37.5q-53 0 -89 36t-36 91z" />
<glyph unicode="&#xc5;" horiz-adv-x="1263" d="M21 0l512 1330h197l512 -1330h-228l-120 333h-525l-120 -333h-228zM410 1644q0 99 64 160.5t164 61.5q91 0 153.5 -59t62.5 -149q0 -100 -64 -161.5t-165 -61.5q-90 0 -152.5 59.5t-62.5 149.5zM429 502h405q-28 76 -160 459l-44 115zM544 1650q0 -37 25.5 -62.5 t61.5 -25.5q38 0 63.5 26t25.5 64q0 37 -26 61.5t-62 24.5q-38 0 -63 -25t-25 -63z" />
<glyph unicode="&#xc6;" horiz-adv-x="1839" d="M18 0l964 1331h746v-175h-527v-400h504v-172h-504v-409h547v-175h-757v334h-499l-240 -334h-234zM613 503h378v532z" />
<glyph unicode="&#xc7;" horiz-adv-x="1141" d="M83 662q0 309 179.5 498.5t483.5 189.5q81 0 163.5 -20t139.5 -50l-49 -161q-130 50 -251 50q-203 0 -321.5 -129.5t-118.5 -361.5q0 -239 120 -378t334 -139q144 0 266 55l54 -159q-63 -34 -151.5 -55.5t-175.5 -21.5q-314 0 -493.5 184t-179.5 498zM512 -462l18 107 q32 -10 80 -10q43 0 65.5 20.5t22.5 53.5q0 34 -22.5 53t-63.5 19h-62l10 114h97q90 0 144.5 -44.5t54.5 -129.5q0 -100 -65 -150.5t-178 -50.5q-63 0 -101 18z" />
<glyph unicode="&#xc8;" horiz-adv-x="1049" d="M157 0v1330h781v-175h-569v-399h546v-172h-546v-409h589v-175h-801zM273 1640l83 183l447 -227l-50 -113z" />
<glyph unicode="&#xc9;" horiz-adv-x="1049" d="M157 0v1330h781v-175h-569v-399h546v-172h-546v-409h589v-175h-801zM313 1596l462 234l82 -184l-493 -163z" />
<glyph unicode="&#xca;" horiz-adv-x="1049" d="M157 0v1330h781v-175h-569v-399h546v-172h-546v-409h589v-175h-801zM240 1592q148 97 317 223q186 -137 318 -223l-102 -135q-103 73 -216 173q-102 -93 -215 -173z" />
<glyph unicode="&#xcb;" horiz-adv-x="1049" d="M157 0v1330h781v-175h-569v-399h546v-172h-546v-409h589v-175h-801zM223 1644q0 62 38 99t99 37q53 0 89.5 -35.5t36.5 -89.5q0 -63 -38.5 -100.5t-99.5 -37.5q-53 0 -89 36t-36 91zM630 1644q0 62 38 99t99 37q53 0 89.5 -35.5t36.5 -89.5q0 -63 -38.5 -100.5 t-99.5 -37.5q-53 0 -89 36t-36 91z" />
<glyph unicode="&#xcc;" horiz-adv-x="526" d="M-25 1640l83 183l447 -227l-50 -113zM157 0v1330h212v-1330h-212z" />
<glyph unicode="&#xcd;" horiz-adv-x="526" d="M18 1596l462 234l83 -184l-494 -163zM157 0v1330h212v-1330h-212z" />
<glyph unicode="&#xce;" horiz-adv-x="526" d="M-55 1592q145 94 318 223q184 -137 318 -223l-103 -135q-114 82 -215 173q-107 -96 -216 -173zM157 0v1330h212v-1330h-212z" />
<glyph unicode="&#xcf;" horiz-adv-x="526" d="M-59 1644q0 62 38.5 99t99.5 37q52 0 88.5 -35.5t36.5 -89.5q0 -63 -38.5 -100.5t-98.5 -37.5q-54 0 -90 36t-36 91zM157 0v1330h212v-1330h-212zM322 1644q0 62 38.5 99t99.5 37q52 0 88.5 -35.5t36.5 -89.5q0 -63 -38.5 -100.5t-98.5 -37.5q-54 0 -90 36t-36 91z" />
<glyph unicode="&#xd0;" horiz-adv-x="1309" d="M15 597v136h156v597h410q206 0 354.5 -83t223 -231t74.5 -346q0 -307 -175.5 -488.5t-487.5 -181.5h-399v597h-156zM382 167h200q190 0 307.5 130t117.5 359q0 239 -115 373t-322 134h-188v-430h348v-136h-348v-430z" />
<glyph unicode="&#xd1;" horiz-adv-x="1352" d="M157 0v1330h246l584 -1029v1029h208v-1330h-246l-585 1029v-1029h-207zM343 1613q29 66 87.5 112.5t135.5 46.5q46 0 123.5 -34.5t103.5 -34.5q11 0 20.5 2t19.5 7.5t16 9t15.5 13.5t12.5 12.5t13.5 15t11.5 13.5l104 -88q-34 -72 -91 -114.5t-136 -42.5 q-41 0 -114.5 34.5t-107.5 34.5q-53 0 -108 -74z" />
<glyph unicode="&#xd2;" d="M83 662q0 318 167 503t459 185q288 0 450.5 -182.5t162.5 -499.5q0 -318 -167 -503t-458 -185q-288 0 -451 182t-163 500zM309 676q0 -244 106.5 -383t293.5 -139q179 0 283 133t104 367q0 244 -106.5 383t-293.5 139q-179 0 -283 -133t-104 -367zM421 1640l83 183 l447 -227l-50 -113z" />
<glyph unicode="&#xd3;" d="M83 662q0 318 167 503t459 185q288 0 450.5 -182.5t162.5 -499.5q0 -318 -167 -503t-458 -185q-288 0 -451 182t-163 500zM309 676q0 -244 106.5 -383t293.5 -139q179 0 283 133t104 367q0 244 -106.5 383t-293.5 139q-179 0 -283 -133t-104 -367zM438 1596l462 234 l83 -184l-494 -163z" />
<glyph unicode="&#xd4;" d="M83 662q0 318 167 503t459 185q288 0 450.5 -182.5t162.5 -499.5q0 -318 -167 -503t-458 -185q-288 0 -451 182t-163 500zM309 676q0 -244 106.5 -383t293.5 -139q179 0 283 133t104 367q0 244 -106.5 383t-293.5 139q-179 0 -283 -133t-104 -367zM385 1592 q145 94 318 223q180 -134 317 -223l-102 -135q-114 82 -215 173q-107 -96 -216 -173z" />
<glyph unicode="&#xd5;" d="M83 662q0 318 167 503t459 185q288 0 450.5 -182.5t162.5 -499.5q0 -318 -167 -503t-458 -185q-288 0 -451 182t-163 500zM309 676q0 -244 106.5 -383t293.5 -139q179 0 283 133t104 367q0 244 -106.5 383t-293.5 139q-179 0 -283 -133t-104 -367zM372 1613 q30 66 88.5 112.5t135.5 46.5q46 0 123 -34.5t103 -34.5q11 0 20.5 2t19.5 7.5t16 9t15.5 13.5t12.5 12.5t13.5 15t11.5 13.5l105 -88q-34 -72 -91 -114.5t-136 -42.5q-41 0 -114.5 34.5t-107.5 34.5q-52 0 -109 -74z" />
<glyph unicode="&#xd6;" d="M83 662q0 318 167 503t459 185q288 0 450.5 -182.5t162.5 -499.5q0 -318 -167 -503t-458 -185q-288 0 -451 182t-163 500zM309 676q0 -244 106.5 -383t293.5 -139q179 0 283 133t104 367q0 244 -106.5 383t-293.5 139q-179 0 -283 -133t-104 -367zM368 1644q0 62 38 99 t99 37q53 0 89.5 -35.5t36.5 -89.5q0 -63 -38.5 -100.5t-98.5 -37.5q-54 0 -90 36t-36 91zM775 1644q0 62 38 99t99 37q53 0 89.5 -35.5t36.5 -89.5q0 -63 -38.5 -100.5t-98.5 -37.5q-54 0 -90 36t-36 91z" />
<glyph unicode="&#xd7;" horiz-adv-x="1178" d="M167 366l300 300l-298 299l122 121l298 -299l300 299l121 -121l-299 -299l300 -300l-121 -121l-300 299l-300 -300z" />
<glyph unicode="&#xd8;" d="M83 662q0 318 167 503t459 185q173 0 307 -71l139 215l120 -72l-145 -225q192 -183 192 -529q0 -318 -167 -503t-458 -185q-176 0 -308 70l-138 -215l-120 73l145 224q-193 181 -193 530zM309 676q0 -218 87 -355l513 792q-91 63 -213 63q-179 0 -283 -133t-104 -367z M496 216q91 -62 213 -62q179 0 283 133t104 367q0 216 -88 354z" />
<glyph unicode="&#xd9;" horiz-adv-x="1258" d="M119 516v814h213v-801q0 -185 78 -278.5t220 -93.5q136 0 212.5 90t76.5 259v824h213v-810q0 -253 -137 -396.5t-377 -143.5q-235 0 -367 140.5t-132 395.5zM328 1640l83 183l447 -227l-50 -113z" />
<glyph unicode="&#xda;" horiz-adv-x="1258" d="M119 516v814h213v-801q0 -185 78 -278.5t220 -93.5q136 0 212.5 90t76.5 259v824h213v-810q0 -253 -137 -396.5t-377 -143.5q-235 0 -367 140.5t-132 395.5zM376 1596l462 234l83 -184l-494 -163z" />
<glyph unicode="&#xdb;" horiz-adv-x="1258" d="M119 516v814h213v-801q0 -185 78 -278.5t220 -93.5q136 0 212.5 90t76.5 259v824h213v-810q0 -253 -137 -396.5t-377 -143.5q-235 0 -367 140.5t-132 395.5zM309 1592q145 94 318 223q184 -137 318 -223l-103 -135q-114 82 -215 173q-107 -96 -216 -173z" />
<glyph unicode="&#xdc;" horiz-adv-x="1258" d="M119 516v814h213v-801q0 -185 78 -278.5t220 -93.5q136 0 212.5 90t76.5 259v824h213v-810q0 -253 -137 -396.5t-377 -143.5q-235 0 -367 140.5t-132 395.5zM292 1644q0 62 38.5 99t99.5 37q52 0 88.5 -35.5t36.5 -89.5q0 -63 -38.5 -100.5t-98.5 -37.5q-54 0 -90 36 t-36 91zM699 1644q0 62 38.5 99t99.5 37q52 0 88.5 -35.5t36.5 -89.5q0 -63 -38.5 -100.5t-98.5 -37.5q-54 0 -90 36t-36 91z" />
<glyph unicode="&#xdd;" horiz-adv-x="1137" d="M21 1330h230l319 -623l318 623h228l-441 -823v-507h-214v507zM321 1596l462 234l82 -184l-494 -163z" />
<glyph unicode="&#xde;" horiz-adv-x="1086" d="M157 0v1331h212v-268h194q223 0 347 -101.5t124 -288.5q0 -196 -127.5 -304.5t-344.5 -108.5h-193v-260h-212zM369 428h191q119 0 184.5 61t65.5 170q0 115 -65 176.5t-186 61.5h-190v-469z" />
<glyph unicode="&#xdf;" horiz-adv-x="1165" d="M150 0v1065q0 179 129 297t334 118q94 0 171.5 -28t126 -74t74.5 -102t26 -116q0 -91 -40.5 -156t-115.5 -130q-68 -57 -93.5 -88t-25.5 -64q0 -34 27 -61t109 -83q64 -43 99.5 -71t72.5 -67.5t53 -82.5t16 -96q0 -134 -94.5 -207.5t-268.5 -73.5q-80 0 -152.5 17.5 t-108.5 39.5l42 161q112 -44 220 -44q75 0 115.5 26t40.5 76q0 26 -12 48.5t-45 51t-56.5 45.5t-82.5 56q-46 31 -72 51.5t-53.5 50.5t-40 65t-12.5 78q0 72 35 122.5t121 129.5q36 34 56 56.5t37 59t17 75.5q0 68 -52.5 115.5t-149.5 47.5q-105 0 -170.5 -69.5 t-65.5 -191.5v-1047h-211z" />
<glyph unicode="&#xe0;" horiz-adv-x="984" d="M65 259q0 66 22.5 118.5t62 86t93 58t115 33t128 11t132.5 -6.5v105q0 99 -46.5 150t-149.5 51q-132 0 -262 -60l-47 152q57 33 148.5 60t187.5 27q180 0 277 -91t97 -256v-473q0 -79 61 -79q29 0 60 11l19 -148q-60 -28 -134 -28q-67 0 -111 33.5t-64 90.5 q-122 -124 -277 -124q-136 0 -224 77.5t-88 201.5zM191 1340l83 183l447 -227l-51 -113zM273 281q0 -63 41 -99.5t110 -36.5q103 0 194 88v197q-42 6 -85.5 7t-91 -6t-84 -23t-60.5 -48.5t-24 -78.5z" />
<glyph unicode="&#xe1;" horiz-adv-x="984" d="M65 259q0 66 22.5 118.5t62 86t93 58t115 33t128 11t132.5 -6.5v105q0 99 -46.5 150t-149.5 51q-132 0 -262 -60l-47 152q57 33 148.5 60t187.5 27q180 0 277 -91t97 -256v-473q0 -79 61 -79q29 0 60 11l19 -148q-60 -28 -134 -28q-67 0 -111 33.5t-64 90.5 q-122 -124 -277 -124q-136 0 -224 77.5t-88 201.5zM185 1296l462 234l83 -184l-494 -163zM273 281q0 -63 41 -99.5t110 -36.5q103 0 194 88v197q-42 6 -85.5 7t-91 -6t-84 -23t-60.5 -48.5t-24 -78.5z" />
<glyph unicode="&#xe2;" horiz-adv-x="984" d="M65 259q0 66 22.5 118.5t62 86t93 58t115 33t128 11t132.5 -6.5v105q0 99 -46.5 150t-149.5 51q-132 0 -262 -60l-47 152q57 33 148.5 60t187.5 27q180 0 277 -91t97 -256v-473q0 -79 61 -79q29 0 60 11l19 -148q-60 -28 -134 -28q-67 0 -111 33.5t-64 90.5 q-122 -124 -277 -124q-136 0 -224 77.5t-88 201.5zM136 1292q145 94 318 223q184 -137 318 -223l-103 -135q-114 82 -215 173q-107 -96 -216 -173zM273 281q0 -63 41 -99.5t110 -36.5q103 0 194 88v197q-42 6 -85.5 7t-91 -6t-84 -23t-60.5 -48.5t-24 -78.5z" />
<glyph unicode="&#xe3;" horiz-adv-x="984" d="M65 259q0 66 22.5 118.5t62 86t93 58t115 33t128 11t132.5 -6.5v105q0 99 -46.5 150t-149.5 51q-132 0 -262 -60l-47 152q57 33 148.5 60t187.5 27q180 0 277 -91t97 -256v-473q0 -79 61 -79q29 0 60 11l19 -148q-60 -28 -134 -28q-67 0 -111 33.5t-64 90.5 q-122 -124 -277 -124q-136 0 -224 77.5t-88 201.5zM120 1313q30 66 88.5 112.5t135.5 46.5q46 0 123 -34.5t104 -34.5q12 0 24 4t20 7.5t19.5 14t15.5 14t16.5 18t13.5 15.5l104 -88q-34 -72 -91 -114.5t-136 -42.5q-41 0 -114.5 34.5t-107.5 34.5q-52 0 -109 -74zM273 281 q0 -63 41 -99.5t110 -36.5q103 0 194 88v197q-42 6 -85.5 7t-91 -6t-84 -23t-60.5 -48.5t-24 -78.5z" />
<glyph unicode="&#xe4;" horiz-adv-x="984" d="M65 259q0 66 22.5 118.5t62 86t93 58t115 33t128 11t132.5 -6.5v105q0 99 -46.5 150t-149.5 51q-132 0 -262 -60l-47 152q57 33 148.5 60t187.5 27q180 0 277 -91t97 -256v-473q0 -79 61 -79q29 0 60 11l19 -148q-60 -28 -134 -28q-67 0 -111 33.5t-64 90.5 q-122 -124 -277 -124q-136 0 -224 77.5t-88 201.5zM130 1344q0 62 38.5 99t99.5 37q53 0 89.5 -35.5t36.5 -89.5q0 -63 -38.5 -100.5t-99.5 -37.5q-53 0 -89.5 36t-36.5 91zM273 281q0 -63 41 -99.5t110 -36.5q103 0 194 88v197q-42 6 -85.5 7t-91 -6t-84 -23t-60.5 -48.5 t-24 -78.5zM537 1344q0 62 38.5 99t99.5 37q53 0 89.5 -35.5t36.5 -89.5q0 -63 -38.5 -100.5t-99.5 -37.5q-53 0 -89.5 36t-36.5 91z" />
<glyph unicode="&#xe5;" horiz-adv-x="984" d="M65 259q0 66 22.5 118.5t62 86t93 58t115 33t128 11t132.5 -6.5v105q0 99 -46.5 150t-149.5 51q-132 0 -262 -60l-47 152q57 33 148.5 60t187.5 27q180 0 277 -91t97 -256v-473q0 -79 61 -79q29 0 60 11l19 -148q-60 -28 -134 -28q-67 0 -111 33.5t-64 90.5 q-122 -124 -277 -124q-136 0 -224 77.5t-88 201.5zM234 1344q0 99 64.5 160.5t164.5 61.5q90 0 153 -59t63 -149q0 -100 -64.5 -161.5t-165.5 -61.5q-90 0 -152.5 59.5t-62.5 149.5zM273 281q0 -63 41 -99.5t110 -36.5q103 0 194 88v197q-42 6 -85.5 7t-91 -6t-84 -23 t-60.5 -48.5t-24 -78.5zM369 1350q0 -37 25.5 -62.5t60.5 -25.5q39 0 64.5 26t25.5 64q0 37 -26 61.5t-62 24.5q-38 0 -63 -25t-25 -63z" />
<glyph unicode="&#xe6;" horiz-adv-x="1557" d="M67 273q0 128 109 208t291 90q154 6 158 6v87q0 103 -48.5 152t-153.5 49q-127 0 -270 -62l-44 154q72 37 167 62t179 25q218 0 312 -153q126 153 329 153q182 0 283 -102t101 -280q0 -113 -32 -193l-609 -16q10 -143 85.5 -218.5t202.5 -75.5q144 0 267 48l50 -153 q-137 -74 -345 -74q-220 0 -351 162q-188 -162 -367 -162q-137 0 -225.5 81.5t-88.5 211.5zM275 290q0 -67 39.5 -104t107.5 -37q122 0 232 108q-24 87 -29 194q-80 -3 -159 -9q-89 -8 -140 -49.5t-51 -102.5zM843 585l426 13q7 40 5 73q-1 98 -52 153t-141 55 q-101 0 -164 -78.5t-74 -215.5z" />
<glyph unicode="&#xe7;" horiz-adv-x="915" d="M77 502q0 244 139.5 393t371.5 149q151 0 270 -67l-53 -154q-111 42 -209 42q-139 0 -218.5 -92.5t-79.5 -253.5q0 -171 80 -265.5t227 -94.5q112 0 219 46l50 -154q-53 -31 -133.5 -51t-166.5 -20q-225 0 -361 144t-136 378zM356 -462l18 107q32 -10 80 -10 q42 0 64.5 21t22.5 53q0 34 -22 53t-64 19h-61l10 114h96q90 0 145 -44.5t55 -129.5q0 -100 -65 -150.5t-178 -50.5q-63 0 -101 18z" />
<glyph unicode="&#xe8;" horiz-adv-x="1022" d="M77 503q0 245 131.5 393t355.5 148q182 0 282.5 -101.5t100.5 -276.5q0 -114 -31 -199h-620q6 -150 85 -229t221 -79q129 0 260 48l48 -156q-153 -71 -335 -71q-229 0 -363.5 143.5t-134.5 379.5zM275 1340l83 183l447 -227l-50 -113zM297 600h437q8 32 8 80 q-2 96 -54 147.5t-144 51.5q-109 0 -173.5 -74t-73.5 -205z" />
<glyph unicode="&#xe9;" horiz-adv-x="1022" d="M77 503q0 245 131.5 393t355.5 148q182 0 282.5 -101.5t100.5 -276.5q0 -114 -31 -199h-620q6 -150 85 -229t221 -79q129 0 260 48l48 -156q-153 -71 -335 -71q-229 0 -363.5 143.5t-134.5 379.5zM278 1296l462 234l82 -184l-493 -163zM297 600h437q8 32 8 80 q-2 96 -54 147.5t-144 51.5q-109 0 -173.5 -74t-73.5 -205z" />
<glyph unicode="&#xea;" horiz-adv-x="1022" d="M77 503q0 245 131.5 393t355.5 148q182 0 282.5 -101.5t100.5 -276.5q0 -114 -31 -199h-620q6 -150 85 -229t221 -79q129 0 260 48l48 -156q-153 -71 -335 -71q-229 0 -363.5 143.5t-134.5 379.5zM222 1292q148 97 317 223q186 -137 318 -223l-102 -135q-103 73 -216 173 q-102 -93 -215 -173zM297 600h437q8 32 8 80q-2 96 -54 147.5t-144 51.5q-109 0 -173.5 -74t-73.5 -205z" />
<glyph unicode="&#xeb;" horiz-adv-x="1022" d="M77 503q0 245 131.5 393t355.5 148q182 0 282.5 -101.5t100.5 -276.5q0 -114 -31 -199h-620q6 -150 85 -229t221 -79q129 0 260 48l48 -156q-153 -71 -335 -71q-229 0 -363.5 143.5t-134.5 379.5zM205 1344q0 62 38 99t99 37q53 0 89.5 -35.5t36.5 -89.5 q0 -63 -38.5 -100.5t-99.5 -37.5q-53 0 -89 36t-36 91zM297 600h437q8 32 8 80q-2 96 -54 147.5t-144 51.5q-109 0 -173.5 -74t-73.5 -205zM612 1344q0 62 38 99t99 37q53 0 89.5 -35.5t36.5 -89.5q0 -63 -38.5 -100.5t-99.5 -37.5q-53 0 -89 36t-36 91z" />
<glyph unicode="&#xec;" horiz-adv-x="525" d="M-22 1340l83 183l446 -227l-50 -113zM157 0v1024h211v-1024h-211z" />
<glyph unicode="&#xed;" horiz-adv-x="525" d="M48 1296l462 234l82 -184l-494 -163zM157 0v1024h211v-1024h-211z" />
<glyph unicode="&#xee;" horiz-adv-x="525" d="M-56 1292q145 93 318 223q173 -129 318 -223l-102 -135q-112 80 -216 173q-104 -94 -215 -173zM157 0v1024h211v-1024h-211z" />
<glyph unicode="&#xef;" horiz-adv-x="525" d="M-56 1344q0 62 38 99t99 37q53 0 89.5 -35.5t36.5 -89.5q0 -63 -38.5 -100.5t-98.5 -37.5q-54 0 -90 36t-36 91zM157 0v1024h211v-1024h-211zM318 1344q0 62 38 99t99 37q53 0 89.5 -35.5t36.5 -89.5q0 -63 -38.5 -100.5t-98.5 -37.5q-54 0 -90 36t-36 91z" />
<glyph unicode="&#xf0;" horiz-adv-x="1139" d="M77 503q0 244 130.5 392.5t351.5 148.5q149 0 250 -109q-47 223 -163 316l-87 -125l-112 77l73 106q-37 8 -71 8q-101 0 -188 -33l-40 146q95 42 210 48q47 2 93 -3q45 -4 93 -17l90 130l115 -77l-77 -110q152 -98 227.5 -308t75.5 -502q0 -133 -31.5 -244t-92.5 -193 t-156 -128t-216 -46q-218 0 -346.5 144t-128.5 379zM298 519q0 -175 68 -275t198 -100q120 0 191.5 107t71.5 303l28 30h-20q-32 148 -99.5 221.5t-182.5 73.5q-122 0 -188.5 -97t-66.5 -263z" />
<glyph unicode="&#xf1;" horiz-adv-x="1154" d="M157 0v1024h170l22 -118q160 138 331 138q164 0 248 -93t84 -277v-674h-212v642q0 221 -184 221q-57 0 -128.5 -29.5t-119.5 -73.5v-760h-211zM238 1313q29 65 87.5 112t135.5 47q46 0 123.5 -34.5t103.5 -34.5q11 0 20.5 2t19.5 7.5t16 9t15.5 13.5t12.5 12.5t13.5 15 t11.5 13.5l105 -88q-76 -157 -227 -157q-42 0 -115 34.5t-107 34.5q-52 0 -109 -74z" />
<glyph unicode="&#xf2;" horiz-adv-x="1131" d="M77 504q0 243 135 391.5t360 148.5q219 0 350.5 -144.5t131.5 -378.5q0 -244 -134.5 -392.5t-360.5 -148.5q-219 0 -350.5 144.5t-131.5 379.5zM298 520q0 -175 71.5 -275.5t201.5 -100.5q123 0 192.5 98t69.5 263q0 175 -71 274.5t-202 99.5q-123 0 -192.5 -97.5 t-69.5 -261.5zM298 1340l83 183l447 -227l-50 -113z" />
<glyph unicode="&#xf3;" horiz-adv-x="1131" d="M77 504q0 243 135 391.5t360 148.5q219 0 350.5 -144.5t131.5 -378.5q0 -244 -134.5 -392.5t-360.5 -148.5q-219 0 -350.5 144.5t-131.5 379.5zM298 520q0 -175 71.5 -275.5t201.5 -100.5q123 0 192.5 98t69.5 263q0 175 -71 274.5t-202 99.5q-123 0 -192.5 -97.5 t-69.5 -261.5zM301 1296l462 234l82 -184l-493 -163z" />
<glyph unicode="&#xf4;" horiz-adv-x="1131" d="M77 504q0 243 135 391.5t360 148.5q219 0 350.5 -144.5t131.5 -378.5q0 -244 -134.5 -392.5t-360.5 -148.5q-219 0 -350.5 144.5t-131.5 379.5zM248 1292q148 97 317 223q186 -137 318 -223l-102 -135q-103 73 -216 173q-102 -93 -215 -173zM298 520q0 -175 71.5 -275.5 t201.5 -100.5q123 0 192.5 98t69.5 263q0 175 -71 274.5t-202 99.5q-123 0 -192.5 -97.5t-69.5 -261.5z" />
<glyph unicode="&#xf5;" horiz-adv-x="1131" d="M77 504q0 243 135 391.5t360 148.5q219 0 350.5 -144.5t131.5 -378.5q0 -244 -134.5 -392.5t-360.5 -148.5q-219 0 -350.5 144.5t-131.5 379.5zM235 1313q30 66 88.5 112.5t135.5 46.5q46 0 123 -34.5t103 -34.5q11 0 20.5 2t19.5 7.5t16 9t15.5 13.5t12.5 12.5t13.5 15 t11.5 13.5l105 -88q-34 -72 -91 -114.5t-136 -42.5q-41 0 -114.5 34.5t-107.5 34.5q-52 0 -109 -74zM298 520q0 -175 71.5 -275.5t201.5 -100.5q123 0 192.5 98t69.5 263q0 175 -71 274.5t-202 99.5q-123 0 -192.5 -97.5t-69.5 -261.5z" />
<glyph unicode="&#xf6;" horiz-adv-x="1131" d="M77 504q0 243 135 391.5t360 148.5q219 0 350.5 -144.5t131.5 -378.5q0 -244 -134.5 -392.5t-360.5 -148.5q-219 0 -350.5 144.5t-131.5 379.5zM231 1344q0 62 38 99t99 37q53 0 89.5 -35.5t36.5 -89.5q0 -63 -38.5 -100.5t-99.5 -37.5q-53 0 -89 36t-36 91zM298 520 q0 -175 71.5 -275.5t201.5 -100.5q123 0 192.5 98t69.5 263q0 175 -71 274.5t-202 99.5q-123 0 -192.5 -97.5t-69.5 -261.5zM638 1344q0 62 38 99t99 37q53 0 89.5 -35.5t36.5 -89.5q0 -63 -38.5 -100.5t-99.5 -37.5q-53 0 -89 36t-36 91z" />
<glyph unicode="&#xf7;" horiz-adv-x="1145" d="M172 582v165h801v-165h-801zM441 311q0 62 38 99.5t99 37.5q53 0 89.5 -35.5t36.5 -89.5q0 -63 -38.5 -100.5t-98.5 -37.5q-54 0 -90 35.5t-36 90.5zM441 1006q0 62 38 99.5t99 37.5q53 0 89.5 -35.5t36.5 -89.5q0 -63 -38.5 -100.5t-98.5 -37.5q-54 0 -90 35.5t-36 90.5 z" />
<glyph unicode="&#xf8;" horiz-adv-x="1131" d="M77 504q0 243 135 391.5t360 148.5q125 0 228 -53l131 202l108 -64l-136 -211q151 -145 151 -397q0 -244 -134.5 -392.5t-360.5 -148.5q-128 0 -229 52l-130 -201l-108 64l136 211q-151 145 -151 398zM298 520q0 -138 48 -231l356 549q-59 41 -142 41 q-123 0 -192.5 -97.5t-69.5 -261.5zM429 185q59 -41 142 -41q123 0 192.5 98t69.5 263q0 137 -48 230z" />
<glyph unicode="&#xf9;" horiz-adv-x="1134" d="M138 350v674h212v-642q0 -222 176 -222q55 0 123.5 30t115.5 74v760h212v-1024h-171l-21 118q-68 -63 -152 -100.5t-171 -37.5q-160 0 -242 93t-82 277zM280 1340l83 183l447 -227l-50 -113z" />
<glyph unicode="&#xfa;" horiz-adv-x="1134" d="M138 350v674h212v-642q0 -222 176 -222q55 0 123.5 30t115.5 74v760h212v-1024h-171l-21 118q-68 -63 -152 -100.5t-171 -37.5q-160 0 -242 93t-82 277zM293 1296l462 234l82 -184l-493 -163z" />
<glyph unicode="&#xfb;" horiz-adv-x="1134" d="M138 350v674h212v-642q0 -222 176 -222q55 0 123.5 30t115.5 74v760h212v-1024h-171l-21 118q-68 -63 -152 -100.5t-171 -37.5q-160 0 -242 93t-82 277zM239 1292q145 93 318 223q173 -129 318 -223l-102 -135q-112 80 -216 173q-96 -88 -215 -173z" />
<glyph unicode="&#xfc;" horiz-adv-x="1134" d="M138 350v674h212v-642q0 -222 176 -222q55 0 123.5 30t115.5 74v760h212v-1024h-171l-21 118q-68 -63 -152 -100.5t-171 -37.5q-160 0 -242 93t-82 277zM222 1344q0 62 38.5 99t99.5 37q53 0 89.5 -35.5t36.5 -89.5q0 -63 -38.5 -100.5t-99.5 -37.5q-53 0 -89.5 36 t-36.5 91zM629 1344q0 62 38.5 99t99.5 37q53 0 89.5 -35.5t36.5 -89.5q0 -63 -38.5 -100.5t-99.5 -37.5q-53 0 -89.5 36t-36.5 91z" />
<glyph unicode="&#xfd;" horiz-adv-x="1050" d="M15 1024h230l263 -730l36 -87l255 817h227l-352 -1013q-82 -236 -184 -331.5t-272 -95.5q-105 0 -197 43l42 157q70 -28 149 -28q82 0 134.5 50.5t90.5 169.5l-52 119q-69 171 -194.5 488t-175.5 441zM267 1296l462 234l82 -184l-494 -163z" />
<glyph unicode="&#xfe;" horiz-adv-x="1150" d="M157 -396v1856l211 20v-507q100 52 201 61q86 8 158 -7q162 -34 254 -169.5t92 -337.5q0 -237 -137.5 -388.5t-354.5 -151.5q-108 0 -213 50v-426h-211zM368 201q91 -47 205 -47q130 0 204.5 97t74.5 254q0 163 -78 262t-210 99q-106 0 -196 -52v-613z" />
<glyph unicode="&#xff;" horiz-adv-x="1050" d="M15 1024h230l263 -730l36 -87l255 817h227l-352 -1013q-82 -236 -184 -331.5t-272 -95.5q-105 0 -197 43l42 157q70 -28 149 -28q82 0 134.5 50.5t90.5 169.5l-52 119q-69 171 -194.5 488t-175.5 441zM162 1344q0 62 38.5 99t99.5 37q53 0 89.5 -35.5t36.5 -89.5 q0 -63 -38.5 -100.5t-99.5 -37.5q-53 0 -89.5 36t-36.5 91zM611 1344q0 62 38.5 99t99.5 37q53 0 89.5 -35.5t36.5 -89.5q0 -63 -38.5 -100.5t-99.5 -37.5q-53 0 -89.5 36t-36.5 91z" />
<glyph unicode="&#x152;" horiz-adv-x="1882" d="M83 662q0 199 76 355t219 244.5t331 88.5q156 0 284 -82v63h778v-175h-566v-400h543v-172h-543v-409h586v-175h-798v66q-131 -86 -296 -86q-283 0 -448.5 188t-165.5 494zM309 676q0 -240 111.5 -381t288.5 -141t284 127v761q-109 134 -297 134q-166 0 -276.5 -132.5 t-110.5 -367.5z" />
<glyph unicode="&#x153;" horiz-adv-x="1640" d="M77 504q0 243 135 391.5t360 148.5q175 0 299 -107q123 107 310 107q181 0 281.5 -102t100.5 -280q0 -110 -32 -195h-613q9 -146 86.5 -227t206.5 -81q143 0 266 48l50 -153q-137 -74 -343 -74q-189 0 -316 110q-124 -110 -309 -110q-219 0 -350.5 144.5t-131.5 379.5z M298 520q0 -175 71.5 -275.5t201.5 -100.5q118 0 189 87q-59 115 -59 271q0 166 58 288q-70 89 -199 89q-123 0 -192.5 -97.5t-69.5 -261.5zM921 600h431q5 30 5 73q-1 96 -51.5 151t-140.5 55q-104 0 -168 -73t-76 -206z" />
<glyph unicode="&#x178;" horiz-adv-x="1137" d="M21 1330h230l319 -623l318 623h228l-441 -823v-507h-214v507zM233 1644q0 62 38.5 99t99.5 37q53 0 89.5 -35.5t36.5 -89.5q0 -63 -38.5 -100.5t-99.5 -37.5q-53 0 -89.5 36t-36.5 91zM640 1644q0 62 38.5 99t99.5 37q53 0 89.5 -35.5t36.5 -89.5q0 -63 -38.5 -100.5 t-99.5 -37.5q-53 0 -89.5 36t-36.5 91z" />
<glyph unicode="&#x2c6;" horiz-adv-x="866" d="M115 1292q145 94 318 223q184 -137 318 -223l-103 -135q-114 82 -215 173q-107 -96 -216 -173z" />
<glyph unicode="&#x2dc;" horiz-adv-x="873" d="M104 1313q30 66 88.5 112.5t135.5 46.5q46 0 123 -34.5t104 -34.5q12 0 24 4t20 7.5t19.5 14t15.5 14t16.5 18t13.5 15.5l104 -88q-34 -72 -91 -114.5t-136 -42.5q-41 0 -114.5 34.5t-107.5 34.5q-52 0 -109 -74z" />
<glyph unicode="&#x2000;" horiz-adv-x="933" />
<glyph unicode="&#x2001;" horiz-adv-x="1866" />
<glyph unicode="&#x2002;" horiz-adv-x="933" />
<glyph unicode="&#x2003;" horiz-adv-x="1866" />
<glyph unicode="&#x2004;" horiz-adv-x="622" />
<glyph unicode="&#x2005;" horiz-adv-x="466" />
<glyph unicode="&#x2006;" horiz-adv-x="311" />
<glyph unicode="&#x2007;" horiz-adv-x="311" />
<glyph unicode="&#x2008;" horiz-adv-x="233" />
<glyph unicode="&#x2009;" horiz-adv-x="373" />
<glyph unicode="&#x200a;" horiz-adv-x="103" />
<glyph unicode="&#x2010;" horiz-adv-x="892" d="M157 447v171h578v-171h-578z" />
<glyph unicode="&#x2011;" horiz-adv-x="892" d="M157 447v171h578v-171h-578z" />
<glyph unicode="&#x2012;" horiz-adv-x="892" d="M157 447v171h578v-171h-578z" />
<glyph unicode="&#x2013;" horiz-adv-x="1169" d="M157 447v171h855v-171h-855z" />
<glyph unicode="&#x2014;" horiz-adv-x="1777" d="M157 447v171h1463v-171h-1463z" />
<glyph unicode="&#x2018;" horiz-adv-x="438" d="M59 1170q0 111 68 192t172 133l83 -98q-133 -90 -133 -206q0 -109 97 -206l-188 -48q-35 29 -67 91t-32 142z" />
<glyph unicode="&#x2019;" horiz-adv-x="447" d="M39 1035q133 90 133 206q0 112 -97 206l188 48q35 -29 67 -91t32 -142q0 -203 -239 -325z" />
<glyph unicode="&#x201a;" horiz-adv-x="438" d="M23 -216q134 91 134 206q0 111 -98 206l189 48q35 -29 67 -91t32 -142q0 -204 -240 -325z" />
<glyph unicode="&#x201c;" horiz-adv-x="783" d="M59 1172q0 111 68 192t172 132l73 -92q-137 -91 -137 -211q0 -113 98 -208l-175 -46q-35 29 -67 90.5t-32 142.5zM417 1178q0 58 20 109.5t55.5 91t74.5 68.5t85 52l75 -94q-134 -89 -134 -206q0 -109 97 -206l-174 -47q-35 28 -67 89.5t-32 142.5z" />
<glyph unicode="&#x201d;" horiz-adv-x="792" d="M28 1029q134 91 134 206q0 109 -97 206l174 47q35 -28 67 -89.5t32 -142.5q0 -58 -20 -109.5t-55.5 -91t-74.5 -68.5t-85 -52zM383 1030q137 93 137 211q0 113 -98 208l175 46q35 -28 67 -90t32 -143q0 -203 -240 -324z" />
<glyph unicode="&#x201e;" horiz-adv-x="783" d="M13 -216q134 91 134 206q0 109 -97 206l174 46q35 -28 67 -89t32 -142q0 -203 -235 -321zM368 -215q137 93 137 211q0 112 -98 207l175 47q35 -29 67 -91t32 -142q0 -204 -240 -325z" />
<glyph unicode="&#x2022;" horiz-adv-x="676" d="M116 678q0 106 66 170.5t171 64.5q91 0 154 -61.5t63 -153.5q0 -108 -66.5 -172.5t-170.5 -64.5q-92 0 -154.5 61.5t-62.5 155.5z" />
<glyph unicode="&#x2026;" horiz-adv-x="1421" d="M101 106q0 62 38.5 99.5t99.5 37.5q52 0 88.5 -35.5t36.5 -89.5q0 -63 -38.5 -100.5t-98.5 -37.5q-54 0 -90 35.5t-36 90.5zM579 106q0 62 38.5 99.5t99.5 37.5q52 0 88.5 -35.5t36.5 -89.5q0 -63 -38.5 -100.5t-98.5 -37.5q-54 0 -90 35.5t-36 90.5zM1057 106 q0 62 38.5 99.5t99.5 37.5q52 0 88.5 -35.5t36.5 -89.5q0 -63 -38.5 -100.5t-98.5 -37.5q-54 0 -90 35.5t-36 90.5z" />
<glyph unicode="&#x202f;" horiz-adv-x="373" />
<glyph unicode="&#x2039;" horiz-adv-x="752" d="M104 511q212 218 398 480l150 -110q-109 -169 -315 -370q205 -199 315 -370l-150 -109q-192 268 -398 479z" />
<glyph unicode="&#x203a;" horiz-adv-x="752" d="M92 142q109 169 315 370q-205 199 -315 370l150 109q192 -268 398 -479q-212 -218 -398 -480z" />
<glyph unicode="&#x205f;" horiz-adv-x="466" />
<glyph unicode="&#x20ac;" horiz-adv-x="1395" d="M150 468v132h829v-132h-473q45 -147 155.5 -227t269.5 -80q134 0 274 55l56 -155q-64 -37 -157 -59t-186 -22q-264 0 -430.5 129.5t-217.5 358.5h-120zM150 732v132h123q54 223 220.5 354.5t411.5 131.5q91 0 177 -23t139 -52l-57 -158q-142 52 -260 52q-148 0 -255 -79 t-148 -226h478v-132h-829z" />
<glyph unicode="&#x2122;" horiz-adv-x="783" d="M51 1275v75h254v-75h-84v-251h-84v251h-86zM347 1024v326h133l60 -214l59 214h133v-326h-84v230l-75 -230h-67l-74 230v-230h-85z" />
<glyph unicode="&#x25fc;" horiz-adv-x="1025" d="M0 0v1025h1025v-1025h-1025z" />
</font>
</defs>
</svg>
