<?xml version="1.0" standalone="no"?>
<!DOCTYPE svg PUBLIC "-//W3C//DTD SVG 1.1//EN" "http://www.w3.org/Graphics/SVG/1.1/DTD/svg11.dtd" >
<svg xmlns="http://www.w3.org/2000/svg">
<metadata></metadata>
<defs>
<font id="libertadextrabold_italic" horiz-adv-x="1312" >
<font-face units-per-em="2048" ascent="1638" descent="-410" />
<missing-glyph horiz-adv-x="430" />
<glyph unicode="&#x31;&#x2f;&#x34;" horiz-adv-x="1467" d="M50 97l1211 1253l146 -117l-1211 -1253zM74 751l29 182l151 4l32 202q-64 -11 -138 -17l10 185q111 14 279 43h115l-66 -413l129 -4l-29 -182h-512zM717 103l24 150l207 346l210 -20l-200 -323h96l25 154h192l-25 -154h92l-24 -153h-86l-16 -103h-203l16 103h-308z" />
<glyph unicode="&#x31;&#x2f;&#x32;" horiz-adv-x="1497" d="M50 97l1211 1253l146 -117l-1211 -1253zM74 751l29 182l151 4l32 202q-64 -11 -138 -17l10 185q111 14 279 43h115l-66 -413l129 -4l-29 -182h-512zM782 0l28 176q162 79 198 103q61 41 61 84q0 41 -43 41q-66 0 -143 -34l-17 173q26 18 94.5 37t136.5 19 q110 0 164.5 -46.5t54.5 -124.5q0 -88 -60 -145t-172 -97h214l-29 -186h-487z" />
<glyph unicode="&#x33;&#x2f;&#x34;" horiz-adv-x="1537" d="M120 97l1211 1253l146 -117l-1211 -1253zM211 769l61 157q59 -25 131 -25q46 0 66 11t20 36q0 32 -48 32h-101l20 124h118q21 19 21 39q0 37 -63 37q-66 0 -122 -26l-12 154q24 14 81 28t123 14q116 0 174 -39t58 -110q0 -40 -18 -72t-34.5 -45.5t-40.5 -27.5 q70 -39 70 -117q0 -101 -82.5 -154.5t-234.5 -53.5q-53 0 -110.5 12.5t-76.5 25.5zM787 103l24 150l207 346l210 -20l-200 -323h96l25 154h192l-25 -154h92l-24 -153h-86l-16 -103h-203l16 103h-308z" />
<glyph unicode="&#xfb01;" horiz-adv-x="1167" d="M50 -396l187 1182h-138l35 218l148 9q-33 217 98.5 342t420.5 125q73 0 148.5 -12.5t110.5 -22.5t58 -19l-76 -225q-108 34 -243 34q-64 0 -109 -13.5t-66 -35.5t-33 -50t-9 -56.5t5 -55.5h576l-121 -762q-28 -176 -22 -262h-307q-9 21 -13 72t5 128l94 586h-236 l-187 -1182h-326z" />
<glyph unicode="&#xfb02;" horiz-adv-x="1215" d="M50 -396l187 1182h-138l35 218l148 9q-33 217 98.5 342t420.5 125q223 0 468 -88l-178 -1130q-28 -181 -22 -262h-307q-9 21 -13 72t5 128l164 1027q-61 8 -119 8q-64 0 -109 -13.5t-66 -35.5t-33 -50t-9 -56.5t5 -55.5h182l-38 -238h-168l-187 -1182h-326z" />
<glyph unicode="fii" horiz-adv-x="1762" d="M50 -396l187 1182h-138l35 218l148 9q-31 211 82 339t327 128q50 0 100 -8t72.5 -14.5t34.5 -11.5l-76 -225q-48 14 -93 14q-66 0 -102 -29t-41 -76t1 -106h288q-28 209 92 332.5t359 123.5q75 0 147 -16t100 -28l-76 -225q-68 24 -173 24q-54 0 -88.5 -20.5t-45 -52 t-14 -68.5t5.5 -70h250h326l-121 -762q-28 -176 -22 -262h-307q-9 21 -13 72t5 128l94 586h-236l-124 -786h-326l124 786h-269l-187 -1182h-326z" />
<glyph unicode="fll" horiz-adv-x="1810" d="M50 -396l187 1182h-138l35 218l148 9q-31 211 82 339t327 128q50 0 100 -8t72.5 -14.5t34.5 -11.5l-76 -225q-48 14 -93 14q-66 0 -102 -29t-41 -76t1 -106h288q-28 213 103.5 334.5t417.5 121.5q223 0 468 -88l-178 -1130q-28 -181 -22 -262h-307q-9 21 -13 72t5 128 l164 1027q-61 8 -119 8q-64 0 -109 -13.5t-66 -35.5t-33 -50t-9 -56.5t5 -55.5h182l-38 -238h-168l-187 -1182h-326l187 1182h-269l-187 -1182h-326z" />
<glyph horiz-adv-x="0" />
<glyph horiz-adv-x="682" />
<glyph unicode=" "  horiz-adv-x="430" />
<glyph unicode="&#x09;" horiz-adv-x="430" />
<glyph unicode="&#xa0;" horiz-adv-x="430" />
<glyph unicode="!" horiz-adv-x="653" d="M90 120q0 103 60.5 159.5t160.5 56.5q68 0 107 -36.5t39 -103.5q0 -104 -60 -160t-160 -56q-68 0 -107.5 36.5t-39.5 103.5zM195 446l90 884h348l-190 -884h-248z" />
<glyph unicode="&#x22;" horiz-adv-x="952" d="M230 912l52 597h300l-138 -597h-214zM610 912l52 597h300l-138 -597h-214z" />
<glyph unicode="#" horiz-adv-x="1343" d="M0 323l69 227h223l70 232h-223l68 227h224l98 321h261l-97 -321h212l98 321h261l-97 -321h216l-68 -227h-217l-70 -232h216l-68 -227h-217l-98 -323h-262l98 323h-212l-98 -323h-262l98 323h-223zM554 550h212l70 232h-212z" />
<glyph unicode="$" horiz-adv-x="996" d="M50 163l97 235q40 -26 112.5 -50t159.5 -24q85 0 128.5 18t43.5 62q0 31 -21 55t-71 50l-141 67q-97 47 -147.5 115t-50.5 168q0 150 103.5 255.5t266.5 138.5l13 243h260l-61 -234q63 -7 121.5 -26t77.5 -29.5t55 -31.5l-89 -235q-139 67 -265 67q-138 0 -153 -81 q-8 -40 11 -63t62 -45l157 -79q105 -53 154 -121t49 -161q0 -156 -95.5 -253.5t-274.5 -126.5l-14 -243h-260l60 234q-97 8 -174 35.5t-114 59.5z" />
<glyph unicode="%" horiz-adv-x="1597" d="M140 97l1211 1253l146 -117l-1211 -1253zM174 989q0 160 105 260.5t268 100.5q119 0 190 -71.5t71 -187.5q0 -160 -104 -260t-268 -100q-119 0 -190.5 71t-71.5 187zM421 1014q0 -86 55 -86q39 0 62 39.5t23 97.5q0 87 -56 87q-38 0 -61 -40t-23 -98zM838 238 q0 160 105 260.5t268 100.5q119 0 190 -71.5t71 -187.5q0 -160 -104 -260t-268 -100q-119 0 -190.5 71t-71.5 187zM1085 263q0 -86 55 -86q39 0 62 39.5t23 97.5q0 87 -56 87q-38 0 -61 -40t-23 -98z" />
<glyph unicode="&#x26;" horiz-adv-x="1300" d="M45 308q0 134 85.5 235.5t226.5 161.5q-68 108 -92 162.5t-24 123.5q0 108 69 191t180 125.5t242 42.5q157 0 261 -81.5t104 -200.5q0 -82 -35.5 -142.5t-79.5 -91.5q52 -15 98.5 -41t88.5 -66t66.5 -100.5t24.5 -132.5q0 -115 -67 -212.5t-194 -165.5l64 -112 q38 -66 44.5 -144t-11.5 -146.5t-55 -129.5l-239 20q22 49 33 99.5t4.5 111t-36.5 112.5l-53 92q-33 -14 -99.5 -26.5t-129.5 -12.5q-131 0 -238.5 39t-172.5 115t-65 174zM369 360q7 -60 51.5 -95.5t99.5 -44t115 0.5l-179 310q-46 -28 -70 -73.5t-17 -97.5zM540 987 q0 -42 14.5 -81.5t54.5 -109.5l281 -489q63 63 63 163q0 86 -55.5 139.5t-121.5 59.5l-94 178q60 35 90.5 70.5t30.5 90.5q0 48 -37 76t-85 28q-64 0 -102.5 -35.5t-38.5 -89.5z" />
<glyph unicode="'" horiz-adv-x="572" d="M230 912l52 597h300l-138 -597h-214z" />
<glyph unicode="(" horiz-adv-x="761" d="M170 492q0 135 27 264.5t70.5 232t103 199t118 166.5t122.5 131.5t110.5 97.5t86.5 62l143 -135q-67 -65 -122.5 -128.5t-122 -163t-112 -202t-76.5 -240.5t-31 -284q0 -216 57.5 -387t138.5 -286l-186 -135q-34 27 -72.5 71.5t-85 120.5t-83 163.5t-61.5 207t-25 245.5z " />
<glyph unicode=")" horiz-adv-x="801" d="M-110 -181q67 65 122.5 128.5t122 163t112 202t76.5 240.5t31 284q0 216 -57.5 387t-138.5 286l186 135q34 -27 72.5 -71.5t85 -120.5t83 -163.5t61.5 -207t25 -245.5q0 -135 -27 -264.5t-70.5 -232t-103 -199t-118 -166.5t-122.5 -131.5t-110.5 -97.5t-86.5 -62z" />
<glyph unicode="*" horiz-adv-x="904" d="M150 1129l113 241l208 -88l18 240h250l-58 -240l236 88l37 -241l-234 -47l135 -159l-213 -162l-116 204l-180 -204l-163 162l185 159z" />
<glyph unicode="+" horiz-adv-x="1411" d="M195 536l41 257h376l60 376h257l-60 -376h377l-41 -257h-377l-59 -375h-257l59 375h-376z" />
<glyph unicode="," horiz-adv-x="541" d="M-60 -164q187 94 187 237q0 102 -87 194l256 69q37 -32 66 -93t29 -135q0 -268 -358 -398z" />
<glyph unicode="-" horiz-adv-x="1092" d="M190 404l41 257h661l-41 -257h-661z" />
<glyph unicode="." horiz-adv-x="567" d="M50 120q0 103 60.5 159.5t160.5 56.5q68 0 107 -36.5t39 -103.5q0 -104 -60 -160t-160 -56q-68 0 -107.5 36.5t-39.5 103.5z" />
<glyph unicode="/" horiz-adv-x="936" d="M-195 -250l1065 1835h316l-1065 -1835h-316z" />
<glyph unicode="0" horiz-adv-x="1295" d="M110 527q0 233 84 420t240.5 295t357.5 108q218 0 335.5 -147t117.5 -400q0 -233 -84.5 -420t-240.5 -295t-357 -108q-219 0 -336 147t-117 400zM461 550q0 -146 39 -229t115 -83q123 0 201 150t78 391q0 146 -39.5 229.5t-114.5 83.5q-123 0 -201 -150.5t-78 -391.5z " />
<glyph unicode="1" horiz-adv-x="777" d="M105 1034l16 257q301 25 534 59h82l-214 -1350h-328l167 1055q-127 -17 -257 -21z" />
<glyph unicode="2" horiz-adv-x="1013" d="M-10 0l36 230q358 366 387 398q138 146 172 218q24 51 24 114q0 58 -33 87.5t-87 29.5q-124 0 -258 -50l-54 234q26 13 77 31t145.5 38t177.5 20q193 0 289.5 -89t96.5 -244q0 -55 -14 -109.5t-33.5 -99.5t-57 -97.5t-69 -90t-85.5 -90.5t-90 -85t-99.5 -89t-97.5 -88 h504l-42 -268h-889z" />
<glyph unicode="3" horiz-adv-x="995" d="M-30 74l104 247q127 -68 251 -68q111 0 169 35.5t58 123.5q0 127 -157 127h-148l40 248h221q80 51 80 171q0 119 -112 119q-70 0 -139.5 -18.5t-109.5 -36.5l-55 234q27 14 74 32.5t140 40t178 21.5q192 0 286.5 -88.5t94.5 -234.5q0 -104 -61.5 -189.5t-143.5 -132.5 q22 -9 46.5 -26.5t52.5 -48t46 -80.5t18 -109q0 -148 -79 -254t-207 -156.5t-290 -50.5q-228 0 -357 94z" />
<glyph unicode="4" horiz-adv-x="1163" d="M40 264l36 230l508 856l307 -20l-470 -808h212l74 408h285l-55 -408h176l-41 -258h-177l-40 -264h-306l40 264h-549z" />
<glyph unicode="5" horiz-adv-x="1043" d="M35 71l99 247q132 -65 262 -65q104 0 166 44.5t62 143.5q0 142 -178 142l-274 -1l145 748h731l-43 -268h-418l-46 -220q27 3 54 3q175 0 278.5 -96t103.5 -262q0 -239 -158.5 -373t-420.5 -134q-235 0 -363 91z" />
<glyph unicode="6" horiz-adv-x="1172" d="M110 437q0 151 24.5 283t79.5 249t137 200.5t204 132t274 48.5q71 0 141 -14t105 -26.5t57 -24.5l-102 -247q-125 39 -233 39q-223 0 -286 -287q51 27 135 34q199 16 306.5 -76t107.5 -264q0 -228 -152 -366t-408 -138q-187 0 -288.5 111.5t-101.5 345.5zM464 322.5 q23 -84.5 93 -84.5q85 0 122 48.5t37 146.5q0 71 -34 109.5t-94 35.5q-67 -4 -116 -37q-31 -134 -8 -218.5z" />
<glyph unicode="7" horiz-adv-x="946" d="M60 0l573 1072h-489l41 258h841l-37 -230l-589 -1100h-340z" />
<glyph unicode="8" horiz-adv-x="1132" d="M60 285q0 73 32 139t80.5 111t93 74t83.5 44q-166 100 -166 271q0 194 148.5 310t378.5 116q177 0 284.5 -80.5t107.5 -224.5q0 -70 -24.5 -129.5t-65 -100.5t-79.5 -67t-82 -45q2 -2 20 -16t30 -25t32.5 -32t34.5 -43t28.5 -50t22 -62t7.5 -71q0 -140 -73.5 -237.5 t-195 -142t-280.5 -44.5q-120 0 -211.5 31.5t-148.5 102t-57 171.5zM399 353q0 -58 38 -90.5t95 -32.5q64 0 111.5 41.5t47.5 103.5q0 53 -33.5 95t-89.5 84q-169 -89 -169 -201zM525 962q0 -48 21 -80t74 -80q60 33 99 82.5t39 110.5q0 50 -28 78t-76 28q-55 0 -92 -38 t-37 -101z" />
<glyph unicode="9" horiz-adv-x="1162" d="M80 55l102 247q108 -49 233 -49q222 0 276 287q-51 -27 -135 -34q-199 -16 -306.5 76t-107.5 264q0 228 152 366t408 138q187 0 288.5 -111.5t101.5 -345.5q0 -159 -21.5 -292.5t-72 -250t-127.5 -197.5t-193.5 -127t-264.5 -46q-113 0 -205 26t-128 49zM486 897 q0 -71 34 -109.5t94 -35.5q67 4 116 37q31 134 8 218.5t-93 84.5q-85 0 -122 -48.5t-37 -146.5z" />
<glyph unicode=":" horiz-adv-x="567" d="M50 120q0 103 60.5 159.5t160.5 56.5q68 0 107 -36.5t39 -103.5q0 -104 -60 -160t-160 -56q-68 0 -107.5 36.5t-39.5 103.5zM163 828q0 103 60.5 159.5t160.5 56.5q68 0 107 -36.5t39 -103.5q0 -104 -60 -160t-160 -56q-68 0 -107.5 36.5t-39.5 103.5z" />
<glyph unicode=";" horiz-adv-x="567" d="M-60 -164q187 94 187 237q0 102 -87 194l256 69q37 -32 66 -93t29 -135q0 -268 -358 -398zM163 828q0 103 60.5 159.5t160.5 56.5q68 0 107 -36.5t39 -103.5q0 -104 -60 -160t-160 -56q-68 0 -107.5 36.5t-39.5 103.5z" />
<glyph unicode="&#x3c;" horiz-adv-x="1137" d="M145 665l741 527l131 -191l-473 -336l366 -334l-191 -190z" />
<glyph unicode="=" horiz-adv-x="1399" d="M200 363l41 257h963l-41 -257h-963zM256 712l40 257h963l-40 -257h-963z" />
<glyph unicode="&#x3e;" horiz-adv-x="1135" d="M208 329l473 336l-366 334l191 190l574 -524l-741 -527z" />
<glyph unicode="?" horiz-adv-x="842" d="M110 120q0 103 60.5 159.5t160.5 56.5q68 0 107 -36.5t39 -103.5q0 -104 -60 -160t-160 -56q-68 0 -107.5 36.5t-39.5 103.5zM177 1064l12 247q38 12 127.5 25.5t189.5 13.5q187 0 286.5 -73.5t99.5 -190.5q0 -38 -8.5 -74t-20 -64t-35 -59.5t-40.5 -51.5t-51 -50 t-52 -44.5t-57.5 -45t-54.5 -42.5q-75 -60 -105.5 -106.5t-33.5 -101.5l-234 -17q-20 93 19.5 180t156.5 191q16 14 55 47.5t52.5 46.5t35.5 36t29.5 40t7.5 33q0 46 -34.5 67t-119.5 21q-99 0 -225 -28z" />
<glyph unicode="@" horiz-adv-x="2153" d="M110 300q0 180 49 350t151 321t245.5 264t346 179t438.5 66q190 0 341.5 -62.5t247.5 -173.5t140.5 -264.5t29.5 -332.5q-14 -138 -62.5 -259t-124.5 -212t-183.5 -143.5t-232.5 -52.5q-46 0 -87.5 13.5t-80 44t-59 80t-24.5 122.5t23 171q-80 -209 -178 -320t-226 -111 q-111 0 -173 80t-62 246q0 200 69.5 369t194 269t275.5 100q85 0 166 -70l16 70h289l-109 -689q-17 -139 30 -146q60 -9 130 113.5t86 308.5q12 142 -6.5 250t-74 191t-160 126.5t-256.5 43.5q-161 0 -297.5 -48.5t-234.5 -133.5t-167 -199.5t-102.5 -246.5t-33.5 -275 q0 -266 113 -391.5t335 -125.5q188 0 339 48l38 -208q-63 -28 -181 -53t-245 -25q-360 0 -546.5 180t-186.5 536zM958 313q0 -54 31 -54t88.5 69.5t117 187t89.5 234.5q-6 7 -17.5 16t-33.5 18.5t-43 9.5q-89 0 -160.5 -136t-71.5 -345z" />
<glyph unicode="A" horiz-adv-x="1227" d="M-85 0l691 1330h296l270 -1330h-341l-46 279h-396l-134 -279h-340zM507 527h237l-59 369z" />
<glyph unicode="B" horiz-adv-x="1119" d="M50 0l211 1330h434q202 0 310.5 -76t108.5 -226q0 -193 -191 -304h-1q72 -33 119.5 -104.5t47.5 -163.5q0 -198 -162 -327t-414 -129h-463zM412 253h130q89 0 137 46.5t48 128.5q0 65 -35 101t-101 36h-130zM497 792h197q77 70 77 167q0 56 -29.5 87t-86.5 31h-112z" />
<glyph unicode="C" horiz-adv-x="1061" d="M80 485q0 193 56 355t156 274t240 174t304 62q92 0 171 -19t124 -42l-87 -249q-126 37 -241 37q-175 0 -273.5 -145.5t-98.5 -399.5q0 -123 59.5 -201t163.5 -78q144 0 290 68l35 -245q-72 -43 -171 -69.5t-189 -26.5q-256 0 -397.5 136t-141.5 369z" />
<glyph unicode="D" horiz-adv-x="1278" d="M50 0l211 1330h434q268 0 415.5 -144.5t147.5 -396.5q0 -236 -91.5 -414t-264.5 -276.5t-406 -98.5h-446zM412 253h113q175 0 280 143t105 363q0 152 -64.5 235t-179.5 83h-123z" />
<glyph unicode="E" horiz-adv-x="993" d="M50 0l211 1330h812l-43 -268h-490l-41 -262h462l-41 -258h-462l-44 -274h509l-42 -268h-831z" />
<glyph unicode="F" horiz-adv-x="968" d="M50 0l211 1330h812l-43 -268h-490l-44 -277h425l-41 -258h-425l-83 -527h-322z" />
<glyph unicode="G" horiz-adv-x="1174" d="M80 485q0 258 98 454t279.5 303.5t421.5 107.5q101 0 182.5 -19t126.5 -42l-87 -249q-126 37 -255 37q-204 0 -309.5 -142.5t-105.5 -401.5q0 -125 62.5 -202.5t179.5 -77.5q80 0 146 18l40 251h-204l38 243h489l-103 -652q-88 -63 -204.5 -98t-236.5 -35 q-269 0 -413.5 135t-144.5 370z" />
<glyph unicode="H" horiz-adv-x="1314" d="M50 0l211 1330h322l-84 -525h429l84 525h322l-211 -1330h-322l85 537h-429l-85 -537h-322z" />
<glyph unicode="I" horiz-adv-x="563" d="M50 0l211 1330h322l-211 -1330h-322z" />
<glyph unicode="J" horiz-adv-x="731" d="M-55 38l80 250q64 -35 136 -35h4q103 1 121 116l153 961h322l-148 -932q-33 -204 -150.5 -311t-282.5 -107q-155 0 -235 58z" />
<glyph unicode="K" horiz-adv-x="1170" d="M50 0l211 1330h322l-93 -587q119 22 209 107.5t123 209.5q15 56 15 116q0 73 -22 154l321 20q33 -98 33 -190q0 -16 -1 -33q-7 -107 -53 -202t-112.5 -168t-146.5 -120l215 -637h-345l-147 536l-128 -37l-79 -499h-322z" />
<glyph unicode="L" horiz-adv-x="943" d="M50 0l211 1330h322l-169 -1062h499l-42 -268h-821z" />
<glyph unicode="M" horiz-adv-x="1564" d="M50 0l211 1330h416l129 -733l361 733h417l-211 -1330h-318l128 807l-322 -660h-253l-113 660l-128 -807h-317z" />
<glyph unicode="N" horiz-adv-x="1323" d="M50 0l211 1330h332l309 -778l124 778h317l-211 -1330h-332l-310 777l-123 -777h-317z" />
<glyph unicode="O" d="M80 513q0 243 92 433.5t258.5 297t379.5 106.5q163 0 277.5 -69t169.5 -188t55 -277q0 -242 -92 -432.5t-258.5 -297t-379.5 -106.5q-243 0 -372.5 146t-129.5 387zM429 548q0 -143 49 -226.5t155 -83.5q138 0 234 147.5t96 396.5q0 143 -49.5 226.5t-154.5 83.5 q-138 0 -234 -147.5t-96 -396.5z" />
<glyph unicode="P" horiz-adv-x="1069" d="M50 0l211 1330h429q429 0 429 -352q0 -127 -44 -229.5t-119.5 -168t-174.5 -100t-212 -34.5h-126l-71 -446h-322zM482 694h98q100 0 149 63.5t49 168.5q0 69 -31 105.5t-90 36.5h-116z" />
<glyph unicode="Q" d="M80 513q0 243 92 433.5t258.5 297t379.5 106.5q163 0 277.5 -69t169.5 -188t55 -277q0 -231 -84 -415t-234 -292q75 -154 137.5 -210.5t153.5 -56.5q40 0 96 13t88 27l43 -241q-44 -21 -123 -39t-143 -18q-71 0 -123 10t-102 35t-93 72.5t-87.5 119t-93.5 177.5 q-79 -18 -165 -18q-243 0 -372.5 146t-129.5 387zM429 548q0 -143 49 -226.5t155 -83.5q138 0 234 147.5t96 396.5q0 143 -49.5 226.5t-154.5 83.5q-138 0 -234 -147.5t-96 -396.5z" />
<glyph unicode="R" horiz-adv-x="1124" d="M50 0l211 1330h420q448 0 448 -356q0 -279 -281 -437l51 -219q8 -32 25.5 -52.5t43.5 -29t51 -10.5t58 0l-13 -226q-80 -20 -164 -20q-237 0 -284 228l-52 254h-119l-73 -462h-322zM484 710h196q39 21 73 78t34 132q0 72 -36.5 110t-102.5 38h-107z" />
<glyph unicode="S" horiz-adv-x="1002" d="M10 62l98 267q38 -21 129 -43.5t163 -22.5q100 0 143 22t43 69q0 66 -100 131l-118 77q-116 75 -168.5 143.5t-52.5 177.5q0 208 154.5 337.5t388.5 129.5q195 0 352 -77l-96 -263q-147 55 -277 55q-79 0 -123.5 -26t-53.5 -70q-2 -11 -2 -22q0 -27 15 -48q21 -29 68 -61 l145 -100q117 -81 171.5 -151.5t54.5 -168.5q0 -438 -561 -438q-113 0 -220.5 25t-152.5 57z" />
<glyph unicode="T" horiz-adv-x="1041" d="M120 1062l43 268h1008l-43 -268h-343l-168 -1062h-322l168 1062h-343z" />
<glyph unicode="U" horiz-adv-x="1216" d="M102 525l128 805h322l-126 -795q-9 -60 -9 -107q0 -76 25 -120q41 -70 137 -70q192 0 235 274l130 818h322l-128 -805q-40 -256 -204 -400.5t-407 -144.5t-355 142q-81 103 -81 269q0 63 11 134z" />
<glyph unicode="V" horiz-adv-x="1209" d="M130 1330h355l108 -951l411 951h355l-627 -1330h-398z" />
<glyph unicode="W" horiz-adv-x="1698" d="M140 1330h356l25 -881q243 625 333 861h263l60 -861l305 881h356l-513 -1330h-373l-67 677l-281 -677h-371z" />
<glyph unicode="X" horiz-adv-x="1200" d="M-85 0l546 690l-294 640h357l164 -397l291 397h356l-499 -640l328 -690h-358l-196 446l-336 -446h-359z" />
<glyph unicode="Y" horiz-adv-x="1087" d="M105 1330h346l146 -509l309 509h346l-547 -836h1l-78 -494h-322l78 494h1z" />
<glyph unicode="Z" horiz-adv-x="989" d="M-45 0l36 227l652 834h-483l42 268h877l-35 -227l-682 -834h585l-42 -268h-950z" />
<glyph unicode="[" horiz-adv-x="778" d="M90 -279l298 1884h540l-35 -223l-253 -5l-226 -1428h252l-35 -220z" />
<glyph unicode="\" horiz-adv-x="1261" d="M20 1585h316l1065 -1835h-316z" />
<glyph unicode="]" horiz-adv-x="748" d="M-110 -279l35 223l253 5l226 1428h-252l35 220l541 8l-298 -1884h-540z" />
<glyph unicode="^" horiz-adv-x="1176" d="M120 765l438 715h356l212 -715h-340l-99 400l-227 -400h-340z" />
<glyph unicode="_" horiz-adv-x="1414" d="M150 -257l41 257h963l-41 -257h-963z" />
<glyph unicode="`" horiz-adv-x="795" d="M210 1303l166 270l464 -275l-93 -151z" />
<glyph unicode="a" horiz-adv-x="1091" d="M60 306q0 200 69.5 369t194 269t275.5 100q93 0 185 -75l17 75h289l-124 -782q-23 -145 -23 -229q0 -18 1 -33h-307q-5 16 -7.5 32t-2 36t2 36t7.5 41.5t9.5 41.5t14 48t16 49.5t18.5 57t20 59.5q-84 -204 -186 -312.5t-234 -108.5q-111 0 -173 80t-62 246zM389 313 q0 -54 31 -54q33 0 94.5 69.5t125 187t95.5 234.5q-8 7 -21.5 15.5t-40 18.5t-52.5 10q-89 0 -160.5 -136t-71.5 -345z" />
<glyph unicode="b" horiz-adv-x="1094" d="M60 91l178 1114q15 91 15 174q0 42 -4 81l319 20q11 -49 11 -110q0 -67 -13 -148l-38 -241q-5 -34 -16 -74t-21.5 -72t-34 -100t-41.5 -122q85 209 187.5 320t236.5 111q111 0 173 -80t62 -246q0 -203 -71.5 -370t-207 -267.5t-310.5 -100.5q-136 0 -255.5 39.5 t-169.5 71.5zM394 253q46 -23 119 -23q89 0 160.5 136t71.5 345q0 54 -31 54q-33 0 -95.5 -72.5t-127.5 -195.5t-97 -244z" />
<glyph unicode="c" horiz-adv-x="803" d="M60 306q0 84 15.5 169.5t45.5 168.5t79 155t111.5 127t147.5 86.5t182 31.5q109 0 217 -49l-79 -240q-65 26 -137 26q-75 0 -134 -69.5t-89 -176.5t-30 -228q0 -34 9 -49t32 -15q51 0 130 24t138 50l31 -227q-183 -110 -394 -110q-139 0 -207 78.5t-68 247.5z" />
<glyph unicode="d" horiz-adv-x="1091" d="M60 306q0 200 69.5 369t194 269t275.5 100q81 0 157 -53l34 214q15 91 15 174q0 42 -4 81l319 20q11 -49 11 -110q0 -67 -13 -148l-28 -178l-124 -782q-23 -145 -23 -229q0 -18 1 -33h-307q-5 16 -7.5 32t-2 36t2 36t7.5 41.5t9.5 41.5t14 48t16 49.5t18.5 57t20 59.5 q-84 -204 -186 -312.5t-234 -108.5q-111 0 -173 80t-62 246zM389 313q0 -54 31 -54q33 0 94.5 69.5t125 187t95.5 234.5q-8 7 -21.5 15.5t-40 18.5t-52.5 10q-89 0 -160.5 -136t-71.5 -345z" />
<glyph unicode="e" horiz-adv-x="869" d="M60 306q0 128 35 255.5t99.5 236.5t171 177.5t235.5 68.5q138 0 212.5 -64t74.5 -182q1 -77 -35 -141.5t-103.5 -112t-156 -81.5t-197.5 -55q-7 -48 -7 -101q0 -34 9 -49t32 -15q100 0 323 98l31 -227q-64 -44 -191 -89t-258 -45q-139 0 -207 78.5t-68 247.5zM416 574 q82 18 139 73.5t57 114.5q0 44 -38 44q-42 0 -90 -69t-68 -163z" />
<glyph unicode="f" horiz-adv-x="733" d="M50 -396l187 1182h-138l35 218l148 9q-7 41 -7 84q0 177 120 280t336 103q75 0 147 -16t100 -28l-76 -225q-68 24 -173 24q-148 0 -148 -149q0 -24 6 -62h244l-38 -238h-230l-187 -1182h-326z" />
<glyph unicode="g" horiz-adv-x="1115" d="M60 -356l62 231q32 -12 108.5 -25t147.5 -13q114 0 176 40.5t83 122.5q3 14 16.5 81.5t21 99.5t25.5 97.5t40 132.5q-85 -209 -187.5 -320t-236.5 -111q-111 0 -173 80t-62 246q0 200 69.5 369t194 269t275.5 100q93 0 185 -75l17 75h289l-169 -1064q-37 -212 -178 -304 t-393 -92q-103 0 -189 21t-122 39zM410 313q0 -54 31 -54q33 0 94.5 69.5t125 187t95.5 234.5q-8 7 -21.5 15.5t-40 18.5t-52.5 10q-89 0 -160.5 -136t-71.5 -345z" />
<glyph unicode="h" horiz-adv-x="1124" d="M45 0l192 1205q15 91 15 174q0 42 -4 81l319 20q11 -49 11 -110q0 -67 -13 -148l-38 -241q-5 -35 -16 -75t-22.5 -73t-35 -102.5t-42.5 -126.5q196 440 457 440q132 0 180 -94q31 -60 31 -151q0 -51 -10 -111l-68 -426q-23 -145 -23 -229q0 -18 1 -33h-307q-9 21 -13 72 q-1 16 -1 34q0 41 6 94l72 454q2 13 2 24q0 46 -34 46q-23 0 -53 -18t-67 -62t-71.5 -108.5t-67 -168.5t-52.5 -230v2l-22 -139h-326z" />
<glyph unicode="i" horiz-adv-x="539" d="M72 72q-1 16 -1 34q0 41 6 94l132 824h326l-121 -762q-23 -145 -23 -229q0 -18 1 -33h-307q-9 21 -13 72zM241 1312q0 103 60.5 159.5t160.5 56.5q68 0 107 -36.5t39 -103.5q0 -104 -60 -160t-160 -56q-68 0 -107.5 36.5t-39.5 103.5z" />
<glyph unicode="j" horiz-adv-x="539" d="M-273 -367l62 226q71 -22 138 -22q55 0 77.5 24.5t35.5 102.5l169 1060h326l-166 -1062q-32 -204 -136.5 -291t-280.5 -87q-76 0 -139 17t-86 32zM241 1312q0 103 60.5 159.5t160.5 56.5q68 0 107 -36.5t39 -103.5q0 -104 -60 -160t-160 -56q-68 0 -107.5 36.5 t-39.5 103.5z" />
<glyph unicode="k" horiz-adv-x="1025" d="M45 0l194 1205q15 91 15 174q0 42 -4 81l319 20q11 -49 11 -110q0 -67 -13 -148l-98 -616q125 51 192 162q40 66 40 144q0 53 -19 112l341 20q21 -58 25 -115q1 -11 1 -22q0 -43 -11 -83q-14 -48 -38 -92.5t-59 -82.5t-70.5 -68t-75.5 -55l162 -526h-348l-94 407l-82 -33 l-59 -374h-329z" />
<glyph unicode="l" horiz-adv-x="539" d="M72 72q-1 16 -1 34q0 41 6 94l161 1005q15 91 15 174q0 42 -4 81l319 20q11 -49 11 -110q0 -67 -13 -148l-152 -960q-23 -145 -23 -229q0 -18 1 -33h-307q-9 21 -13 72z" />
<glyph unicode="m" horiz-adv-x="1712" d="M45 0l121 762q23 145 23 229q0 18 -1 33h307q7 -21 9.5 -42.5t-1 -50.5t-7 -49.5t-15.5 -61t-19 -62t-25 -75t-26 -79.5q196 440 457 440q96 0 146 -49q53 -51 52 -121q0 -73 -67 -270q196 440 457 440q132 0 180 -94q31 -60 31 -151q0 -51 -10 -111l-68 -426 q-23 -145 -23 -229q0 -18 1 -33h-307q-9 21 -13 72q-1 16 -1 34q0 41 6 94l72 454q2 13 2 24q0 46 -34 46q-23 0 -53 -18t-67 -62t-71.5 -108.5t-67 -168.5t-52.5 -230l-22 -137h-326l31 200l72 454q2 13 2 24q0 46 -34 46q-23 0 -53 -18t-67 -62t-71.5 -108.5t-67 -168.5 t-52.5 -230v1l-22 -138h-326z" />
<glyph unicode="n" horiz-adv-x="1124" d="M45 0l121 762q23 145 23 229q0 18 -1 33h307q7 -21 9.5 -42.5t-1 -50.5t-7 -49.5t-15.5 -61t-19 -62t-25 -75t-26 -79.5q196 440 457 440q132 0 180 -94q31 -60 31 -151q0 -51 -10 -111l-68 -426q-23 -145 -23 -229q0 -18 1 -33h-307q-9 21 -13 72q-1 16 -1 34q0 41 6 94 l72 454q2 13 2 24q0 46 -34 46q-30 0 -69.5 -31t-85 -94.5t-88.5 -184.5t-68 -277l-22 -137h-326z" />
<glyph unicode="o" horiz-adv-x="979" d="M40 331q0 205 71.5 366t208 254t318.5 93q161 0 251 -96t90 -255q0 -205 -71.5 -366.5t-208.5 -254t-318 -92.5q-159 0 -250 96.5t-91 254.5zM369 340q0 -122 63 -122q64 0 115 66.5t77 172t26 228.5q0 121 -64 121t-114.5 -66t-76.5 -172t-26 -228z" />
<glyph unicode="p" horiz-adv-x="1093" d="M-18 -396l61 376l124 782q23 145 23 229q0 18 -1 33h307q5 -16 7.5 -32t2 -36t-2 -36t-7.5 -41.5t-9.5 -41.5t-14 -48t-16 -49.5t-18.5 -57t-20 -59.5q84 205 185.5 313t234.5 108q111 0 173 -80t62 -246q0 -200 -69.5 -369t-194 -269t-275.5 -100q-81 0 -157 53 l-69 -429h-326zM398 274q8 -7 21.5 -15.5t40 -18.5t52.5 -10q89 0 160.5 136t71.5 345q0 54 -31 54q-33 0 -94.5 -69.5t-125 -187t-95.5 -234.5z" />
<glyph unicode="q" horiz-adv-x="1092" d="M60 306q0 203 71.5 370t207 267.5t310.5 100.5q136 0 255.5 -39.5t169.5 -71.5l-213 -1329h-324l69 439q5 34 16 73.5t21.5 71.5t34 100.5t41.5 122.5q-85 -209 -187.5 -320t-236.5 -111q-111 0 -173 80t-62 246zM389 313q0 -54 31 -54q33 0 95.5 72.5t127.5 195.5 t97 244q-46 23 -119 23q-89 0 -160.5 -136t-71.5 -345z" />
<glyph unicode="r" horiz-adv-x="815" d="M45 0l121 762q23 145 23 229q0 18 -1 33h307q7 -21 9.5 -42.5t-1 -50.5t-7 -49.5t-15.5 -61t-19 -62t-25 -75t-26 -79.5q95 214 195.5 327t211.5 113q37 0 67 -15l-64 -372q-39 7 -87 7q-24 0 -48.5 -7t-59 -25t-66.5 -56t-63.5 -93t-58.5 -144.5t-45 -201.5v1l-22 -138 h-326z" />
<glyph unicode="s" horiz-adv-x="767" d="M10 42l63 236q39 -17 110.5 -34.5t138.5 -17.5q50 0 69.5 10t19.5 34q0 25 -34 61.5t-125 120.5q-81 74 -121 140.5t-40 144.5q0 144 100 225.5t290 81.5q84 0 170.5 -18t115.5 -32l-50 -237q-22 9 -97 24t-138 15q-84 0 -84 -46q0 -26 25 -57.5t115 -114.5 q99 -91 139 -158.5t41 -142.5v-6q0 -141 -92 -215q-94 -76 -280 -76q-110 0 -201.5 19.5t-134.5 42.5z" />
<glyph unicode="t" horiz-adv-x="768" d="M50 786l35 218l162 10l66 237l276 19l-39 -246h248l-38 -238h-244l-76 -479q-5 -33 3 -48.5t32 -15.5q28 0 100.5 21.5t120.5 42.5l31 -227q-62 -37 -159 -68.5t-198 -31.5q-267 0 -267 226q0 36 7 78l81 502h-141z" />
<glyph unicode="u" horiz-adv-x="1118" d="M100 336l68 426q23 145 23 229q0 18 -1 33h307q9 -22 13 -72q1 -16 1 -34q0 -41 -6 -94l-72 -454q-2 -13 -2 -24q0 -46 34 -46q29 0 67.5 31t82.5 94.5t85.5 184.5t65.5 277v-1l22 138h326l-121 -762q-23 -145 -23 -229q0 -18 1 -33h-307q-7 21 -9.5 42.5t1 50.5t7 49.5 t15.5 61t19 62t25 75t26 79.5q-191 -440 -447 -440q-132 0 -180 94q-31 60 -31 151q0 51 10 111z" />
<glyph unicode="v" horiz-adv-x="918" d="M95 1024h301q21 -60 28 -190l25 -538q86 93 132.5 237t46.5 298q0 115 -25 193l302 20q33 -66 33 -189q0 -137 -45.5 -274.5t-120 -248t-163 -196.5t-179.5 -136h-254l-48 823q-6 113 -33 201z" />
<glyph unicode="w" horiz-adv-x="1427" d="M95 1024h301q21 -60 28 -190l25 -538q98 91 148.5 223t50.5 292q0 115 -25 193l292 20q33 -66 33 -189q0 -108 -34 -215l34 -324q93 92 141 235.5t48 299.5q0 115 -25 193l302 20q33 -66 33 -189q0 -137 -45.5 -274.5t-120 -248t-163 -196.5t-179.5 -136h-224l-36 247 q-106 -152 -249 -247h-254l-48 823q-6 113 -33 201z" />
<glyph unicode="x" horiz-adv-x="1048" d="M-30 0l406 531l-220 493h341l88 -288l172 288h341l-366 -493l248 -531h-343l-115 324l-209 -324h-343z" />
<glyph unicode="y" horiz-adv-x="958" d="M-185 -356l90 220q19 -10 58 -18.5t72 -8.5q67 0 101 31t47 116q8 52 8 133q0 51 -3 112q-11 190 -28.5 377t-32.5 293.5t-22 124.5h301q7 -27 18.5 -110.5t27 -263t26.5 -394.5q0 -4 0.5 -13t0.5 -14q90 150 139.5 320.5t49.5 330.5q0 86 -19 144l302 20q27 -71 27 -167 q0 -165 -88.5 -378.5t-229 -415.5t-307.5 -368q-119 -131 -330 -131q-121 0 -208 60z" />
<glyph unicode="z" horiz-adv-x="841" d="M-30 111l503 675h-360l38 238h705l-31 -195l-425 -568q22 -22 79 -22q101 0 249 109l69 -246q-153 -122 -314 -122q-89 0 -144.5 47.5t-60.5 119.5l-125 -167z" />
<glyph unicode="{" horiz-adv-x="783" d="M100 -83q0 57 26.5 119.5t64.5 116.5t75.5 104t64 96.5t26.5 79.5q0 129 -177 134l31 195q103 2 163.5 43.5t60.5 114.5q0 44 -28.5 116t-57.5 147.5t-29 128.5q0 158 114.5 245.5t288.5 87.5q55 0 105 -12t75 -27l-62 -202q-52 18 -118 18q-56 0 -90 -33t-34 -73 q0 -41 32 -112t64 -147t32 -127q0 -105 -70 -175.5t-181 -90.5q81 -15 129 -66t48 -130q0 -50 -41.5 -124.5t-90.5 -137t-90.5 -126.5t-41.5 -95q0 -78 94 -78q65 0 124 18l-2 -202q-30 -15 -84 -27t-109 -12q-147 0 -229.5 57t-82.5 176z" />
<glyph unicode="|" horiz-adv-x="608" d="M0 -499l320 2022h288l-320 -2022h-288z" />
<glyph unicode="}" horiz-adv-x="813" d="M-30 -277l62 202q52 -18 118 -18q56 0 90 33t34 73q0 41 -32 112t-64 147t-32 127q0 105 70 175.5t181 90.5q-81 15 -129 66t-48 130q0 50 41 124.5t91 137t91 126.5t41 95q0 78 -94 78q-66 0 -124 -18l2 202q30 15 84 27t109 12q147 0 229.5 -57t82.5 -176 q0 -57 -26.5 -119.5t-64.5 -116.5t-75.5 -104t-64 -96.5t-26.5 -79.5q0 -129 177 -134l-31 -195q-103 -2 -163.5 -43.5t-60.5 -114.5q0 -44 29 -116t57.5 -147.5t28.5 -128.5q0 -158 -114.5 -245.5t-288.5 -87.5q-55 0 -105 12t-75 27z" />
<glyph unicode="~" horiz-adv-x="1198" d="M165 662q69 73 162 117.5t182 44.5q63 0 155.5 -32.5t142.5 -32.5q78 0 205 74l51 -165q-69 -73 -162 -117.5t-182 -44.5q-63 0 -156.5 32.5t-143.5 32.5q-81 0 -203 -74z" />
<glyph unicode="&#xa1;" horiz-adv-x="623" d="M30 -306l190 884h248l-90 -884h-348zM206 828q0 103 60.5 159.5t160.5 56.5q68 0 107 -36.5t39 -103.5q0 -104 -60 -160t-160 -56q-68 0 -107.5 36.5t-39.5 103.5z" />
<glyph unicode="&#xa2;" horiz-adv-x="1025" d="M100 574q0 239 144.5 407t382.5 206l13 230h260l-59 -226q121 -18 196 -68l-94 -235q-108 51 -201 51q-136 0 -220 -84.5t-84 -242.5q0 -110 57 -165.5t161 -55.5q43 0 94 11.5t79.5 21.5t47.5 19l28 -231q-94 -53 -222 -71l-13 -229h-260l59 228q-174 26 -271.5 142.5 t-97.5 291.5z" />
<glyph unicode="&#xa3;" horiz-adv-x="1159" d="M60 185q30 18 78 35.5t85 24.5q38 107 57 220q11 74 12 142h-169l23 143h147q0 98 13 181q31 197 169 308t363 111q161 0 286 -78l-97 -237q-117 52 -227 52q-148 0 -171 -142q-13 -80 -13 -195h317l-23 -143h-296q-2 -62 -12 -128q-18 -113 -63 -227q114 -19 172 -19 q73 -1 107.5 30t64.5 100l200 -53q-71 -330 -393 -330q-75 0 -191.5 18.5t-162.5 21.5q-44 -35 -86 -50l-162 28z" />
<glyph unicode="&#xa4;" horiz-adv-x="1328" d="M20 203l226 217q-47 83 -47 190q0 179 121 316l-152 211l173 127l175 -201q113 46 238 46q123 0 219 -49l242 204l133 -127l-226 -219q47 -86 47 -188q0 -176 -118 -313l149 -214l-173 -127l-175 200q-110 -46 -238 -46q-123 0 -219 49l-242 -203zM481 634 q0 -80 45 -129.5t124 -49.5q103 0 170.5 71.5t67.5 179.5q0 79 -45.5 128.5t-124.5 49.5q-103 0 -170 -71.5t-67 -178.5z" />
<glyph unicode="&#xa5;" horiz-adv-x="1252" d="M180 1330h336l165 -497l1 -2l324 499h336l-320 -461h119l-23 -143h-905l23 143h117zM196 462l23 143h855l-23 -143h-264l-73 -462h-328l73 462h-263z" />
<glyph unicode="&#xa6;" horiz-adv-x="608" d="M0 -499l131 829h288l-131 -829h-288zM189 694l131 829h288l-131 -829h-288z" />
<glyph unicode="&#xa7;" horiz-adv-x="1082" d="M-55 -333l99 242q124 -44 228 -55q47 62 47 155.5t-38 225.5l-96 357q-34 123 -47.5 189t-13.5 136q0 256 183 409.5t486 153.5q112 0 211 -25.5t163 -57.5l-98 -242q-125 44 -229 55q-47 -62 -47.5 -155.5t38.5 -225.5l97 -357q23 -87 33 -127t18.5 -94.5t8.5 -103.5 q0 -256 -182.5 -409.5t-486.5 -153.5q-112 0 -211 25.5t-163 57.5zM406 958q0 -108 62 -334l108 -401q20 -73 24 -131t-7.5 -100t-29.5 -71t-46 -55q189 48 189 240q0 106 -61 334l-109 401q-20 72 -23.5 130.5t7.5 100.5t29.5 71t46.5 55q-190 -48 -190 -240z" />
<glyph unicode="&#xa8;" horiz-adv-x="963" d="M190 1312q0 103 60.5 159.5t160.5 56.5q68 0 107 -36.5t39 -103.5q0 -104 -60 -160t-160 -56q-68 0 -107.5 36.5t-39.5 103.5zM646 1312q0 103 60.5 159.5t160.5 56.5q68 0 107 -36.5t39 -103.5q0 -104 -60 -160t-160 -56q-68 0 -107.5 36.5t-39.5 103.5z" />
<glyph unicode="&#xa9;" horiz-adv-x="1517" d="M100 577q0 153 67.5 296.5t177.5 247.5t257 166.5t300 62.5q167 0 301.5 -79.5t209 -216t74.5 -301.5q0 -153 -67.5 -297t-178 -247.5t-257 -166t-299.5 -62.5q-168 0 -302.5 79.5t-208.5 216t-74 301.5zM275 598q0 -189 123.5 -317t313.5 -128q115 0 225 46.5 t192.5 124.5t132.5 185.5t50 222.5q0 189 -123.5 317t-314.5 128q-115 0 -224.5 -46.5t-192 -124.5t-132.5 -185.5t-50 -222.5zM425 594q0 198 120.5 324t319.5 126q129 0 210 -52l-73 -186q-72 31 -139 31q-98 0 -139 -56t-41 -164q0 -64 27.5 -94t89.5 -30q76 0 160 31 l22 -182q-103 -56 -251 -56q-145 0 -225.5 84t-80.5 224z" />
<glyph unicode="&#xaa;" horiz-adv-x="647" d="M170 920q0 184 93.5 307t236.5 123q67 0 130 -48l21 38h196l-19 -110l-56 -351q-14 -87 -10 -136h-211q-13 40 -1 116q-94 -127 -217 -127q-163 0 -163 188zM409 957q0 -37 15 -37q29 0 75 70.5t73 162.5q-23 17 -51 17q-34 0 -61 -37.5t-39 -85t-12 -90.5z" />
<glyph unicode="&#xab;" horiz-adv-x="1320" d="M120 512q242 206 518 510l189 -156q-126 -149 -367 -354q177 -205 255 -354l-239 -156q-179 305 -356 510zM629 512q221 189 482 470l189 -156q-156 -179 -331 -314q132 -135 231 -314l-238 -156q-162 266 -333 470z" />
<glyph unicode="&#xac;" horiz-adv-x="1359" d="M195 536l41 257h958l-82 -513h-257l41 256h-701z" />
<glyph unicode="&#xad;" horiz-adv-x="912" d="M190 404l41 257h661l-41 -257h-661z" />
<glyph unicode="&#xae;" horiz-adv-x="1517" d="M100 577q0 153 67.5 296.5t177.5 247.5t257 166.5t300 62.5q167 0 301.5 -79.5t209 -216t74.5 -301.5q0 -153 -67.5 -297t-178 -247.5t-257 -166t-299.5 -62.5q-168 0 -302.5 79.5t-208.5 216t-74 301.5zM275 598q0 -189 123.5 -317t313.5 -128q115 0 225 46.5 t192.5 124.5t132.5 185.5t50 222.5q0 189 -123.5 317t-314.5 128q-115 0 -224.5 -46.5t-192 -124.5t-132.5 -185.5t-50 -222.5zM454 329l107 672h307q117 0 184 -50t67 -143q0 -71 -36 -128t-96 -93l81 -258h-266l-36 208h-50l-33 -208h-229zM739 683h19q108 0 108 95 q0 61 -73 61h-29z" />
<glyph unicode="&#xaf;" horiz-adv-x="880" d="M220 1232l38 237h662l-38 -237h-662z" />
<glyph unicode="&#xb0;" horiz-adv-x="607" d="M197 1045q0 124 94 214.5t233 90.5q104 0 166.5 -65.5t62.5 -160.5q0 -125 -93 -215t-233 -90q-104 0 -167 65.5t-63 160.5zM405 1075q0 -29 16 -47.5t46 -18.5q33 0 55 25t22 60q0 29 -15.5 47t-45.5 18q-33 0 -55.5 -25t-22.5 -59z" />
<glyph unicode="&#xb1;" horiz-adv-x="1291" d="M130 20l38 237h870l-38 -237h-870zM244 737l37 237h317l49 306h237l-49 -306h316l-37 -237h-317l-51 -325h-237l51 325h-316z" />
<glyph unicode="&#xb2;" horiz-adv-x="529" d="M141 751l28 176q162 79 198 103q61 41 61 84q0 41 -43 41q-66 0 -143 -34l-17 173q26 18 94.5 37t136.5 19q110 0 164.5 -46.5t54.5 -124.5q0 -88 -60 -145t-172 -97h214l-29 -186h-487z" />
<glyph unicode="&#xb3;" horiz-adv-x="518" d="M142 769l61 157q59 -25 131 -25q46 0 66 11t20 36q0 32 -48 32h-101l20 124h118q21 19 21 39q0 37 -63 37q-66 0 -122 -26l-12 154q24 14 81 28t123 14q116 0 174 -39t58 -110q0 -40 -18 -72t-34.5 -45.5t-40.5 -27.5q70 -39 70 -117q0 -101 -82.5 -154.5t-234.5 -53.5 q-53 0 -110.5 12.5t-76.5 25.5z" />
<glyph unicode="&#xb4;" horiz-adv-x="750" d="M190 1298l550 275l80 -270l-585 -156z" />
<glyph unicode="&#xb6;" horiz-adv-x="1400" d="M170 825q0 249 165.5 377t452.5 128h622l-43 -268h-160l-232 -1458l-328 1l232 1457h-134l-97 -616q-226 0 -352 97.5t-126 281.5z" />
<glyph unicode="&#xb7;" horiz-adv-x="537" d="M90 475q0 103 60.5 159.5t160.5 56.5q68 0 107 -36.5t39 -103.5q0 -104 -60 -160t-160 -56q-68 0 -107.5 36.5t-39.5 103.5z" />
<glyph unicode="&#xb8;" horiz-adv-x="526" d="M-110 -561l44 154q34 -10 72 -10q56 0 88 21.5t32 64.5q0 58 -95 58h-53l37 167h127q104 0 169 -49t65 -145q0 -76 -28.5 -132t-79 -87.5t-112.5 -46.5t-136 -15q-90 0 -130 20z" />
<glyph unicode="&#xb9;" horiz-adv-x="566" d="M148 751l29 182l151 4l32 202q-64 -11 -138 -17l10 185q111 14 279 43h115l-66 -413l129 -4l-29 -182h-512z" />
<glyph unicode="&#xba;" horiz-adv-x="673" d="M190 991q0 153 102.5 256t264.5 103q118 0 187 -73.5t69 -186.5q0 -154 -102 -256.5t-265 -102.5q-118 0 -187 73.5t-69 186.5zM433 1009q0 -81 53 -81q82 0 82 145q0 79 -53 79q-82 0 -82 -143z" />
<glyph unicode="&#xbb;" horiz-adv-x="1340" d="M60 199q156 179 331 314q-132 135 -231 314l238 156q162 -266 333 -470q-221 -189 -482 -470zM533 159q126 149 367 354q-177 205 -255 354l239 156q179 -305 356 -510q-242 -206 -518 -510z" />
<glyph unicode="&#xbf;" horiz-adv-x="822" d="M-10 -62q0 38 8.5 74t20 64t35 59.5t40.5 51.5t51 50t52 44.5t57.5 45t54.5 42.5q75 60 105.5 106.5t33.5 101.5l234 17q20 -93 -19.5 -180t-156.5 -191q-16 -14 -55 -47.5t-52.5 -46.5t-35.5 -36t-29.5 -40t-7.5 -33q0 -46 34.5 -67t119.5 -21q99 0 225 28l-12 -247 q-38 -12 -127.5 -25.5t-189.5 -13.5q-187 0 -286.5 73.5t-99.5 190.5zM405 821v7q0 49 13 85l6 16l8 15q2 4 4 7q5 10 19 26q13 14 24 22q12 11 27 18q9 5 22 10l8 3l17 5q15 4 26 5q14 3 28 3q6 1 19 1h6q23 -1 43 -6l11 -3l11 -4q7 -3 14 -8q15 -8 28 -23q6 -6 16 -22 l2 -4l4 -10q8 -22 9 -34q2 -16 2 -26q0 -45 -13 -86l-3 -8l-7 -16l-3.5 -7t-4.5 -7l-9 -14l-21 -23l-6 -6q-10 -8 -20 -14q-12 -9 -21 -12q-5 -3 -15 -7q-8 -3 -24 -7q-6 -2 -9 -2q-5 -2 -17 -4q-1 0 -4 -0.5t-5 -0.5q-3 -1 -10 -1q-9 -1 -28 -1h-7q-3 0 -9.5 0.5t-9.5 0.5 q-1 0 -3 0.5t-3 0.5q-2 1 -6 1q-2 1 -6 1l-17 5q-3 0 -5 2q-3 0 -5 2q-4 1 -10 5q-30 16 -46 42q-4 6 -5 10l-5 10l-4 11q-6 19 -6 42z" />
<glyph unicode="&#xc0;" horiz-adv-x="1227" d="M-85 0l691 1330h296l270 -1330h-341l-46 279h-396l-134 -279h-340zM469 1603l166 270l464 -275l-93 -151zM507 527h237l-59 369z" />
<glyph unicode="&#xc1;" horiz-adv-x="1227" d="M-85 0l691 1330h296l270 -1330h-341l-46 279h-396l-134 -279h-340zM500 1598l550 275l80 -270l-585 -156zM507 527h237l-59 369z" />
<glyph unicode="&#xc2;" horiz-adv-x="1227" d="M-85 0l691 1330h296l270 -1330h-341l-46 279h-396l-134 -279h-340zM427 1615q234 142 417 260q162 -129 335 -260l-189 -190q-94 81 -188 185q-120 -99 -246 -185zM507 527h237l-59 369z" />
<glyph unicode="&#xc3;" horiz-adv-x="1227" d="M-85 0l691 1330h296l270 -1330h-341l-46 279h-396l-134 -279h-340zM402 1590q21 50 59 99t104.5 90t140.5 41q44 0 90 -19.5t83.5 -39t62.5 -19.5q20 0 41.5 12.5t34.5 24.5t52 50l138 -110q-42 -93 -125 -161t-195 -68q-45 0 -118.5 39t-104.5 39q-20 0 -41 -12 t-34 -24.5t-50 -50.5zM507 527h237l-59 369z" />
<glyph unicode="&#xc4;" horiz-adv-x="1227" d="M-85 0l691 1330h296l270 -1330h-341l-46 279h-396l-134 -279h-340zM392 1612q0 103 60.5 159.5t160.5 56.5q68 0 107 -36.5t39 -103.5q0 -104 -60 -160t-160 -56q-68 0 -107.5 36.5t-39.5 103.5zM507 527h237l-59 369zM848 1612q0 103 60.5 159.5t160.5 56.5 q68 0 107 -36.5t39 -103.5q0 -104 -60 -160t-160 -56q-68 0 -107.5 36.5t-39.5 103.5z" />
<glyph unicode="&#xc5;" horiz-adv-x="1227" d="M-85 0l691 1330h296l270 -1330h-341l-46 279h-396l-134 -279h-340zM507 527h237l-59 369zM536 1602q0 138 86.5 212t229.5 74q101 0 159 -49.5t58 -140.5q0 -139 -86 -212.5t-229 -73.5q-101 0 -159.5 49.5t-58.5 140.5zM735 1636q0 -25 14.5 -38.5t39.5 -13.5 q37 0 59 21t22 59q0 52 -54 52q-37 0 -59 -21t-22 -59z" />
<glyph unicode="&#xc6;" horiz-adv-x="1809" d="M-105 0l1172 1330h822l-43 -268h-470l-41 -262h442l-41 -258h-442l-44 -274h489l-42 -268h-811l44 279h-442l-244 -279h-349zM704 527h265l59 370z" />
<glyph unicode="&#xc7;" horiz-adv-x="1061" d="M80 485q0 193 56 355t156 274t240 174t304 62q92 0 171 -19t124 -42l-87 -249q-126 37 -241 37q-175 0 -273.5 -145.5t-98.5 -399.5q0 -123 59.5 -201t163.5 -78q144 0 290 68l35 -245q-72 -43 -171 -69.5t-189 -26.5q-256 0 -397.5 136t-141.5 369zM250 -561l44 154 q34 -10 72 -10q56 0 88 21.5t32 64.5q0 58 -95 58h-53l37 167h127q104 0 169 -49t65 -145q0 -76 -28.5 -132t-79 -87.5t-112.5 -46.5t-136 -15q-90 0 -130 20z" />
<glyph unicode="&#xc8;" horiz-adv-x="993" d="M50 0l211 1330h812l-43 -268h-490l-41 -262h462l-41 -258h-462l-44 -274h509l-42 -268h-831zM334 1603l166 270l464 -275l-93 -151z" />
<glyph unicode="&#xc9;" horiz-adv-x="993" d="M50 0l211 1330h812l-43 -268h-490l-41 -262h462l-41 -258h-462l-44 -274h509l-42 -268h-831zM444 1598l550 275l80 -270l-585 -156z" />
<glyph unicode="&#xca;" horiz-adv-x="993" d="M50 0l211 1330h812l-43 -268h-490l-41 -262h462l-41 -258h-462l-44 -274h509l-42 -268h-831zM313 1615q234 142 417 260q162 -129 335 -260l-189 -190q-94 81 -188 185q-120 -99 -246 -185z" />
<glyph unicode="&#xcb;" horiz-adv-x="993" d="M50 0l211 1330h812l-43 -268h-490l-41 -262h462l-41 -258h-462l-44 -274h509l-42 -268h-831zM282 1612q0 103 60.5 159.5t160.5 56.5q68 0 107 -36.5t39 -103.5q0 -104 -60 -160t-160 -56q-68 0 -107.5 36.5t-39.5 103.5zM738 1612q0 103 60.5 159.5t160.5 56.5 q68 0 107 -36.5t39 -103.5q0 -104 -60 -160t-160 -56q-68 0 -107.5 36.5t-39.5 103.5z" />
<glyph unicode="&#xcc;" horiz-adv-x="563" d="M48 0l211 1330h322l-211 -1330h-322zM69 1603l166 270l464 -275l-93 -151z" />
<glyph unicode="&#xcd;" horiz-adv-x="563" d="M48 0l211 1330h322l-211 -1330h-322zM189 1598l550 275l80 -270l-585 -156z" />
<glyph unicode="&#xce;" horiz-adv-x="563" d="M48 0l211 1330h322l-211 -1330h-322zM88 1615q234 142 417 260q162 -129 335 -260l-189 -190q-94 81 -188 185q-120 -99 -246 -185z" />
<glyph unicode="&#xcf;" horiz-adv-x="563" d="M48 0l211 1330h322l-211 -1330h-322zM67 1612q0 103 60.5 159.5t160.5 56.5q68 0 107 -36.5t39 -103.5q0 -104 -60 -160t-160 -56q-68 0 -107.5 36.5t-39.5 103.5zM483 1612q0 103 60.5 159.5t160.5 56.5q68 0 107 -36.5t39 -103.5q0 -104 -60 -160t-160 -56 q-68 0 -107.5 36.5t-39.5 103.5z" />
<glyph unicode="&#xd0;" horiz-adv-x="1317" d="M30 595l23 143h153l94 592h434q268 0 415.5 -144.5t147.5 -396.5q0 -236 -91.5 -414t-264.5 -276.5t-406 -98.5h-446l94 595h-153zM451 253h113q175 0 280 143t105 363q0 152 -64.5 235t-179.5 83h-123l-54 -339h203l-23 -143h-203z" />
<glyph unicode="&#xd1;" horiz-adv-x="1323" d="M50 0l211 1330h332l309 -778l124 778h317l-211 -1330h-332l-310 777l-123 -777h-317zM434 1590q21 50 59 99t104.5 90t140.5 41q44 0 90 -19.5t83.5 -39t62.5 -19.5q20 0 41.5 12.5t34.5 24.5t52 50l138 -110q-42 -93 -125 -161t-195 -68q-45 0 -118.5 39t-104.5 39 q-20 0 -41 -12t-34 -24.5t-50 -50.5z" />
<glyph unicode="&#xd2;" d="M80 513q0 243 92 433.5t258.5 297t379.5 106.5q163 0 277.5 -69t169.5 -188t55 -277q0 -242 -92 -432.5t-258.5 -297t-379.5 -106.5q-243 0 -372.5 146t-129.5 387zM429 548q0 -143 49 -226.5t155 -83.5q138 0 234 147.5t96 396.5q0 143 -49.5 226.5t-154.5 83.5 q-138 0 -234 -147.5t-96 -396.5zM478 1603l166 270l464 -275l-93 -151z" />
<glyph unicode="&#xd3;" d="M80 513q0 243 92 433.5t258.5 297t379.5 106.5q163 0 277.5 -69t169.5 -188t55 -277q0 -242 -92 -432.5t-258.5 -297t-379.5 -106.5q-243 0 -372.5 146t-129.5 387zM429 548q0 -143 49 -226.5t155 -83.5q138 0 234 147.5t96 396.5q0 143 -49.5 226.5t-154.5 83.5 q-138 0 -234 -147.5t-96 -396.5zM568 1598l550 275l80 -270l-585 -156z" />
<glyph unicode="&#xd4;" d="M80 513q0 243 92 433.5t258.5 297t379.5 106.5q163 0 277.5 -69t169.5 -188t55 -277q0 -242 -92 -432.5t-258.5 -297t-379.5 -106.5q-243 0 -372.5 146t-129.5 387zM429 548q0 -143 49 -226.5t155 -83.5q138 0 234 147.5t96 396.5q0 143 -49.5 226.5t-154.5 83.5 q-138 0 -234 -147.5t-96 -396.5zM477 1615q234 142 417 260q162 -129 335 -260l-189 -190q-94 81 -188 185q-120 -99 -246 -185z" />
<glyph unicode="&#xd5;" d="M80 513q0 243 92 433.5t258.5 297t379.5 106.5q163 0 277.5 -69t169.5 -188t55 -277q0 -242 -92 -432.5t-258.5 -297t-379.5 -106.5q-243 0 -372.5 146t-129.5 387zM429 548q0 -143 49 -226.5t155 -83.5q138 0 234 147.5t96 396.5q0 143 -49.5 226.5t-154.5 83.5 q-138 0 -234 -147.5t-96 -396.5zM449 1590q21 50 59 99t104.5 90t140.5 41q44 0 90 -19.5t83.5 -39t62.5 -19.5q20 0 41.5 12.5t34.5 24.5t52 50l138 -110q-42 -93 -125 -161t-195 -68q-45 0 -118.5 39t-104.5 39q-20 0 -41 -12t-34 -24.5t-50 -50.5z" />
<glyph unicode="&#xd6;" d="M80 513q0 243 92 433.5t258.5 297t379.5 106.5q163 0 277.5 -69t169.5 -188t55 -277q0 -242 -92 -432.5t-258.5 -297t-379.5 -106.5q-243 0 -372.5 146t-129.5 387zM429 548q0 -143 49 -226.5t155 -83.5q138 0 234 147.5t96 396.5q0 143 -49.5 226.5t-154.5 83.5 q-138 0 -234 -147.5t-96 -396.5zM441 1612q0 103 60.5 159.5t160.5 56.5q68 0 107 -36.5t39 -103.5q0 -104 -60 -160t-160 -56q-68 0 -107.5 36.5t-39.5 103.5zM897 1612q0 103 60.5 159.5t160.5 56.5q68 0 107 -36.5t39 -103.5q0 -104 -60 -160t-160 -56q-68 0 -107.5 36.5 t-39.5 103.5z" />
<glyph unicode="&#xd7;" horiz-adv-x="1287" d="M170 391l317 274l-229 273l210 182l230 -273l316 273l153 -182l-316 -273l229 -272l-211 -182l-229 272l-317 -273z" />
<glyph unicode="&#xd8;" d="M80 513q0 243 92 433.5t258.5 297t379.5 106.5q117 0 211 -37l113 178l127 -69l-116 -182q167 -143 167 -424q0 -242 -92 -432.5t-258.5 -297t-379.5 -106.5q-117 0 -212 36l-112 -177l-127 69l115 182q-166 141 -166 423zM429 548q0 -84 16 -145l417 659q-44 30 -103 30 q-138 0 -234 -147.5t-96 -396.5zM529 267q43 -29 104 -29q138 0 234 147.5t96 396.5q0 83 -16 144z" />
<glyph unicode="&#xd9;" horiz-adv-x="1216" d="M102 525l128 805h322l-126 -795q-25 -158 16 -227.5t137 -69.5q192 0 235 274l130 818h322l-128 -805q-40 -256 -204 -400.5t-407 -144.5t-355 141.5t-70 403.5zM370 1603l166 270l464 -275l-93 -151z" />
<glyph unicode="&#xda;" horiz-adv-x="1216" d="M102 525l128 805h322l-126 -795q-25 -158 16 -227.5t137 -69.5q192 0 235 274l130 818h322l-128 -805q-40 -256 -204 -400.5t-407 -144.5t-355 141.5t-70 403.5zM540 1598l550 275l80 -270l-585 -156z" />
<glyph unicode="&#xdb;" horiz-adv-x="1216" d="M102 525l128 805h322l-126 -795q-25 -158 16 -227.5t137 -69.5q192 0 235 274l130 818h322l-128 -805q-40 -256 -204 -400.5t-407 -144.5t-355 141.5t-70 403.5zM430 1615q234 142 417 260q162 -129 335 -260l-189 -190q-94 81 -188 185q-120 -99 -246 -185z" />
<glyph unicode="&#xdc;" horiz-adv-x="1216" d="M102 525l128 805h322l-126 -795q-25 -158 16 -227.5t137 -69.5q192 0 235 274l130 818h322l-128 -805q-40 -256 -204 -400.5t-407 -144.5t-355 141.5t-70 403.5zM379 1612q0 103 60.5 159.5t160.5 56.5q68 0 107 -36.5t39 -103.5q0 -104 -60 -160t-160 -56 q-68 0 -107.5 36.5t-39.5 103.5zM835 1612q0 103 60.5 159.5t160.5 56.5q68 0 107 -36.5t39 -103.5q0 -104 -60 -160t-160 -56q-68 0 -107.5 36.5t-39.5 103.5z" />
<glyph unicode="&#xdd;" horiz-adv-x="1087" d="M105 1330h346l146 -509l309 509h346l-547 -836h1l-78 -494h-322l78 494h1zM411 1598l550 275l80 -270l-585 -156z" />
<glyph unicode="&#xde;" horiz-adv-x="1064" d="M50 0l211 1330h322l-35 -222h108q429 0 429 -352q0 -127 -44 -229.5t-119.5 -168t-174.5 -100t-212 -34.5h-128l-35 -224h-322zM447 472h99q100 0 149 63.5t49 168.5q0 69 -31 105.5t-90 36.5h-117z" />
<glyph unicode="&#xdf;" horiz-adv-x="1245" d="M-13 -396l228 1439q15 91 59 169t117 138.5t181.5 95t241.5 34.5q198 0 304.5 -89.5t106.5 -221.5q0 -22 -4 -44t-8 -39.5t-15 -38t-18 -33.5t-23.5 -32.5t-24 -28.5t-28 -28.5t-27 -25.5t-30 -26t-27.5 -24q-57 -52 -77.5 -77.5t-20.5 -54.5q0 -7 2 -14t6.5 -15t9 -14.5 t13.5 -16t15.5 -15.5t18.5 -17t19.5 -17t22.5 -18.5t23 -19.5q74 -62 112 -117t38 -132q0 -155 -124 -248t-333 -93q-178 0 -271 65l81 236q100 -53 198 -53q62 0 90 13.5t28 46.5q0 9 -3.5 18t-11 19t-15 18.5t-21.5 20.5t-24.5 20t-29 23t-29.5 24q-45 38 -69 63.5 t-43 66.5t-19 90q0 45 10.5 83t34 72.5t44 58t55.5 58.5q12 12 39.5 38t40.5 39.5t30 35t24 42t7 42.5q0 46 -35.5 76.5t-99.5 30.5q-83 0 -142 -54t-73 -146l-226 -1423h-328z" />
<glyph unicode="&#xe0;" horiz-adv-x="1091" d="M60 306q0 200 69.5 369t194 269t275.5 100q93 0 185 -75l17 75h289l-124 -782q-28 -176 -22 -262h-307q-5 16 -7.5 32t-2 36t2 36t7.5 41.5t9.5 41.5t14 48t16 49.5t18.5 57t20 59.5q-84 -204 -186 -312.5t-234 -108.5q-111 0 -173 80t-62 246zM345 1303l166 270 l464 -275l-93 -151zM389 313q0 -54 31 -54q33 0 94.5 69.5t125 187t95.5 234.5q-8 7 -21.5 15.5t-40 18.5t-52.5 10q-89 0 -160.5 -136t-71.5 -345z" />
<glyph unicode="&#xe1;" horiz-adv-x="1091" d="M60 306q0 200 69.5 369t194 269t275.5 100q93 0 185 -75l17 75h289l-124 -782q-28 -176 -22 -262h-307q-5 16 -7.5 32t-2 36t2 36t7.5 41.5t9.5 41.5t14 48t16 49.5t18.5 57t20 59.5q-84 -204 -186 -312.5t-234 -108.5q-111 0 -173 80t-62 246zM389 313q0 -54 31 -54 q33 0 94.5 69.5t125 187t95.5 234.5q-8 7 -21.5 15.5t-40 18.5t-52.5 10q-89 0 -160.5 -136t-71.5 -345zM472 1298l550 275l80 -270l-585 -156z" />
<glyph unicode="&#xe2;" horiz-adv-x="1091" d="M60 306q0 200 69.5 369t194 269t275.5 100q93 0 185 -75l17 75h289l-124 -782q-28 -176 -22 -262h-307q-5 16 -7.5 32t-2 36t2 36t7.5 41.5t9.5 41.5t14 48t16 49.5t18.5 57t20 59.5q-84 -204 -186 -312.5t-234 -108.5q-111 0 -173 80t-62 246zM304 1315q234 142 417 260 q162 -129 335 -260l-189 -190q-94 81 -188 185q-120 -99 -246 -185zM389 313q0 -54 31 -54q33 0 94.5 69.5t125 187t95.5 234.5q-8 7 -21.5 15.5t-40 18.5t-52.5 10q-89 0 -160.5 -136t-71.5 -345z" />
<glyph unicode="&#xe3;" horiz-adv-x="1091" d="M60 306q0 200 69.5 369t194 269t275.5 100q93 0 185 -75l17 75h289l-124 -782q-28 -176 -22 -262h-307q-5 16 -7.5 32t-2 36t2 36t7.5 41.5t9.5 41.5t14 48t16 49.5t18.5 57t20 59.5q-84 -204 -186 -312.5t-234 -108.5q-111 0 -173 80t-62 246zM277 1290q21 50 59 99 t104.5 90t140.5 41q44 0 90 -19.5t83.5 -39t62.5 -19.5q20 0 41.5 12.5t34.5 24.5t52 50l138 -110q-42 -93 -125 -161t-195 -68q-45 0 -118.5 39t-104.5 39q-20 0 -41 -12t-34 -24.5t-50 -50.5zM389 313q0 -54 31 -54q33 0 94.5 69.5t125 187t95.5 234.5q-8 7 -21.5 15.5 t-40 18.5t-52.5 10q-89 0 -160.5 -136t-71.5 -345z" />
<glyph unicode="&#xe4;" horiz-adv-x="1091" d="M60 306q0 200 69.5 369t194 269t275.5 100q93 0 185 -75l17 75h289l-124 -782q-28 -176 -22 -262h-307q-5 16 -7.5 32t-2 36t2 36t7.5 41.5t9.5 41.5t14 48t16 49.5t18.5 57t20 59.5q-84 -204 -186 -312.5t-234 -108.5q-111 0 -173 80t-62 246zM269 1312 q0 103 60.5 159.5t160.5 56.5q68 0 107 -36.5t39 -103.5q0 -104 -60 -160t-160 -56q-68 0 -107.5 36.5t-39.5 103.5zM389 313q0 -54 31 -54q33 0 94.5 69.5t125 187t95.5 234.5q-8 7 -21.5 15.5t-40 18.5t-52.5 10q-89 0 -160.5 -136t-71.5 -345zM725 1312q0 103 60.5 159.5 t160.5 56.5q68 0 107 -36.5t39 -103.5q0 -104 -60 -160t-160 -56q-68 0 -107.5 36.5t-39.5 103.5z" />
<glyph unicode="&#xe5;" horiz-adv-x="1091" d="M60 306q0 200 69.5 369t194 269t275.5 100q93 0 185 -75l17 75h289l-124 -782q-28 -176 -22 -262h-307q-5 16 -7.5 32t-2 36t2 36t7.5 41.5t9.5 41.5t14 48t16 49.5t18.5 57t20 59.5q-84 -204 -186 -312.5t-234 -108.5q-111 0 -173 80t-62 246zM389 313q0 -54 31 -54 q33 0 94.5 69.5t125 187t95.5 234.5q-8 7 -21.5 15.5t-40 18.5t-52.5 10q-89 0 -160.5 -136t-71.5 -345zM404 1302q0 138 86.5 212t229.5 74q101 0 159 -49.5t58 -140.5q0 -139 -86 -212.5t-229 -73.5q-101 0 -159.5 49.5t-58.5 140.5zM603 1336q0 -25 14.5 -38.5 t39.5 -13.5q37 0 59 21t22 59q0 52 -54 52q-37 0 -59 -21t-22 -59z" />
<glyph unicode="&#xe6;" horiz-adv-x="1301" d="M0 215q0 304 528 352q17 64 42 122q-1 48 -31.5 70t-97.5 22q-124 0 -257 -62l-22 230q69 36 171 65.5t192 29.5q155 0 240 -91q118 91 268 91q138 0 212.5 -64t74.5 -182q2 -97 -63.5 -173t-173 -122.5t-255.5 -74.5q-7 -56 -7 -121q0 -34 9 -49t32 -15q100 0 323 98 l31 -227q-64 -44 -191 -89t-258 -45q-150 0 -217 90q-143 -90 -268 -90q-133 0 -207.5 58t-74.5 177zM311 280q0 -34 20 -52t52 -18q50 0 112 26q-3 33 -3 70q0 53 6 107q-83 -10 -135 -43.5t-52 -89.5zM848 594q82 16 139 66t57 102q0 44 -38 44q-42 0 -90 -63t-68 -149z " />
<glyph unicode="&#xe7;" horiz-adv-x="803" d="M58 -561l44 154q34 -10 72 -10q56 0 88 21.5t32 64.5q0 58 -95 58h-53l37 167h127q104 0 169 -49t65 -145q0 -76 -28.5 -132t-79 -87.5t-112.5 -46.5t-136 -15q-90 0 -130 20zM60 306q0 84 15.5 169.5t45.5 168.5t79 155t111.5 127t147.5 86.5t182 31.5q109 0 217 -49 l-79 -240q-65 26 -137 26q-75 0 -134 -69.5t-89 -176.5t-30 -228q0 -34 9 -49t32 -15q51 0 130 24t138 50l31 -227q-183 -110 -394 -110q-139 0 -207 78.5t-68 247.5z" />
<glyph unicode="&#xe8;" horiz-adv-x="869" d="M60 306q0 128 35 255.5t99.5 236.5t171 177.5t235.5 68.5q138 0 212.5 -64t74.5 -182q1 -77 -35 -141.5t-103.5 -112t-156 -81.5t-197.5 -55q-7 -48 -7 -101q0 -34 9 -49t32 -15q100 0 323 98l31 -227q-64 -44 -191 -89t-258 -45q-139 0 -207 78.5t-68 247.5zM324 1303 l166 270l464 -275l-93 -151zM416 574q82 18 139 73.5t57 114.5q0 44 -38 44q-42 0 -90 -69t-68 -163z" />
<glyph unicode="&#xe9;" horiz-adv-x="869" d="M60 306q0 128 35 255.5t99.5 236.5t171 177.5t235.5 68.5q138 0 212.5 -64t74.5 -182q1 -77 -35 -141.5t-103.5 -112t-156 -81.5t-197.5 -55q-7 -48 -7 -101q0 -34 9 -49t32 -15q100 0 323 98l31 -227q-64 -44 -191 -89t-258 -45q-139 0 -207 78.5t-68 247.5zM360 1298 l550 275l80 -270l-585 -156zM416 574q82 18 139 73.5t57 114.5q0 44 -38 44q-42 0 -90 -69t-68 -163z" />
<glyph unicode="&#xea;" horiz-adv-x="869" d="M60 306q0 128 35 255.5t99.5 236.5t171 177.5t235.5 68.5q138 0 212.5 -64t74.5 -182q1 -77 -35 -141.5t-103.5 -112t-156 -81.5t-197.5 -55q-7 -48 -7 -101q0 -34 9 -49t32 -15q100 0 323 98l31 -227q-64 -44 -191 -89t-258 -45q-139 0 -207 78.5t-68 247.5zM263 1315 q234 142 417 260q162 -129 335 -260l-189 -190q-94 81 -188 185q-120 -99 -246 -185zM416 574q82 18 139 73.5t57 114.5q0 44 -38 44q-42 0 -90 -69t-68 -163z" />
<glyph unicode="&#xeb;" horiz-adv-x="869" d="M60 306q0 128 35 255.5t99.5 236.5t171 177.5t235.5 68.5q138 0 212.5 -64t74.5 -182q1 -77 -35 -141.5t-103.5 -112t-156 -81.5t-197.5 -55q-7 -48 -7 -101q0 -34 9 -49t32 -15q100 0 323 98l31 -227q-64 -44 -191 -89t-258 -45q-139 0 -207 78.5t-68 247.5zM228 1312 q0 103 60.5 159.5t160.5 56.5q68 0 107 -36.5t39 -103.5q0 -104 -60 -160t-160 -56q-68 0 -107.5 36.5t-39.5 103.5zM416 574q82 18 139 73.5t57 114.5q0 44 -38 44q-42 0 -90 -69t-68 -163zM684 1312q0 103 60.5 159.5t160.5 56.5q68 0 107 -36.5t39 -103.5 q0 -104 -60 -160t-160 -56q-68 0 -107.5 36.5t-39.5 103.5z" />
<glyph unicode="&#xec;" horiz-adv-x="539" d="M66 1303l166 270l464 -275l-93 -151zM72 72q-4 51 5 128l132 824h326l-121 -762q-28 -176 -22 -262h-307q-9 21 -13 72z" />
<glyph unicode="&#xed;" horiz-adv-x="539" d="M72 72q-4 51 5 128l132 824h326l-121 -762q-28 -176 -22 -262h-307q-9 21 -13 72zM160 1298l550 275l80 -270l-585 -156z" />
<glyph unicode="&#xee;" horiz-adv-x="539" d="M55 1315q234 142 417 260q162 -129 335 -260l-189 -190q-94 81 -188 185q-120 -99 -246 -185zM72 72q-4 51 5 128l132 824h326l-121 -762q-28 -176 -22 -262h-307q-9 21 -13 72z" />
<glyph unicode="&#xef;" horiz-adv-x="539" d="M20 1312q0 103 60.5 159.5t160.5 56.5q68 0 107 -36.5t39 -103.5q0 -104 -60 -160t-160 -56q-68 0 -107.5 36.5t-39.5 103.5zM72 72q-4 51 5 128l132 824h326l-121 -762q-28 -176 -22 -262h-307q-9 21 -13 72zM476 1312q0 103 60.5 159.5t160.5 56.5q68 0 107 -36.5 t39 -103.5q0 -104 -60 -160t-160 -56q-68 0 -107.5 36.5t-39.5 103.5z" />
<glyph unicode="&#xf0;" horiz-adv-x="1094" d="M40 410q0 181 72.5 325t205.5 226.5t304 82.5q114 0 179 -86q-8 152 -70 220l-73 -105l-114 63l69 100q-18 2 -29 2q-100 0 -221 -50l-25 222q49 23 137.5 46.5t177.5 23.5q62 0 120 -13l89 129l115 -64l-80 -115q271 -175 168 -826q-47 -294 -204.5 -452.5 t-399.5 -158.5q-201 0 -311 117t-110 313zM379 419q0 -201 131 -201q87 0 134 73t69 215l7 42t9 56q-2 202 -135 202q-51 0 -90.5 -26.5t-62.5 -66.5t-37.5 -94t-19.5 -102t-5 -98z" />
<glyph unicode="&#xf1;" horiz-adv-x="1124" d="M45 0l121 762q28 176 22 262h307q7 -21 9.5 -42.5t-1 -50.5t-7 -49.5t-15.5 -61t-19 -62t-25 -75t-26 -79.5q196 440 457 440q132 0 180 -94t21 -262l-68 -426q-28 -176 -22 -262h-307q-9 21 -13 72t5 128l72 454q10 70 -32 70q-23 0 -53 -18t-67 -62t-71.5 -108.5 t-67 -168.5t-52.5 -230v1l-22 -138h-326zM302 1290q21 50 59 99t104.5 90t140.5 41q44 0 90 -19.5t83.5 -39t62.5 -19.5q20 0 41.5 12.5t34.5 24.5t52 50l138 -110q-42 -93 -125 -161t-195 -68q-45 0 -118.5 39t-104.5 39q-20 0 -41 -12t-34 -24.5t-50 -50.5z" />
<glyph unicode="&#xf2;" horiz-adv-x="979" d="M40 331q0 205 71.5 366t208 254t318.5 93q161 0 251 -96t90 -255q0 -205 -71.5 -366.5t-208.5 -254t-318 -92.5q-159 0 -250 96.5t-91 254.5zM309 1303l166 270l464 -275l-93 -151zM369 340q0 -122 63 -122q64 0 115 66.5t77 172t26 228.5q0 121 -64 121t-114.5 -66 t-76.5 -172t-26 -228z" />
<glyph unicode="&#xf3;" horiz-adv-x="979" d="M40 331q0 205 71.5 366t208 254t318.5 93q161 0 251 -96t90 -255q0 -205 -71.5 -366.5t-208.5 -254t-318 -92.5q-159 0 -250 96.5t-91 254.5zM359 1298l550 275l80 -270l-585 -156zM369 340q0 -122 63 -122q64 0 115 66.5t77 172t26 228.5q0 121 -64 121t-114.5 -66 t-76.5 -172t-26 -228z" />
<glyph unicode="&#xf4;" horiz-adv-x="979" d="M40 331q0 205 71.5 366t208 254t318.5 93q161 0 251 -96t90 -255q0 -205 -71.5 -366.5t-208.5 -254t-318 -92.5q-159 0 -250 96.5t-91 254.5zM268 1315q234 142 417 260q162 -129 335 -260l-189 -190q-94 81 -188 185q-120 -99 -246 -185zM369 340q0 -122 63 -122 q64 0 115 66.5t77 172t26 228.5q0 121 -64 121t-114.5 -66t-76.5 -172t-26 -228z" />
<glyph unicode="&#xf5;" horiz-adv-x="979" d="M40 331q0 205 71.5 366t208 254t318.5 93q161 0 251 -96t90 -255q0 -205 -71.5 -366.5t-208.5 -254t-318 -92.5q-159 0 -250 96.5t-91 254.5zM241 1290q21 50 59 99t104.5 90t140.5 41q44 0 90 -19.5t83.5 -39t62.5 -19.5q20 0 41.5 12.5t34.5 24.5t52 50l138 -110 q-42 -93 -125 -161t-195 -68q-45 0 -118.5 39t-104.5 39q-20 0 -41 -12t-34 -24.5t-50 -50.5zM369 340q0 -122 63 -122q64 0 115 66.5t77 172t26 228.5q0 121 -64 121t-114.5 -66t-76.5 -172t-26 -228z" />
<glyph unicode="&#xf6;" horiz-adv-x="979" d="M40 331q0 205 71.5 366t208 254t318.5 93q161 0 251 -96t90 -255q0 -205 -71.5 -366.5t-208.5 -254t-318 -92.5q-159 0 -250 96.5t-91 254.5zM233 1312q0 103 60.5 159.5t160.5 56.5q68 0 107 -36.5t39 -103.5q0 -104 -60 -160t-160 -56q-68 0 -107.5 36.5t-39.5 103.5z M369 340q0 -122 63 -122q64 0 115 66.5t77 172t26 228.5q0 121 -64 121t-114.5 -66t-76.5 -172t-26 -228zM689 1312q0 103 60.5 159.5t160.5 56.5q68 0 107 -36.5t39 -103.5q0 -104 -60 -160t-160 -56q-68 0 -107.5 36.5t-39.5 103.5z" />
<glyph unicode="&#xf7;" horiz-adv-x="1289" d="M195 546l38 237h891l-38 -237h-891zM417 257q0 103 60.5 159.5t160.5 56.5q68 0 107 -36.5t39 -103.5q0 -104 -60 -160t-160 -56q-68 0 -107.5 36.5t-39.5 103.5zM532 994q0 103 60.5 159.5t160.5 56.5q68 0 107 -36.5t39 -103.5q0 -104 -60 -160t-160 -56 q-68 0 -107.5 36.5t-39.5 103.5z" />
<glyph unicode="&#xf8;" horiz-adv-x="979" d="M-59 -106l166 210q-67 90 -67 227q0 205 71.5 366t208 254t318.5 93q105 0 182 -43l152 191l105 -61l-166 -209q68 -93 68 -229q0 -205 -71.5 -366.5t-208.5 -254t-318 -92.5q-104 0 -183 44l-151 -191zM374 439l263 331q-16 36 -51 36q-83 0 -140 -105t-72 -262z M381 254q16 -36 51 -36q83 0 140.5 105.5t72.5 263.5z" />
<glyph unicode="&#xf9;" horiz-adv-x="1118" d="M100 336l68 426q28 176 22 262h307q9 -22 13 -72.5t-5 -127.5l-72 -454q-10 -70 32 -70q29 0 67.5 31t82.5 94.5t85.5 184.5t65.5 277v-1l22 138h326l-121 -762q-28 -176 -22 -262h-307q-7 21 -9.5 42.5t1 50.5t7 49.5t15.5 61t19 62t25 75t26 79.5q-191 -440 -447 -440 q-132 0 -180 94t-21 262zM362 1303l166 270l464 -275l-93 -151z" />
<glyph unicode="&#xfa;" horiz-adv-x="1118" d="M100 336l68 426q28 176 22 262h307q9 -22 13 -72.5t-5 -127.5l-72 -454q-10 -70 32 -70q29 0 67.5 31t82.5 94.5t85.5 184.5t65.5 277v-1l22 138h326l-121 -762q-28 -176 -22 -262h-307q-7 21 -9.5 42.5t1 50.5t7 49.5t15.5 61t19 62t25 75t26 79.5q-191 -440 -447 -440 q-132 0 -180 94t-21 262zM452 1298l550 275l80 -270l-585 -156z" />
<glyph unicode="&#xfb;" horiz-adv-x="1118" d="M100 336l68 426q28 176 22 262h307q9 -22 13 -72.5t-5 -127.5l-72 -454q-10 -70 32 -70q29 0 67.5 31t82.5 94.5t85.5 184.5t65.5 277v-1l22 138h326l-121 -762q-28 -176 -22 -262h-307q-7 21 -9.5 42.5t1 50.5t7 49.5t15.5 61t19 62t25 75t26 79.5q-191 -440 -447 -440 q-132 0 -180 94t-21 262zM331 1315q234 142 417 260q162 -129 335 -260l-189 -190q-94 81 -188 185q-120 -99 -246 -185z" />
<glyph unicode="&#xfc;" horiz-adv-x="1118" d="M100 336l68 426q28 176 22 262h307q9 -22 13 -72.5t-5 -127.5l-72 -454q-10 -70 32 -70q29 0 67.5 31t82.5 94.5t85.5 184.5t65.5 277v-1l22 138h326l-121 -762q-28 -176 -22 -262h-307q-7 21 -9.5 42.5t1 50.5t7 49.5t15.5 61t19 62t25 75t26 79.5q-191 -440 -447 -440 q-132 0 -180 94t-21 262zM316 1312q0 103 60.5 159.5t160.5 56.5q68 0 107 -36.5t39 -103.5q0 -104 -60 -160t-160 -56q-68 0 -107.5 36.5t-39.5 103.5zM772 1312q0 103 60.5 159.5t160.5 56.5q68 0 107 -36.5t39 -103.5q0 -104 -60 -160t-160 -56q-68 0 -107.5 36.5 t-39.5 103.5z" />
<glyph unicode="&#xfd;" horiz-adv-x="958" d="M-185 -356l90 220q19 -10 58 -18.5t72 -8.5q67 0 101 31t47 115.5t5 245.5q-11 190 -28.5 377t-32.5 293.5t-22 124.5h301q7 -27 18.5 -110.5t27 -263t26.5 -394.5q0 -4 0.5 -13t0.5 -14q90 150 139.5 320.5t49.5 330.5q0 86 -19 144l302 20q27 -71 27 -167 q0 -165 -88.5 -378.5t-229 -415.5t-307.5 -368q-119 -131 -330 -131q-121 0 -208 60zM310 1298l550 275l80 -270l-585 -156z" />
<glyph unicode="&#xfe;" horiz-adv-x="1093" d="M-19 -396l61 376l18 111l178 1114q22 136 11 255l319 20q22 -103 -2 -258l-38 -241q-5 -34 -15.5 -73t-21 -69.5t-33.5 -97.5t-40 -118q84 205 185.5 313t234.5 108q111 0 173 -80t62 -246q0 -200 -69.5 -369t-194 -269t-275.5 -100q-82 0 -158 53l-8 -50v-3h-1l-60 -376 h-326zM398 274q8 -7 21.5 -15.5t40 -18.5t52.5 -10q89 0 160.5 136t71.5 345q0 54 -31 54q-33 0 -94.5 -69.5t-125 -187t-95.5 -234.5z" />
<glyph unicode="&#xff;" horiz-adv-x="958" d="M-185 -356l90 220q19 -10 58 -18.5t72 -8.5q67 0 101 31t47 115.5t5 245.5q-11 190 -28.5 377t-32.5 293.5t-22 124.5h301q7 -27 18.5 -110.5t27 -263t26.5 -394.5q0 -4 0.5 -13t0.5 -14q90 150 139.5 320.5t49.5 330.5q0 86 -19 144l302 20q27 -71 27 -167 q0 -165 -88.5 -378.5t-229 -415.5t-307.5 -368q-119 -131 -330 -131q-121 0 -208 60zM194 1312q0 103 60.5 159.5t160.5 56.5q68 0 107 -36.5t39 -103.5q0 -104 -60 -160t-160 -56q-68 0 -107.5 36.5t-39.5 103.5zM650 1312q0 103 60.5 159.5t160.5 56.5q68 0 107 -36.5 t39 -103.5q0 -104 -60 -160t-160 -56q-68 0 -107.5 36.5t-39.5 103.5z" />
<glyph unicode="&#x152;" horiz-adv-x="1764" d="M80 513q0 243 92 433.5t258.5 297t379.5 106.5q133 0 235 -63l7 43h792l-43 -268h-470l-41 -262h442l-41 -258h-442l-44 -274h489l-42 -268h-811l7 43q-120 -63 -256 -63q-248 0 -380 146t-132 387zM429 548q0 -143 51.5 -226.5t162.5 -83.5q151 0 256 127l96 608 q-76 119 -226 119q-142 0 -241 -147.5t-99 -396.5z" />
<glyph unicode="&#x153;" horiz-adv-x="1374" d="M40 331q0 205 71.5 366t208 254t318.5 93q119 0 195 -95q121 95 273 95q138 0 212.5 -64t74.5 -182q1 -77 -35 -141.5t-103.5 -112t-156 -81.5t-197.5 -55q-7 -48 -7 -101q0 -34 9 -49t32 -15q100 0 323 98l31 -227q-64 -44 -191 -89t-258 -45q-136 0 -204 75 q-116 -75 -255 -75q-159 0 -250 96.5t-91 254.5zM369 340q0 -122 63 -122q77 0 133 68v20q0 210 84 398q-4 102 -63 102q-64 0 -114.5 -66t-76.5 -172t-26 -228zM921 574q82 18 139 73.5t57 114.5q0 44 -38 44q-42 0 -90 -69t-68 -163z" />
<glyph unicode="&#x178;" horiz-adv-x="1087" d="M105 1330h346l146 -509l309 509h346l-547 -836h1l-78 -494h-322l78 494h1zM309 1612q0 103 60.5 159.5t160.5 56.5q68 0 107 -36.5t39 -103.5q0 -104 -60 -160t-160 -56q-68 0 -107.5 36.5t-39.5 103.5zM765 1612q0 103 60.5 159.5t160.5 56.5q68 0 107 -36.5t39 -103.5 q0 -104 -60 -160t-160 -56q-68 0 -107.5 36.5t-39.5 103.5z" />
<glyph unicode="&#x2c6;" horiz-adv-x="902" d="M200 1315q234 142 417 260q162 -129 335 -260l-189 -190q-94 81 -188 185q-120 -99 -246 -185z" />
<glyph unicode="&#x2dc;" horiz-adv-x="866" d="M160 1290q21 50 59 99t104.5 90t140.5 41q44 0 90 -19.5t83.5 -39t62.5 -19.5q20 0 41.5 12.5t34.5 24.5t52 50l138 -110q-42 -93 -125 -161t-195 -68q-45 0 -118.5 39t-104.5 39q-20 0 -41 -12t-34 -24.5t-50 -50.5z" />
<glyph unicode="&#x2000;" horiz-adv-x="944" />
<glyph unicode="&#x2001;" horiz-adv-x="1888" />
<glyph unicode="&#x2002;" horiz-adv-x="944" />
<glyph unicode="&#x2003;" horiz-adv-x="1888" />
<glyph unicode="&#x2004;" horiz-adv-x="629" />
<glyph unicode="&#x2005;" horiz-adv-x="472" />
<glyph unicode="&#x2006;" horiz-adv-x="314" />
<glyph unicode="&#x2007;" horiz-adv-x="314" />
<glyph unicode="&#x2008;" horiz-adv-x="236" />
<glyph unicode="&#x2009;" horiz-adv-x="377" />
<glyph unicode="&#x200a;" horiz-adv-x="104" />
<glyph unicode="&#x2010;" horiz-adv-x="1092" d="M190 404l41 257h661l-41 -257h-661z" />
<glyph unicode="&#x2011;" horiz-adv-x="1092" d="M190 404l41 257h661l-41 -257h-661z" />
<glyph unicode="&#x2012;" horiz-adv-x="1092" d="M190 404l41 257h661l-41 -257h-661z" />
<glyph unicode="&#x2013;" horiz-adv-x="1202" d="M190 404l41 257h951l-41 -257h-951z" />
<glyph unicode="&#x2014;" horiz-adv-x="1804" d="M190 404l41 257h1553l-41 -257h-1553z" />
<glyph unicode="&#x2018;" horiz-adv-x="521" d="M160 1131q0 268 358 398l93 -126q-187 -93 -187 -237q0 -102 87 -194l-256 -69q-37 32 -66 93t-29 135z" />
<glyph unicode="&#x2019;" horiz-adv-x="521" d="M130 1029q187 93 187 237q0 102 -87 194l256 69q37 -32 66 -93t29 -135q0 -268 -358 -398z" />
<glyph unicode="&#x201a;" horiz-adv-x="521" d="M-60 -164q187 94 187 237q0 102 -87 194l256 69q37 -32 66 -93t29 -135q0 -268 -358 -398z" />
<glyph unicode="&#x201c;" horiz-adv-x="835" d="M169 1113q0 267 358 398l83 -126q-186 -93 -186 -237q0 -101 86 -194l-246 -69q-37 32 -66 93t-29 135zM601 1133q0 267 358 398l84 -126q-187 -93 -187 -237q0 -101 86 -194l-246 -69q-37 32 -66 93t-29 135z" />
<glyph unicode="&#x201d;" horiz-adv-x="944" d="M130 1011q187 93 187 237q0 101 -86 194l246 69q37 -32 66 -93t29 -135q0 -267 -358 -398zM563 1031q186 93 186 237q0 101 -86 194l246 69q37 -32 66 -93t29 -135q0 -267 -358 -398z" />
<glyph unicode="&#x201e;" horiz-adv-x="944" d="M-60 -164q187 93 187 237q0 101 -86 194l246 69q37 -32 66 -93t29 -135q0 -267 -358 -398zM373 -144q186 93 186 237q0 101 -86 194l246 69q37 -32 66 -93t29 -135q0 -267 -358 -398z" />
<glyph unicode="&#x2022;" horiz-adv-x="701" d="M40 627q0 161 94 248.5t249 87.5q106 0 167 -57t61 -161q0 -162 -93.5 -249t-249.5 -87q-105 0 -166.5 57t-61.5 161z" />
<glyph unicode="&#x2026;" horiz-adv-x="1659" d="M50 120q0 103 60.5 159.5t160.5 56.5q68 0 107 -36.5t39 -103.5q0 -104 -60 -160t-160 -56q-68 0 -107.5 36.5t-39.5 103.5zM586 120q0 103 60.5 159.5t160.5 56.5q68 0 107 -36.5t39 -103.5q0 -104 -60 -160t-160 -56q-68 0 -107.5 36.5t-39.5 103.5zM1122 120 q0 103 60.5 159.5t160.5 56.5q68 0 107 -36.5t39 -103.5q0 -104 -60 -160t-160 -56q-68 0 -107.5 36.5t-39.5 103.5z" />
<glyph unicode="&#x202f;" horiz-adv-x="377" />
<glyph unicode="&#x2039;" horiz-adv-x="856" d="M120 512q242 206 518 510l198 -163q-138 -163 -366 -347q168 -182 256 -347l-250 -163q-179 305 -356 510z" />
<glyph unicode="&#x203a;" horiz-adv-x="876" d="M60 164q138 163 366 347q-168 182 -256 347l250 163q179 -305 356 -510q-242 -206 -518 -510z" />
<glyph unicode="&#x205f;" horiz-adv-x="472" />
<glyph unicode="&#x20ac;" horiz-adv-x="1377" d="M131 462l23 143h865l-23 -143h-375q24 -100 92.5 -154.5t172.5 -54.5q159 0 304 62l41 -242q-76 -41 -179.5 -67t-199.5 -26q-273 0 -428 126t-172 356h-121zM173 726l23 143h125q94 225 291 353t457 128q92 0 184 -22t144 -56l-108 -247q-122 52 -252 52 q-245 0 -357 -208h381l-23 -143h-865z" />
<glyph unicode="&#x2122;" horiz-adv-x="851" d="M160 1258l15 92h258l-15 -92h-75l-37 -234h-108l37 234h-75zM415 1024l52 326h175l10 -200l74 200h175l-52 -326h-109l35 220l-97 -220h-92l-27 220l-35 -220h-109z" />
<glyph unicode="&#x25fc;" horiz-adv-x="1025" d="M0 0v1025h1025v-1025h-1025z" />
</font>
</defs>
</svg>
